<svg width="136" height="100" viewBox="0 0 136 100" fill="none" xmlns="http://www.w3.org/2000/svg">
<path opacity="0.1" fill-rule="evenodd" clip-rule="evenodd" d="M134.369 62.4645C133.343 63.2543 131.312 64.059 130.078 64.2419C129.151 64.3794 128.643 64.0727 128.937 63.0281C129.252 61.903 130.261 60.0589 131.431 59.1591C133.87 57.2801 137.176 60.3032 134.369 62.4645ZM123.704 57.0348C124.245 68.2018 132.096 72.8607 124.363 80.8492C113.438 92.1378 96.4375 83.61 84.9524 83.7845C63.6737 84.1091 50.0862 84.6272 50.0862 84.6272C50.0862 84.6272 13.9998 98.6555 6.55831 69.4928C2.97877 55.4645 10.5572 56.6287 12.3199 46.9347C13.6526 39.608 5.43058 33.9807 10.6741 22.4838C12.8859 17.6346 18.7091 19.7144 25.298 15.0947C30.5595 11.4045 33.4351 1.65965 45.1846 0.240644C60.4606 -1.60449 59.3605 7.73538 73.9622 8.71875C89.3422 9.75393 94.0197 -0.36948 103.558 3.96685C114.386 8.89002 110.705 12.8891 115.725 19.7494C119.483 24.884 126.152 24.6218 128.059 37.3823C129.176 44.8558 123.247 47.6008 123.704 57.0348ZM120.47 10.6749C123.722 12.1129 127.472 15.2893 124.716 18.582C120.302 19.2587 111.286 6.61559 120.47 10.6749ZM25.6899 10.4264C24.628 10.8599 24.6046 9.89455 24.7809 9.41556C24.9571 8.93445 25.3628 8.52312 25.8863 8.26195C26.6413 7.88341 28.0408 8.63834 27.4504 9.15857C26.9917 9.56249 26.3514 10.1568 25.6899 10.4264ZM19.5863 14.2013C17.9319 15.0313 14.8641 13.3755 16.1586 12.2356C17.1631 11.3527 18.5669 10.0489 20.0153 9.45783C22.3407 8.5083 22.3928 10.6231 22.0073 11.672C21.6208 12.7251 20.731 13.6271 19.5863 14.2013ZM3.44706 42.3276C3.326 38.3476 6.21423 39.2824 6.77808 39.5086C6.91718 39.5647 9.52195 40.3599 7.59042 43.4612C5.43803 46.9156 3.4959 43.9285 3.44706 42.3276Z" fill="#D2E5F2"/>
<path fill-rule="evenodd" clip-rule="evenodd" d="M134.421 49.3559C131.541 51.9269 129.771 51.8998 128.753 52.0911L127.834 52.6463C128.496 52.8 130.206 53.1273 131.391 52.7237C133.963 51.8485 135.581 54.2408 134.299 54.9214C130.001 57.2039 127.641 53.7765 127.268 52.9882L124.969 54.3778C125.634 54.6454 127.759 55.5613 129.111 55.9586C131.544 56.6738 130.243 59.477 127.417 58.0707C126.168 57.4486 124.999 55.0156 124.823 54.4677L122.9 55.6293C123.322 55.8447 124.613 56.4323 125.985 57.9985C128.067 60.3751 125.501 60.6835 123.69 58.3864C123.097 57.6347 122.639 56.1709 122.713 55.7422L120.367 57.16C120.819 57.6116 122.456 59.2678 123.164 60.2966C123.958 61.4541 121.907 62.553 120.783 60.9157C120.068 59.8764 120.171 57.8824 120.226 57.2447C120.226 57.2447 119.511 57.6765 118.578 58.2411C118.358 58.3739 118.127 58.514 117.891 58.6562C118.366 59.2009 120.2 61.3454 121.032 63.0538C121.764 64.5594 120.467 66.2825 119.884 65.0853C119.052 63.3758 118.04 59.5585 117.819 58.6991C117.474 58.9071 117.119 59.1215 116.772 59.3306C116.705 60.1106 116.58 63.0225 118.26 64.9014C119.554 66.3505 120.377 67.9387 120.066 69.1003C119.758 70.2515 118.328 70.9959 117.068 66.8042C116.295 64.2301 116.302 60.6731 116.324 59.6014C115.198 60.282 114.268 60.8446 114.268 60.8446L114.076 60.5319L119.839 57.0492C119.471 56.8495 118.222 56.1468 117.626 55.4902C116.455 54.2052 117.97 53.8456 119.181 55.1745C119.728 55.7746 119.892 56.6769 119.935 56.9927L122.424 55.4881C121.935 55.2853 120.864 55.0678 120.271 54.1885C118.254 51.1898 121.666 50.8375 122.012 53.2674C122.163 54.3203 122.6 54.9287 122.594 55.3846L124.615 54.1634C124.159 53.8801 122.833 52.8816 122.798 50.8521C122.766 48.9722 125.592 48.9659 125.28 51.3749C125.134 52.5041 124.911 53.5967 124.816 54.0421L127.068 52.6808C127.099 52.1925 127.086 50.8218 126.098 50.0042C124.166 48.4118 124.387 46.4722 126.464 46.4534C130.678 46.4147 128.344 51.0717 127.644 52.3337L128.672 51.7115L128.693 51.7451C128.696 51.743 128.697 51.7409 128.699 51.7398C129.694 50.9232 131.807 47.5241 133.511 46.2798C135.19 45.0565 136.523 46.4879 134.421 49.3559ZM124.258 30.1312C124 30.3957 123.739 30.6539 123.475 30.9038C124.099 30.8672 125.698 30.6979 126.72 29.9409C128.439 28.6047 130.029 30.9718 129.373 31.572C125.554 34.6857 123.365 31.8992 122.982 31.3566C122.309 31.9578 121.612 32.5098 120.895 33.0211C121.549 33.1184 123.674 33.3797 124.726 33.9307C125.442 34.3092 124.914 35.1917 124.912 35.1886C124.915 35.1948 123.398 35.7375 122.652 35.3339C121.603 34.7703 120.954 33.5272 120.759 33.1194C120.157 33.5428 119.54 33.9391 118.915 34.3187C119.337 34.4274 120.515 34.7452 120.951 35.4144C121.303 35.9539 120.635 37.1751 120.638 37.1824C120.638 37.1835 119.366 36.8625 118.951 36.2205C118.546 35.5911 118.666 34.7609 118.731 34.4284C117.966 34.8885 117.188 35.3245 116.41 35.7636C116.879 36.071 118.538 37.1344 119.322 37.9489C119.757 38.3985 119.511 38.9756 118.989 39.2589C118.859 39.329 118.711 39.3812 118.552 39.4074C118.393 39.4335 118.222 39.4335 118.048 39.4042C117.7 39.3436 117.333 39.1564 117.015 38.8166C116.193 37.9279 116.224 36.3219 116.27 35.8431C114.288 36.9451 112.344 38.137 110.531 39.581C110.455 39.4858 110.378 39.3906 110.299 39.2955C112.059 37.9122 113.951 36.782 115.876 35.7291C115.501 35.6141 114.202 35.1541 113.532 34.6271C112.203 33.5732 113.845 33.3599 115.149 34.3343C115.736 34.7693 115.917 35.4353 115.968 35.6768C116.798 35.2178 117.627 34.7609 118.442 34.2768C117.958 34.1932 116.478 33.8607 115.724 33.2543C114.693 32.4335 114.736 31.253 114.733 31.2499C114.74 31.2583 116.794 31.5008 117.786 32.2787C118.531 32.8695 118.607 33.8356 118.608 34.1764C119.268 33.7812 119.916 33.3651 120.548 32.9166C120.085 32.7514 118.811 32.2809 118.519 30.3685C117.918 27.2653 120.798 26.5574 120.967 30.3643C120.97 31.481 120.808 32.4073 120.735 32.7827C121.436 32.2766 122.115 31.7298 122.772 31.1349C122.762 30.7052 122.595 29.4098 121.52 28.7699C119.492 27.6794 118.966 24.1474 120.886 23.4615C121.01 23.4239 121.129 23.3957 121.245 23.3769C121.36 23.358 121.473 23.3476 121.579 23.3465C121.793 23.3434 121.992 23.3727 122.174 23.4312C122.539 23.5473 122.84 23.7731 123.082 24.0701C123.567 24.6661 123.814 25.538 123.895 26.4278C124.07 28.2324 123.533 30.0099 123.268 30.6686C123.562 30.3853 123.852 30.0936 124.136 29.7914C124.144 29.7998 124.152 29.8091 124.158 29.8175C124.16 29.8154 124.161 29.8133 124.163 29.8112C125.004 28.8138 126.866 25.3237 128.044 23.0966C128.641 22.0197 129.33 21.7468 129.727 22.2319C129.925 22.4735 130.051 22.9053 130.054 23.5169C130.055 24.1286 129.933 24.9222 129.627 25.8663C127.555 29.7788 124.845 30.034 124.258 30.1312ZM24.6247 39.5799C22.8134 38.136 20.8686 36.9441 18.8859 35.842C18.9321 36.3209 18.9637 37.9279 18.1411 38.8156C17.8224 39.1554 17.4564 39.3426 17.1083 39.4032C16.9336 39.4335 16.7632 39.4335 16.6044 39.4064C16.4456 39.3802 16.2973 39.329 16.1668 39.2579C15.6451 38.9746 15.399 38.3974 15.8345 37.9478C16.617 37.1333 18.2758 36.07 18.746 35.7626C17.9676 35.3245 17.1892 34.8874 16.4235 34.4274C16.4887 34.7609 16.6086 35.5901 16.2047 36.2195C15.7903 36.8615 14.5176 37.1825 14.5176 37.1814C14.5207 37.1741 13.8528 35.9529 14.2052 35.4134C14.6406 34.7442 15.8187 34.4263 16.2416 34.3176C15.6157 33.9381 14.9993 33.5418 14.3976 33.1184C14.202 33.5261 13.5541 34.7693 12.5043 35.3328C11.7586 35.7375 10.2408 35.1938 10.244 35.1875C10.2419 35.1907 9.71386 34.3093 10.4291 33.9297C11.4809 33.3787 13.6067 33.1173 14.261 33.0201C13.5426 32.5088 12.8462 31.9567 12.1741 31.3555C11.7902 31.8982 9.60237 34.6846 5.78315 31.5709C5.12576 30.9718 6.71718 28.6046 8.43483 29.9398C9.45722 30.6968 11.057 30.8662 11.6797 30.9028C11.4157 30.6529 11.1538 30.3946 10.8972 30.1301C10.3092 30.0329 7.23151 29.7777 5.1594 25.8642C4.85436 24.9201 4.73232 24.1265 4.73337 23.5149C4.73337 23.3622 4.74182 23.2211 4.75655 23.0904C4.76391 23.0256 4.77338 22.9628 4.7839 22.9032C4.79441 22.8436 4.80705 22.7872 4.82177 22.7338C4.87857 22.5195 4.95849 22.3512 5.05841 22.2309C5.456 21.7468 6.14388 22.0187 6.74132 23.0956C7.91938 25.3227 10.1504 28.8138 10.9908 29.8102C10.9929 29.8123 10.9929 29.8144 10.995 29.8165C11.0023 29.8081 11.0108 29.7987 11.0181 29.7903C11.3032 30.0925 11.5924 30.3853 11.8869 30.6676C11.6208 30.0089 11.0855 28.2314 11.259 26.4268C11.3411 25.537 11.5882 24.665 12.0731 24.069C12.315 23.7721 12.6158 23.5463 12.9808 23.4302C13.1628 23.3727 13.3616 23.3423 13.5762 23.3455C13.6835 23.3465 13.795 23.357 13.9107 23.3758C14.0264 23.3947 14.1463 23.4218 14.2694 23.4605C16.19 24.1454 15.6641 27.6783 13.6361 28.7688C12.5601 29.4076 12.3929 30.7042 12.3834 31.1339C13.0397 31.7288 13.7192 32.2756 14.4187 32.7817C14.3472 32.4063 14.1852 31.48 14.1883 30.3633C14.3577 26.5564 17.2366 27.2642 16.636 30.3675C16.3446 32.2798 15.0698 32.7503 14.607 32.9155C15.2391 33.363 15.8871 33.7792 16.5466 34.1754C16.5466 33.8335 16.6244 32.8685 17.3702 32.2777C18.3621 31.4998 20.4163 31.2562 20.4226 31.2489C20.4205 31.2531 20.4636 32.4324 19.4317 33.2532C18.6776 33.8596 17.1966 34.1922 16.7138 34.2758C17.5279 34.7599 18.3578 35.2157 19.1867 35.6758C19.2382 35.4343 19.4202 34.7683 20.0061 34.3333C21.3114 33.3588 22.9523 33.5721 21.6227 34.626C20.9538 35.153 19.6537 35.6131 19.2803 35.7281C21.2052 36.7809 23.0974 37.9112 24.8561 39.2945C24.7783 39.3907 24.7015 39.4848 24.6247 39.5799ZM8.29911 51.7471L8.32017 51.7137L9.34883 52.3358C8.64726 51.0738 6.09974 46.0206 10.3145 46.0603C12.3897 46.0802 12.8241 48.4138 10.894 50.0073C9.9063 50.8239 9.89265 52.1956 9.92316 52.6839L12.1751 54.0452C12.0794 53.5998 11.8564 52.5073 11.7102 51.378C11.2548 47.8597 14.2431 47.9078 14.1936 50.8553C14.1589 52.8847 12.8325 53.8832 12.376 54.1665L14.3966 55.3877C14.3914 54.9308 14.4408 53.6553 15.1319 52.8439C16.0659 51.7481 17.9855 51.355 17.9855 51.355C17.9855 51.355 18.1611 52.7101 17.2092 53.8246C16.5213 54.6318 15.054 55.2863 14.566 55.4902L17.0567 56.9948C17.0988 56.678 17.2639 55.7767 17.8098 55.1766C19.0194 53.8477 20.5341 54.2063 19.3645 55.4923C18.7681 56.1489 17.5185 56.8515 17.1514 57.0512L22.9144 60.534L22.723 60.8466L16.7643 57.2457C16.819 57.8825 16.921 59.8774 16.2079 60.9167C15.0834 62.554 13.0324 61.4562 13.8265 60.2977C14.5344 59.2689 16.1711 57.6127 16.6234 57.1611L14.2767 55.7433C14.3503 56.1719 14.4829 57.2698 14.0969 58.1439C13.7024 59.0399 12.4496 59.6212 12.4496 59.6212C12.4496 59.6212 11.7028 58.2631 12.0468 57.482C12.4686 56.5254 13.6687 55.8468 14.0905 55.6304L12.1677 54.4687C11.991 55.0166 11.3516 56.8139 10.3082 57.7371C9.56977 58.3916 7.99301 58.0456 7.99301 58.0456C7.99301 58.0456 7.38085 57.1391 8.094 56.5076C9.14478 55.576 11.3568 54.6475 12.0205 54.3798L9.72119 52.9903C9.34884 53.7786 7.32509 57.4789 3.02728 55.1964C2.2647 54.7918 3.5764 52.0378 5.59698 52.7258C6.7824 53.1294 8.49264 52.8021 9.15425 52.6484L8.23389 52.0932C7.5849 52.2365 4.34527 52.7812 1.46429 50.2101C-0.511059 47.5147 0.894203 46.2652 2.58976 47.5021C4.29374 48.7453 7.29464 50.9263 8.28968 51.744C8.29704 51.7429 8.29806 51.745 8.29911 51.7471Z" fill="#94D4CD"/>
<path fill-rule="evenodd" clip-rule="evenodd" d="M82.7004 95.3481C83.7204 95.3481 84.5467 96.1649 84.5467 97.1729C84.5467 98.182 83.7204 99 82.7004 99H52.0741C51.0551 99 50.2288 98.182 50.2288 97.1729C50.2288 96.1649 51.0551 95.3481 52.0741 95.3481H55.5793L56.2898 85.854H19.232C18.213 85.854 17.3867 85.035 17.3867 84.0259V16.8259C17.3867 15.8179 18.213 15 19.232 15H115.542C116.56 15 117.387 15.8169 117.387 16.8259V84.0259C117.387 85.035 116.56 85.854 115.542 85.854H78.4846L79.1941 95.3481H82.7004Z" fill="#689EC0"/>
<path fill-rule="evenodd" clip-rule="evenodd" d="M78.3867 89H56.3867L56.6254 86H78.1481L78.3867 89Z" fill="#578EAA"/>
<path fill-rule="evenodd" clip-rule="evenodd" d="M20.3867 18H114.387V74H20.3867V18Z" fill="white"/>
<path fill-rule="evenodd" clip-rule="evenodd" d="M67.3867 25C71.8049 25 75.3867 28.5819 75.3867 33C75.3867 37.4181 71.8049 41 67.3867 41C62.9675 41 59.3867 37.4181 59.3867 33C59.3867 28.5819 62.9675 25 67.3867 25Z" fill="#D2E5F2"/>
<path fill-rule="evenodd" clip-rule="evenodd" d="M56.4667 44H78.3067C79.4557 44 80.3867 44.896 80.3867 46C80.3867 47.104 79.4557 48 78.3067 48H56.4667C55.3187 48 54.3867 47.104 54.3867 46C54.3867 44.896 55.3187 44 56.4667 44Z" fill="#D2E5F2"/>
<path fill-rule="evenodd" clip-rule="evenodd" d="M56.4667 52H78.3067C79.4557 52 80.3867 52.895 80.3867 53.999C80.3867 55.104 79.4557 56 78.3067 56H56.4667C55.3187 56 54.3867 55.104 54.3867 53.999C54.3867 52.895 55.3187 52 56.4667 52Z" fill="#D2E5F2"/>
<path fill-rule="evenodd" clip-rule="evenodd" d="M67.3862 39C65.4167 39 63.6436 38.1772 62.3867 36.8646C62.8461 35.7316 63.9787 34.9288 65.3069 34.9288H65.5399C66.0831 35.2428 66.7092 35.4366 67.3862 35.4385C68.0633 35.4366 68.6883 35.2419 69.2325 34.9288H69.4656C70.7937 34.9288 71.9264 35.7316 72.3867 36.8646C71.1279 38.1772 69.3558 39 67.3862 39ZM69.9905 31.5936C69.9905 33.0226 68.8261 34.1795 67.3862 34.1871C65.9473 34.1795 64.7829 33.0226 64.7829 31.5936C64.7829 30.1656 65.9473 29.0076 67.3862 29C68.8261 29.0076 69.9905 30.1656 69.9905 31.5936Z" fill="#026298"/>
<path fill-rule="evenodd" clip-rule="evenodd" d="M57.1457 45H77.6288C78.0479 45 78.3867 45.448 78.3867 46C78.3867 46.552 78.0468 47 77.6288 47H57.1457C56.7266 47 56.3867 46.552 56.3867 46C56.3867 45.448 56.7266 45 57.1457 45Z" fill="#026298"/>
<path fill-rule="evenodd" clip-rule="evenodd" d="M57.3868 53C57.939 53 58.3867 53.4481 58.3867 53.9993C58.3867 54.5534 57.939 55 57.3868 55C56.8345 55 56.3867 54.5519 56.3867 53.9993C56.3867 53.4467 56.8345 53 57.3868 53Z" fill="#026298"/>
<path fill-rule="evenodd" clip-rule="evenodd" d="M60.3868 53C60.939 53 61.3867 53.4481 61.3867 53.9993C61.3867 54.5534 60.939 55 60.3868 55C59.8346 55 59.3867 54.5519 59.3867 53.9993C59.3853 53.4467 59.8331 53 60.3868 53Z" fill="#026298"/>
<path fill-rule="evenodd" clip-rule="evenodd" d="M63.3868 53C63.939 53 64.3867 53.4481 64.3867 53.9993C64.3867 54.5534 63.939 55 63.3868 55C62.8345 55 62.3867 54.5519 62.3867 53.9993C62.3867 53.4467 62.8345 53 63.3868 53Z" fill="#026298"/>
<path fill-rule="evenodd" clip-rule="evenodd" d="M66.3867 53C66.9389 53 67.3867 53.4481 67.3867 53.9993C67.3867 54.5534 66.9389 55 66.3867 55C65.8345 55 65.3867 54.5519 65.3867 53.9993C65.3867 53.4467 65.8345 53 66.3867 53Z" fill="#026298"/>
<path fill-rule="evenodd" clip-rule="evenodd" d="M69.3868 53C69.939 53 70.3867 53.4481 70.3867 53.9993C70.3867 54.5534 69.939 55 69.3868 55C68.8345 55 68.3867 54.5519 68.3867 53.9993C68.3867 53.4467 68.8345 53 69.3868 53Z" fill="#026298"/>
<path fill-rule="evenodd" clip-rule="evenodd" d="M72.3875 53C72.9401 53 73.3867 53.4481 73.3867 53.9993C73.3867 54.5534 72.9386 55 72.3875 55C71.8349 55 71.3867 54.5519 71.3867 53.9993C71.3867 53.4467 71.8349 53 72.3875 53Z" fill="#026298"/>
<path fill-rule="evenodd" clip-rule="evenodd" d="M64.4512 60.0007H73.0521C74.4553 60.0007 75.5932 60.9428 75.5932 62.1059C75.5932 63.268 74.4553 64.2111 73.0521 64.2111H64.4512C63.047 64.2111 61.9092 63.268 61.9092 62.1059C61.9092 60.9428 63.047 60.0007 64.4512 60.0007Z" fill="#689EC0"/>
<path fill-rule="evenodd" clip-rule="evenodd" d="M31.7335 80.3508V75.7898C31.7335 72.1067 28.7493 69.1226 25.0673 69.1226C21.3852 69.1226 18.4011 72.1067 18.4011 75.7898V80.3508H15.5938V75.7898C15.5938 70.5562 19.8347 66.3163 25.0673 66.3163C30.2998 66.3163 34.5408 70.5562 34.5408 75.7898V80.3508H31.7335Z" fill="#026298"/>
<path fill-rule="evenodd" clip-rule="evenodd" d="M13.9038 78.9478H36.2297C37.6224 78.9478 38.7508 80.0856 38.7508 81.4888V97.4601C38.7508 98.8632 37.6224 100 36.2297 100H13.9038C12.5112 100 11.3828 98.8632 11.3828 97.4601V81.4888C11.3828 80.0856 12.5112 78.9478 13.9038 78.9478Z" fill="#FAA61A"/>
<path fill-rule="evenodd" clip-rule="evenodd" d="M26.6469 89.9697V93.1591C26.6469 94.0306 25.9406 94.737 25.068 94.737C24.1954 94.737 23.4891 94.0306 23.4891 93.1591V89.9697C22.5459 89.4234 21.9102 88.4065 21.9102 87.2381C21.9102 85.4939 23.3238 84.0814 25.068 84.0814C26.8122 84.0814 28.2258 85.4939 28.2258 87.2381C28.2258 88.4055 27.589 89.4234 26.6469 89.9697Z" fill="#026298"/>
<path fill-rule="evenodd" clip-rule="evenodd" d="M102.351 95.3158C102.351 95.3158 103.42 98.0231 102.283 98.6841C101.618 99.0726 96.3515 98.8094 96.3515 98.8094C96.3515 98.8094 94.6368 97.6568 95.761 96.7179C96.0452 96.48 98.9598 96.5336 98.9598 96.5336L100.04 95.2821L102.351 95.3158Z" fill="#081A26"/>
<path fill-rule="evenodd" clip-rule="evenodd" d="M108.535 48.1324L108.719 46.2936L110.904 45.7419L111.11 48.3629L108.535 48.1324Z" fill="#F1C892"/>
<path fill-rule="evenodd" clip-rule="evenodd" d="M98.9717 52.9365C98.9717 52.9365 99.9043 58.8995 101.68 60.4816C102.677 61.3711 104.535 58.5459 104.535 58.5459C104.535 58.5459 104.083 61.1595 103.817 63.2605C103.643 64.631 103.615 65.81 103.615 65.81L113.431 65.8321C113.431 65.8321 113.383 64.1785 113.491 62.1543C113.649 59.1733 114.052 55.3733 114.052 55.3733C114.052 55.3733 116.748 57.8186 117.05 58.5912C117.279 59.1722 115.819 62.429 114.742 64.8784C114.109 66.3163 113.639 67.5805 113.639 67.5805L114.811 68.3615C114.811 68.3615 121.402 59.3501 120.12 57.3785C118.73 55.2417 115.25 49.1461 110.87 47.8355C110.275 47.6577 109.239 47.6714 108.606 47.7408C104.684 48.1735 103.327 54.2354 102.686 56.4701C102.392 57.4943 101.894 55.4786 101.746 55.0607C101.287 53.7576 100.618 52.3291 100.618 52.3291L98.9717 52.9365Z" fill="#90BFDC"/>
<path fill-rule="evenodd" clip-rule="evenodd" d="M113.432 65.8332L103.615 65.8111L99.4092 95.5801L102.605 95.6032L108.029 70.2699L110.26 95.879H113.707L113.432 65.8332Z" fill="#026096"/>
<path fill-rule="evenodd" clip-rule="evenodd" d="M110.903 95.7411C110.903 95.7411 110.818 96.1811 110.595 96.6337C110.09 97.661 108.904 99.2863 111.936 99.2642C114.387 99.2463 113.362 95.7064 113.362 95.7064L110.903 95.7411Z" fill="#081A26"/>
<path fill-rule="evenodd" clip-rule="evenodd" d="M107.018 41.3283C107.018 41.3283 106.382 44.2388 107.262 45.6293C108.114 46.9745 110.418 47.0493 111.051 46.563C112.481 45.4641 113.122 43.8567 113.122 43.8567C113.122 43.8567 113.998 40.4873 109.354 40.0652C108.267 39.9673 107.018 41.3283 107.018 41.3283Z" fill="#FEDDA8"/>
<path fill-rule="evenodd" clip-rule="evenodd" d="M107.086 41.903C107.086 41.903 107.324 41.1472 107.758 40.9251C108.281 40.6578 109.017 40.9146 109.017 40.9146C109.017 40.9146 110.698 40.2652 111.448 40.9189C112.132 41.5157 111.891 43.4198 111.891 43.4198C111.891 43.4198 112.876 43.1946 112.77 43.7146C112.683 44.1378 111.156 45.3272 111.156 45.3272L110.926 45.6956L111.396 46.2588C111.396 46.2588 113.009 46.5556 113.722 44.8746C114.562 42.8914 114.58 38.9599 114.58 38.9599C114.58 38.9599 113.412 37.6715 111.978 37.2242C110.933 36.8968 109.499 37.3737 109.499 37.3737C109.499 37.3737 105.662 37.2631 105.236 38.2873C104.397 40.3104 107.086 41.903 107.086 41.903Z" fill="#081A26"/>
<path fill-rule="evenodd" clip-rule="evenodd" d="M117.246 72.0857C113.691 72.0857 110.809 69.2047 110.809 65.649C110.809 64.2701 111.247 62.9953 111.985 61.9479L101.219 51.1829L97.4928 54.9092C97.2781 55.1239 96.9285 55.1239 96.7138 54.9092C96.498 54.6934 96.498 54.3439 96.7138 54.1281C96.9285 53.9134 96.9285 53.5639 96.7138 53.3481C96.498 53.1334 96.1486 53.1334 95.9339 53.3481L95.6739 53.6081C95.4581 53.8239 95.1086 53.8239 94.8928 53.6081C94.6781 53.3934 94.6781 53.0439 94.8928 52.8292C95.1086 52.6134 95.1086 52.2639 94.8928 52.0492C94.6781 51.8334 94.3286 51.8334 94.1128 52.0492C93.8981 52.2639 93.5486 52.2639 93.3328 52.0492C93.1181 51.8334 93.1181 51.4839 93.3328 51.2681L93.5928 51.0081C93.8086 50.7923 93.8086 50.4439 93.5928 50.2282C93.3781 50.0134 93.0286 50.0134 92.8128 50.2282C92.5981 50.4439 92.2486 50.4439 92.0339 50.2282C91.8181 50.0134 91.8181 49.6639 92.0339 49.4481L95.7591 45.7219L95.5759 45.5387C95.1444 45.1082 95.1444 44.4093 95.5759 43.9788C96.0065 43.5483 96.7043 43.5483 97.1359 43.9788L113.546 60.3891C114.531 59.6954 115.718 59.2712 117.002 59.2238C116.888 59.7006 116.646 60.3775 116.341 61.1427C114.236 61.5627 112.648 63.4216 112.648 65.65C112.648 68.1889 114.707 70.2478 117.246 70.2478C119.785 70.2478 121.844 68.1889 121.844 65.65C121.844 63.7848 120.73 62.1816 119.133 61.4616C119.429 60.8743 119.687 60.307 119.883 59.7828C122.122 60.7912 123.683 63.0364 123.683 65.65C123.684 69.2047 120.801 72.0857 117.246 72.0857Z" fill="#FAA61A"/>
<path fill-rule="evenodd" clip-rule="evenodd" d="M112.276 68.851C112.613 68.0553 113.639 67.5805 113.639 67.5805L114.812 68.3615C114.812 68.3615 114.153 69.9615 113.422 70.6499C113.118 70.9352 111.315 71.1173 112.276 68.851Z" fill="#FEDDA8"/>
<path fill-rule="evenodd" clip-rule="evenodd" d="M98.9924 50.9439C98.425 51.4228 99.044 53.3607 99.044 53.3607L100.617 52.3302C100.617 52.3302 101.141 51.8313 101.161 51.3744C101.177 51.0018 100.587 49.5976 98.9924 50.9439Z" fill="#FEDDA8"/>
</svg>
