<svg width="138" height="101" viewBox="0 0 138 101" fill="none" xmlns="http://www.w3.org/2000/svg">
<path d="M17.976 20.327C18.9251 17.9721 21.602 16.8358 23.9552 17.789L37.748 23.3759C40.1012 24.3291 41.2395 27.0108 40.2905 29.3657L26.8354 62.7536C25.8864 65.1085 23.2094 66.2448 20.8562 65.2916L7.06343 59.7047C4.71022 58.7515 3.5719 56.0698 4.52091 53.7149L17.976 20.327Z" fill="#EFFAFE" stroke="#95D4FF" stroke-width="1.70264"/>
<path opacity="0.4" d="M41.0843 29.6746L27.6206 63.0838C26.4982 65.8689 23.3363 67.2145 20.5583 66.0892L15.9999 64.2428C15.9999 64.2428 15.1996 58.9691 19.0672 51.1867C22.9349 43.4043 32.1801 42.0954 32.4978 36.4622C32.8155 30.8291 31.9454 27.0533 38.0865 22.5943C40.8645 23.7195 42.2067 26.8895 41.0843 29.6746Z" fill="#95D4FF"/>
<path d="M16.6261 55.8827C17.7516 56.3386 18.2976 57.6242 17.8415 58.7561C17.3853 59.888 16.1017 60.4326 14.9762 59.9767C13.8507 59.5208 13.3047 58.2351 13.7608 57.1032C14.217 55.9713 15.5006 55.4268 16.6261 55.8827Z" fill="white" stroke="#8FD4F5" stroke-width="1.70264"/>
<rect x="1.07192" y="0.546171" width="59.3441" height="76.463" transform="matrix(0.950824 -0.309732 0.308303 0.951288 47.6924 21.2865)" fill="#EFFAFE" stroke="#95D4FF" stroke-width="1.70264"/>
<path opacity="0.4" d="M71.9068 95.286L47.8081 20.9279L59.5059 17.1174C59.5059 17.1174 71.3732 41.962 96.2945 38.7326C107.529 37.2768 109.348 34.6534 105.958 56.4091C105.256 60.9097 110.917 64.3173 113.248 68.8167C116.215 74.5439 116.13 80.8803 116.13 80.8803L71.9068 95.286Z" fill="#95D4FF"/>
<path d="M57.6416 29.3036L89.8886 18.7991M59.1085 33.8298L80.3915 26.8968M63.2996 46.7616L74.9085 42.98M68.2241 61.9565L107.565 49.141M60.5754 38.3559L88.9528 29.112M72.5199 75.2117L117.666 60.5054L121.019 70.8508L75.8728 85.5572L72.5199 75.2117Z" stroke="#95D4FF" stroke-width="1.36212"/>
<g filter="url(#filter0_i_518_1177)">
<path d="M76.6289 47.231C76.6289 47.231 80.454 46.7954 82.0539 45.1914C83.6539 43.5873 84.0883 39.7524 84.0883 39.7524C84.0883 39.7524 80.2632 40.188 78.6633 41.792C77.0633 43.3961 76.6289 47.231 76.6289 47.231Z" fill="#01B673"/>
<path d="M76.6289 47.231C76.6289 47.231 72.8038 46.7954 71.2038 45.1914C69.6039 43.5873 69.1694 39.7524 69.1694 39.7524C69.1694 39.7524 72.9945 40.188 74.5945 41.792C76.1944 43.3961 76.6289 47.231 76.6289 47.231Z" fill="#01B673"/>
<path d="M76.6289 37.033C76.6289 37.033 79.0023 34.1314 79.0023 31.934C79.0023 29.7365 76.6289 26.835 76.6289 26.835C76.6289 26.835 74.2554 29.7365 74.2554 31.934C74.2554 34.1314 76.6289 37.033 76.6289 37.033Z" fill="#01B673"/>
</g>
<path d="M76.6289 47.231C76.6289 47.231 80.454 46.7954 82.0539 45.1914C83.6539 43.5873 84.0883 39.7524 84.0883 39.7524C84.0883 39.7524 80.2632 40.188 78.6633 41.792C77.0633 43.3961 76.6289 47.231 76.6289 47.231ZM76.6289 47.231C76.6289 47.231 72.8038 46.7954 71.2038 45.1914C69.6039 43.5873 69.1694 39.7524 69.1694 39.7524C69.1694 39.7524 72.9945 40.188 74.5945 41.792C76.1944 43.3961 76.6289 47.231 76.6289 47.231ZM76.6289 47.231V37.033M76.6289 37.033C76.6289 37.033 79.0023 34.1314 79.0023 31.934C79.0023 29.7365 76.6289 26.835 76.6289 26.835C76.6289 26.835 74.2554 29.7365 74.2554 31.934C74.2554 34.1314 76.6289 37.033 76.6289 37.033Z" stroke="#351443" stroke-width="1.36212"/>
<g filter="url(#filter1_i_518_1177)">
<path d="M115.469 45.4497C115.469 45.4497 118.481 47.8534 120.744 47.8534C123.006 47.8534 126.018 45.4497 126.018 45.4497C126.018 45.4497 123.006 43.046 120.744 43.046C118.481 43.046 115.469 45.4497 115.469 45.4497Z" fill="#01B673"/>
<path d="M115.469 45.4497C115.469 45.4497 113.071 42.4301 113.071 40.1616C113.071 37.8931 115.469 34.8735 115.469 34.8735C115.469 34.8735 117.866 37.8931 117.866 40.1616C117.866 42.4301 115.469 45.4497 115.469 45.4497Z" fill="#01B673"/>
<path d="M122.662 38.2386C122.662 38.2386 126.386 37.8695 127.936 36.3157C129.486 34.7619 129.854 31.0276 129.854 31.0276C129.854 31.0276 126.129 31.3967 124.58 32.9505C123.03 34.5043 122.662 38.2386 122.662 38.2386Z" fill="#01B673"/>
<path d="M108.186 52.7508C108.186 52.7508 111.198 55.1545 113.461 55.1545C115.724 55.1545 118.736 52.7508 118.736 52.7508C118.736 52.7508 115.724 50.3471 113.461 50.3471C111.198 50.3471 108.186 52.7508 108.186 52.7508Z" fill="#01B673"/>
<path d="M108.186 52.7508C108.186 52.7508 105.789 49.7311 105.789 47.4626C105.789 45.1942 108.186 42.1745 108.186 42.1745C108.186 42.1745 110.584 45.1942 110.584 47.4626C110.584 49.7311 108.186 52.7508 108.186 52.7508Z" fill="#01B673"/>
<path d="M100.953 60.0027C100.953 60.0027 103.965 62.4063 106.228 62.4063C108.49 62.4063 111.502 60.0027 111.502 60.0027C111.502 60.0027 108.49 57.599 106.228 57.599C103.965 57.599 100.953 60.0027 100.953 60.0027Z" fill="#01B673"/>
<path d="M100.953 60.0027C100.953 60.0027 98.5556 56.983 98.5556 54.7145C98.5556 52.4461 100.953 49.4264 100.953 49.4264C100.953 49.4264 103.351 52.4461 103.351 54.7145C103.351 56.983 100.953 60.0027 100.953 60.0027Z" fill="#01B673"/>
<path d="M94.3413 66.6314C94.3413 66.6314 97.3533 69.035 99.616 69.035C101.879 69.035 104.891 66.6314 104.891 66.6314C104.891 66.6314 101.879 64.2277 99.616 64.2277C97.3533 64.2277 94.3414 66.6313 94.3413 66.6314Z" fill="#01B673"/>
<path d="M94.3413 66.6314C94.3379 66.6271 91.9438 63.6101 91.9438 61.3432C91.9438 59.0748 94.3413 56.0551 94.3413 56.0551C94.3413 56.0551 96.7389 59.0748 96.7389 61.3432C96.7389 63.6109 94.343 66.6293 94.3413 66.6314Z" fill="#01B673"/>
</g>
<path d="M115.469 45.4497C115.469 45.4497 118.481 47.8534 120.744 47.8534C123.006 47.8534 126.018 45.4497 126.018 45.4497C126.018 45.4497 123.006 43.046 120.744 43.046C118.481 43.046 115.469 45.4497 115.469 45.4497ZM115.469 45.4497C115.469 45.4497 113.071 42.4301 113.071 40.1616C113.071 37.8931 115.469 34.8735 115.469 34.8735C115.469 34.8735 117.866 37.8931 117.866 40.1616C117.866 42.4301 115.469 45.4497 115.469 45.4497ZM115.469 45.4497L122.662 38.2386M115.469 45.4497L100.953 60.0026M122.662 38.2386C122.662 38.2386 126.386 37.8695 127.936 36.3157C129.486 34.7619 129.854 31.0276 129.854 31.0276C129.854 31.0276 126.129 31.3967 124.58 32.9505C123.03 34.5044 122.662 38.2386 122.662 38.2386ZM108.186 52.7508C108.186 52.7508 111.198 55.1545 113.461 55.1545C115.724 55.1545 118.736 52.7508 118.736 52.7508C118.736 52.7508 115.724 50.3471 113.461 50.3471C111.198 50.3471 108.186 52.7508 108.186 52.7508ZM108.186 52.7508C108.186 52.7508 105.789 49.7311 105.789 47.4626C105.789 45.1942 108.186 42.1745 108.186 42.1745C108.186 42.1745 110.584 45.1942 110.584 47.4626C110.584 49.7311 108.186 52.7508 108.186 52.7508ZM100.953 60.0026C100.953 60.0026 103.965 62.4063 106.228 62.4063C108.49 62.4063 111.502 60.0026 111.502 60.0026C111.502 60.0026 108.49 57.599 106.228 57.599C103.965 57.599 100.953 60.0026 100.953 60.0026ZM100.953 60.0026C100.953 60.0026 98.5556 56.983 98.5556 54.7145C98.5556 52.4461 100.953 49.4264 100.953 49.4264C100.953 49.4264 103.351 52.4461 103.351 54.7145C103.351 56.983 100.953 60.0026 100.953 60.0026ZM100.953 60.0026L94.3414 66.6314M94.3414 66.6314C94.343 66.6293 96.7389 63.6109 96.7389 61.3432C96.7389 59.0748 94.3413 56.0551 94.3413 56.0551C94.3413 56.0551 91.9438 59.0748 91.9438 61.3432C91.9438 63.6101 94.3379 66.6271 94.3414 66.6314ZM94.3414 66.6314C94.3414 66.6313 97.3533 64.2277 99.616 64.2277C101.879 64.2277 104.891 66.6314 104.891 66.6314C104.891 66.6314 101.879 69.035 99.616 69.035C97.3533 69.035 94.3414 66.6314 94.3414 66.6314Z" stroke="#351443" stroke-width="1.36212"/>
<g filter="url(#filter2_i_518_1177)">
<path d="M25.7635 44.5056C25.7635 44.5056 28.161 41.486 28.161 39.2175C28.161 36.949 25.7635 33.9294 25.7635 33.9294C25.7635 33.9294 23.3659 36.949 23.3659 39.2175C23.3659 41.486 25.7635 44.5056 25.7635 44.5056Z" fill="#01B673"/>
<path d="M25.7635 44.5056C25.7635 44.5056 22.7515 46.9093 20.4888 46.9093C18.2262 46.9093 15.2142 44.5056 15.2142 44.5056C15.2142 44.5056 18.2262 42.1019 20.4888 42.1019C22.7515 42.1019 25.7635 44.5056 25.7635 44.5056Z" fill="#01B673"/>
<path d="M18.5708 37.2945C18.5708 37.2945 18.2026 33.5602 16.6528 32.0064C15.1029 30.4526 11.3781 30.0835 11.3781 30.0835C11.3781 30.0835 11.7463 33.8178 13.2962 35.3716C14.846 36.9254 18.5708 37.2945 18.5708 37.2945Z" fill="#01B673"/>
<path d="M32.3567 51.1158C32.3567 51.1158 34.7543 48.0961 34.7543 45.8276C34.7543 43.5592 32.3567 40.5395 32.3567 40.5395C32.3567 40.5395 29.9592 43.5592 29.9592 45.8276C29.9592 48.0961 32.3567 51.1158 32.3567 51.1158Z" fill="#01B673"/>
<path d="M32.3567 51.1158C32.3567 51.1158 29.3448 53.5195 27.0821 53.5195C24.8194 53.5195 21.8075 51.1158 21.8075 51.1158C21.8075 51.1158 24.8194 48.7121 27.0821 48.7121C29.3448 48.7121 32.3567 51.1158 32.3567 51.1158Z" fill="#01B673"/>
<path d="M38.5904 57.3654C38.5904 57.3654 40.9879 54.3457 40.9879 52.0772C40.9879 49.8088 38.5904 46.7891 38.5904 46.7891C38.5904 46.7891 36.1928 49.8088 36.1928 52.0772C36.1928 54.3457 38.5904 57.3654 38.5904 57.3654Z" fill="#01B673"/>
<path d="M38.5904 57.3654C38.5904 57.3654 35.5784 59.7691 33.3158 59.7691C31.0531 59.7691 28.0411 57.3654 28.0411 57.3654C28.0411 57.3654 31.0531 54.9617 33.3158 54.9617C35.5784 54.9617 38.5904 57.3654 38.5904 57.3654Z" fill="#01B673"/>
</g>
<path d="M25.7635 44.5056C25.7635 44.5056 28.161 41.486 28.161 39.2175C28.161 36.949 25.7635 33.9294 25.7635 33.9294C25.7635 33.9294 23.3659 36.949 23.3659 39.2175C23.3659 41.486 25.7635 44.5056 25.7635 44.5056ZM25.7635 44.5056C25.7635 44.5056 22.7515 46.9093 20.4888 46.9093C18.2262 46.9093 15.2142 44.5056 15.2142 44.5056C15.2142 44.5056 18.2262 42.1019 20.4888 42.1019C22.7515 42.1019 25.7635 44.5056 25.7635 44.5056ZM25.7635 44.5056L18.5708 37.2945M25.7635 44.5056L38.5904 57.3654M18.5708 37.2945C18.5708 37.2945 18.2026 33.5602 16.6528 32.0064C15.1029 30.4526 11.3781 30.0835 11.3781 30.0835C11.3781 30.0835 11.7463 33.8178 13.2962 35.3716C14.846 36.9254 18.5708 37.2945 18.5708 37.2945ZM32.3567 51.1158C32.3567 51.1158 34.7543 48.0961 34.7543 45.8276C34.7543 43.5592 32.3567 40.5395 32.3567 40.5395C32.3567 40.5395 29.9592 43.5592 29.9592 45.8276C29.9592 48.0961 32.3567 51.1158 32.3567 51.1158ZM32.3567 51.1158C32.3567 51.1158 29.3448 53.5195 27.0821 53.5195C24.8194 53.5195 21.8075 51.1158 21.8075 51.1158C21.8075 51.1158 24.8194 48.7121 27.0821 48.7121C29.3448 48.7121 32.3567 51.1158 32.3567 51.1158ZM38.5904 57.3654C38.5904 57.3654 40.9879 54.3457 40.9879 52.0772C40.9879 49.8088 38.5904 46.7891 38.5904 46.7891C38.5904 46.7891 36.1928 49.8088 36.1928 52.0772C36.1928 54.3457 38.5904 57.3654 38.5904 57.3654ZM38.5904 57.3654C38.5904 57.3654 35.5784 59.7691 33.3158 59.7691C31.0531 59.7691 28.0411 57.3654 28.0411 57.3654C28.0411 57.3654 31.0531 54.9617 33.3158 54.9617C35.5784 54.9617 38.5904 57.3654 38.5904 57.3654Z" stroke="#351443" stroke-width="1.36212"/>
<g filter="url(#filter3_i_518_1177)">
<path d="M88.0237 81.7705C88.0237 81.7705 87.4243 88.3806 92.2194 93.188C97.0145 97.9954 103.608 97.3945 103.608 97.3945C103.608 97.3945 104.447 91.0247 99.412 85.9769C94.3772 80.9292 88.0237 81.7705 88.0237 81.7705Z" fill="#01B673"/>
</g>
<path d="M88.0237 81.7705C88.0237 81.7705 87.4243 88.3806 92.2194 93.188C97.0145 97.9954 103.608 97.3945 103.608 97.3945C103.608 97.3945 104.447 91.0247 99.412 85.9769C94.3772 80.9292 88.0237 81.7705 88.0237 81.7705Z" stroke="#351443" stroke-width="1.70264"/>
<path d="M100.364 83.9438V46.8911L79.2304 62.7565L100.364 83.9438Z" fill="#F9F9F9"/>
<path d="M28.8208 83.9438H61.2016H100.364L79.2304 62.7565L64.5922 73.7458L49.954 62.7565L28.8208 83.9438Z" fill="#F9F9F9"/>
<path d="M28.8208 46.8911L49.954 62.7565L64.5922 73.7458L79.2304 62.7565L100.364 46.8911H28.8208Z" fill="#F9F9F9"/>
<path d="M49.954 62.7565L28.8208 46.8911V83.9438L49.954 62.7565Z" fill="#F9F9F9"/>
<path d="M28.8208 46.8911L49.954 62.7565M28.8208 46.8911V83.9438M28.8208 46.8911H100.364M28.8208 83.9438H61.2016H100.364M28.8208 83.9438L49.954 62.7565M100.364 46.8911V83.9438M100.364 46.8911L79.2304 62.7565M100.364 83.9438L79.2304 62.7565M49.954 62.7565L64.5922 73.7458L79.2304 62.7565" stroke="#351443" stroke-width="1.36212"/>
<g style="mix-blend-mode:darken">
<path d="M71.8821 46.8911H28.8208V59.1287C37.9756 53.5198 49.8429 64.2277 71.8821 46.8911Z" fill="#E0E1E5"/>
<path d="M28.8208 83.9438H61.2016H100.364V51.3102C82.7322 51.3102 70.8649 70.0065 50.1819 73.5758C43.1355 74.7918 36.4498 68.3069 28.8208 68.3069V83.9438Z" fill="#E0E1E5"/>
</g>
<path d="M49.5007 10.5181C49.5007 11.8333 48.4378 12.8965 47.1302 12.8965C45.8226 12.8965 44.7597 11.8333 44.7597 10.5181C44.7597 9.20298 45.8226 8.1398 47.1302 8.1398C48.4378 8.1398 49.5007 9.20298 49.5007 10.5181Z" fill="#F0FBFF" stroke="#94D5FF" stroke-width="1.36212"/>
<ellipse cx="2.20393" cy="30.7442" rx="2.20393" ry="2.20957" fill="#C7ECFF"/>
<ellipse cx="45.9437" cy="94.6517" rx="2.20393" ry="2.20957" fill="#C7ECFF"/>
<ellipse cx="135.966" cy="77.825" rx="2.03439" ry="2.0396" fill="#C7ECFF"/>
<path d="M135.626 54.7095L131.896 58.4487M131.896 54.7095L135.626 58.4487" stroke="#93D4FE" stroke-width="1.02159" stroke-linecap="square"/>
<path d="M86.1228 1L82.3931 4.73927M82.3931 1L86.1228 4.73927" stroke="#93D4FE" stroke-width="1.02159" stroke-linecap="square"/>
<path d="M17.2927 73.0659H14.5802M14.5802 73.0659H11.8677M14.5802 73.0659V70.3464M14.5802 73.0659V75.7854" stroke="#93D4FE" stroke-width="1.02159" stroke-linecap="square"/>
<rect x="120.371" y="15.9583" width="5.08013" height="5.09662" fill="#F0FBFF" stroke="#94D5FF" stroke-width="1.36212"/>
<rect x="117.659" y="86.6645" width="5.08013" height="5.09662" fill="#F0FBFF" stroke="#94D5FF" stroke-width="1.36212"/>
<g filter="url(#filter4_i_518_1177)">
<path d="M39.3317 84.6237C39.3317 84.6237 35.0934 79.5246 28.3121 79.5246C21.5308 79.5246 17.2925 84.6237 17.2925 84.6237C17.2925 84.6237 21.1917 89.7227 28.3121 89.7227C35.4325 89.7227 39.3317 84.6237 39.3317 84.6237Z" fill="#01B673"/>
</g>
<path d="M39.3317 84.6237C39.3317 84.6237 35.0934 79.5246 28.3121 79.5246C21.5308 79.5246 17.2925 84.6237 17.2925 84.6237C17.2925 84.6237 21.1917 89.7227 28.3121 89.7227C35.4325 89.7227 39.3317 84.6237 39.3317 84.6237Z" stroke="#351443" stroke-width="1.70264"/>
<g filter="url(#filter5_i_518_1177)">
<path fill-rule="evenodd" clip-rule="evenodd" d="M103.754 78.1649C100.849 78.1649 98.4186 80.1991 97.8018 82.924C97.7029 83.3613 97.6506 83.8164 97.6506 84.2837C97.6506 84.8735 97.7338 85.4438 97.8892 85.9834C98.6238 88.5358 100.971 90.4025 103.754 90.4025C107.124 90.4025 109.857 87.663 109.857 84.2837C109.857 80.9044 107.124 78.1649 103.754 78.1649ZM103.754 81.2243C102.068 81.2243 100.702 82.5941 100.702 84.2837C100.702 85.9734 102.068 87.3431 103.754 87.3431C105.439 87.3431 106.805 85.9734 106.805 84.2837C106.805 82.5941 105.439 81.2243 103.754 81.2243Z" fill="#FECA04"/>
<path fill-rule="evenodd" clip-rule="evenodd" d="M97.6506 84.2837C97.6506 84.8735 97.7338 85.4438 97.8892 85.9834H79.6801V82.924H97.8018C97.7029 83.3613 97.6506 83.8164 97.6506 84.2837ZM75.6114 82.924H62.8964C62.0537 82.924 61.3706 83.6089 61.3706 84.4537C61.3706 85.2985 62.0537 85.9834 62.8964 85.9834H64.0831V90.7425H66.7957V89.0428H69.5082V90.7425H72.5598V85.9834H75.6114V82.924Z" fill="#FECA04"/>
<path d="M78.3239 81.5643H76.9676C76.2186 81.5643 75.6114 82.173 75.6114 82.924V85.9834C75.6114 86.7343 76.2186 87.3431 76.9676 87.3431H78.3239C79.0729 87.3431 79.6801 86.7343 79.6801 85.9834V82.924C79.6801 82.173 79.0729 81.5643 78.3239 81.5643Z" fill="#FECA04"/>
</g>
<path d="M79.6801 85.9834H97.8892M79.6801 85.9834C79.6801 86.7343 79.0729 87.3431 78.3239 87.3431H76.9676C76.2186 87.3431 75.6114 86.7343 75.6114 85.9834M79.6801 85.9834V82.924M97.8892 85.9834C98.6238 88.5358 100.971 90.4025 103.754 90.4025C107.124 90.4025 109.857 87.663 109.857 84.2837C109.857 80.9044 107.124 78.1649 103.754 78.1649C100.849 78.1649 98.4186 80.1991 97.8018 82.924M97.8892 85.9834C97.7338 85.4438 97.6506 84.8735 97.6506 84.2837C97.6506 83.8164 97.7029 83.3613 97.8018 82.924M79.6801 82.924H97.8018M79.6801 82.924C79.6801 82.173 79.0729 81.5643 78.3239 81.5643H76.9676C76.2186 81.5643 75.6114 82.173 75.6114 82.924M75.6114 82.924H62.8964C62.0537 82.924 61.3706 83.6089 61.3706 84.4537C61.3706 85.2985 62.0537 85.9834 62.8964 85.9834H64.0831V90.7425H66.7957V89.0428H69.5082V90.7425H72.5598V85.9834H75.6114M75.6114 82.924V85.9834M100.702 84.2837C100.702 82.5941 102.068 81.2243 103.754 81.2243C105.439 81.2243 106.805 82.5941 106.805 84.2837C106.805 85.9734 105.439 87.3431 103.754 87.3431C102.068 87.3431 100.702 85.9734 100.702 84.2837Z" stroke="#351443" stroke-width="1.36212"/>
<g filter="url(#filter6_i_518_1177)">
<path d="M37.4606 42.4056C37.0637 41.7688 37.2569 40.9299 37.8921 40.5319L39.9049 39.271L52.2693 31.5251C52.9045 31.1271 53.7412 31.3208 54.1382 31.9576L59.5285 40.606C59.9254 41.2429 59.7323 42.0818 59.097 42.4797L44.7198 51.4866C44.0846 51.8845 43.2479 51.6909 42.851 51.054L37.4606 42.4056Z" fill="#FEC901"/>
<path d="M39.9049 39.271L42.2053 37.8299L40.7678 35.5236C39.7755 33.9315 40.2584 31.8343 41.8465 30.8395C43.4346 29.8446 45.5264 30.3288 46.5187 31.9209L47.9561 34.2271L50.2565 32.786L48.8191 30.4798C47.0329 27.614 43.2676 26.7425 40.4091 28.5332C37.5506 30.324 36.6813 34.0989 38.4675 36.9647L39.9049 39.271Z" fill="#FEC901"/>
</g>
<path d="M39.9049 39.271L37.8921 40.5319C37.2569 40.9299 37.0637 41.7688 37.4606 42.4056L42.851 51.054C43.2479 51.6909 44.0846 51.8845 44.7198 51.4866L59.097 42.4797C59.7323 42.0818 59.9254 41.2429 59.5285 40.606L54.1382 31.9576C53.7412 31.3208 52.9045 31.1271 52.2693 31.5251L39.9049 39.271ZM39.9049 39.271L38.4675 36.9647C36.6813 34.0989 37.5506 30.324 40.4091 28.5332C43.2676 26.7425 47.0329 27.614 48.8191 30.4798L50.2565 32.786L47.9561 34.2271L46.5187 31.9209C45.5264 30.3288 43.4346 29.8446 41.8465 30.8395C40.2584 31.8343 39.7755 33.9315 40.7678 35.5236L42.2053 37.8299L39.9049 39.271Z" stroke="#371443" stroke-width="1.36212"/>
<defs>
<filter id="filter0_i_518_1177" x="68.3965" y="25.7593" width="16.4648" height="22.1572" filterUnits="userSpaceOnUse" color-interpolation-filters="sRGB">
<feFlood flood-opacity="0" result="BackgroundImageFix"/>
<feBlend mode="normal" in="SourceGraphic" in2="BackgroundImageFix" result="shape"/>
<feColorMatrix in="SourceAlpha" type="matrix" values="0 0 0 0 0 0 0 0 0 0 0 0 0 0 0 0 0 0 127 0" result="hardAlpha"/>
<feOffset dx="0.681058" dy="2.72423"/>
<feComposite in2="hardAlpha" operator="arithmetic" k2="-1" k3="1"/>
<feColorMatrix type="matrix" values="0 0 0 0 0.309804 0 0 0 0 0.843137 0 0 0 0 0.407843 0 0 0 1 0"/>
<feBlend mode="normal" in2="shape" result="effect1_innerShadow_518_1177"/>
</filter>
<filter id="filter1_i_518_1177" x="91.2637" y="30.2672" width="39.3491" height="39.4498" filterUnits="userSpaceOnUse" color-interpolation-filters="sRGB">
<feFlood flood-opacity="0" result="BackgroundImageFix"/>
<feBlend mode="normal" in="SourceGraphic" in2="BackgroundImageFix" result="shape"/>
<feColorMatrix in="SourceAlpha" type="matrix" values="0 0 0 0 0 0 0 0 0 0 0 0 0 0 0 0 0 0 127 0" result="hardAlpha"/>
<feOffset dx="0.681058" dy="2.72423"/>
<feComposite in2="hardAlpha" operator="arithmetic" k2="-1" k3="1"/>
<feColorMatrix type="matrix" values="0 0 0 0 0.309804 0 0 0 0 0.843137 0 0 0 0 0.407843 0 0 0 1 0"/>
<feBlend mode="normal" in2="shape" result="effect1_innerShadow_518_1177"/>
</filter>
<filter id="filter2_i_518_1177" x="10.6196" y="29.3231" width="31.0483" height="31.1279" filterUnits="userSpaceOnUse" color-interpolation-filters="sRGB">
<feFlood flood-opacity="0" result="BackgroundImageFix"/>
<feBlend mode="normal" in="SourceGraphic" in2="BackgroundImageFix" result="shape"/>
<feColorMatrix in="SourceAlpha" type="matrix" values="0 0 0 0 0 0 0 0 0 0 0 0 0 0 0 0 0 0 127 0" result="hardAlpha"/>
<feOffset dx="0.681058" dy="2.72423"/>
<feComposite in2="hardAlpha" operator="arithmetic" k2="-1" k3="1"/>
<feColorMatrix type="matrix" values="0 0 0 0 0.309804 0 0 0 0 0.843137 0 0 0 0 0.407843 0 0 0 1 0"/>
<feBlend mode="normal" in2="shape" result="effect1_innerShadow_518_1177"/>
</filter>
<filter id="filter3_i_518_1177" x="87.1494" y="80.8655" width="17.3608" height="17.4055" filterUnits="userSpaceOnUse" color-interpolation-filters="sRGB">
<feFlood flood-opacity="0" result="BackgroundImageFix"/>
<feBlend mode="normal" in="SourceGraphic" in2="BackgroundImageFix" result="shape"/>
<feColorMatrix in="SourceAlpha" type="matrix" values="0 0 0 0 0 0 0 0 0 0 0 0 0 0 0 0 0 0 127 0" result="hardAlpha"/>
<feOffset dx="-1.36212" dy="-4.42688"/>
<feComposite in2="hardAlpha" operator="arithmetic" k2="-1" k3="1"/>
<feColorMatrix type="matrix" values="0 0 0 0 0.309804 0 0 0 0 0.843137 0 0 0 0 0.407843 0 0 0 1 0"/>
<feBlend mode="normal" in2="shape" result="effect1_innerShadow_518_1177"/>
</filter>
<filter id="filter4_i_518_1177" x="16.2036" y="78.6733" width="24.2168" height="11.9006" filterUnits="userSpaceOnUse" color-interpolation-filters="sRGB">
<feFlood flood-opacity="0" result="BackgroundImageFix"/>
<feBlend mode="normal" in="SourceGraphic" in2="BackgroundImageFix" result="shape"/>
<feColorMatrix in="SourceAlpha" type="matrix" values="0 0 0 0 0 0 0 0 0 0 0 0 0 0 0 0 0 0 127 0" result="hardAlpha"/>
<feOffset dx="3.40529" dy="2.3837"/>
<feComposite in2="hardAlpha" operator="arithmetic" k2="-1" k3="1"/>
<feColorMatrix type="matrix" values="0 0 0 0 0.309804 0 0 0 0 0.843137 0 0 0 0 0.407843 0 0 0 1 0"/>
<feBlend mode="normal" in2="shape" result="effect1_innerShadow_518_1177"/>
</filter>
<filter id="filter5_i_518_1177" x="60.6895" y="77.4839" width="49.8486" height="13.9396" filterUnits="userSpaceOnUse" color-interpolation-filters="sRGB">
<feFlood flood-opacity="0" result="BackgroundImageFix"/>
<feBlend mode="normal" in="SourceGraphic" in2="BackgroundImageFix" result="shape"/>
<feColorMatrix in="SourceAlpha" type="matrix" values="0 0 0 0 0 0 0 0 0 0 0 0 0 0 0 0 0 0 127 0" result="hardAlpha"/>
<feOffset dx="-3.06476" dy="-2.72423"/>
<feComposite in2="hardAlpha" operator="arithmetic" k2="-1" k3="1"/>
<feColorMatrix type="matrix" values="0 0 0 0 0.952941 0 0 0 0 0.521569 0 0 0 0 0.0705882 0 0 0 1 0"/>
<feBlend mode="normal" in2="shape" result="effect1_innerShadow_518_1177"/>
</filter>
<filter id="filter6_i_518_1177" x="36.5737" y="26.9208" width="23.8413" height="25.4545" filterUnits="userSpaceOnUse" color-interpolation-filters="sRGB">
<feFlood flood-opacity="0" result="BackgroundImageFix"/>
<feBlend mode="normal" in="SourceGraphic" in2="BackgroundImageFix" result="shape"/>
<feColorMatrix in="SourceAlpha" type="matrix" values="0 0 0 0 0 0 0 0 0 0 0 0 0 0 0 0 0 0 127 0" result="hardAlpha"/>
<feOffset dx="2.3837" dy="-3.40529"/>
<feComposite in2="hardAlpha" operator="arithmetic" k2="-1" k3="1"/>
<feColorMatrix type="matrix" values="0 0 0 0 0.94902 0 0 0 0 0.517647 0 0 0 0 0.0745098 0 0 0 1 0"/>
<feBlend mode="normal" in2="shape" result="effect1_innerShadow_518_1177"/>
</filter>
</defs>
</svg>
