<svg width="16" height="14" viewBox="0 0 16 14" fill="none" xmlns="http://www.w3.org/2000/svg">
<path fill-rule="evenodd" clip-rule="evenodd" d="M9.56692 9.00972C10.0263 8.51602 10.3932 7.93837 10.6407 7.30302L11.5 9.15385H9.5L9.56692 9.00972Z" fill="#C949FE"/>
<path fill-rule="evenodd" clip-rule="evenodd" d="M10.9728 5.92308C10.9908 5.74597 11 5.56635 11 5.38462C11 5.01581 10.9621 4.65566 10.89 4.30769H13C14.1046 4.30769 15 5.20312 15 6.30769V11.8462L16 14H7.5C6.39543 14 5.5 13.1046 5.5 12V10.7692C6.41205 10.7692 7.27224 10.5519 8.0295 10.1672L7 12.3846H8L9 10.2308H12L13 12.3846H14L11 5.92308H10.9728ZM10.6407 7.30302C10.3932 7.93837 10.0263 8.51602 9.56692 9.00972L9.5 9.15385H11.5L10.6407 7.30302Z" fill="#525CE1"/>
<path d="M7 12.3846H8L9 10.2308H12L13 12.3846H14L11 5.92308H10.9728C10.924 6.40454 10.8104 6.86734 10.6407 7.30302L11.5 9.15385H9.5L9.56692 9.00972C9.13033 9.47891 8.61018 9.87226 8.0295 10.1672L7 12.3846Z" fill="white"/>
<path fill-rule="evenodd" clip-rule="evenodd" d="M0 5.38462C0 2.41077 2.46243 0 5.5 0C8.16085 0 10.3804 1.8499 10.89 4.30769C10.9621 4.65566 11 5.01581 11 5.38462C11 5.56635 10.9908 5.74597 10.9728 5.92308C10.924 6.40454 10.8104 6.86734 10.6407 7.30302C10.3932 7.93837 10.0263 8.51602 9.56692 9.00972C9.13033 9.47891 8.61018 9.87226 8.0295 10.1672C7.27224 10.5519 6.41205 10.7692 5.5 10.7692C4.63944 10.7692 3.82505 10.5757 3.09973 10.2308L0 10.7692L0.862219 8.28036C0.316379 7.44418 0 6.45057 0 5.38462ZM8 5.38462C8 3.8977 6.88071 2.69231 5.5 2.69231C4.11929 2.69231 3 3.8977 3 5.38462C3 6.87153 4.11929 8.07692 5.5 8.07692C6.06284 8.07692 6.58215 7.87649 7 7.53846L7.5 8.07692L8 7.53846L7.50003 7.00003C7.81395 6.55007 8 5.99077 8 5.38462ZM7 5.38462C7 6.27677 6.32843 7 5.5 7C4.67157 7 4 6.27677 4 5.38462C4 4.49246 4.67157 3.76923 5.5 3.76923C6.32843 3.76923 7 4.49246 7 5.38462Z" fill="#C949FE"/>
<path fill-rule="evenodd" clip-rule="evenodd" d="M5.5 2.69231C6.88071 2.69231 8 3.8977 8 5.38462C8 5.99077 7.81395 6.55007 7.50003 7.00003L8 7.53846L7.5 8.07692L7 7.53846C6.58215 7.87649 6.06284 8.07692 5.5 8.07692C4.11929 8.07692 3 6.87153 3 5.38462C3 3.8977 4.11929 2.69231 5.5 2.69231ZM5.5 7C6.32843 7 7 6.27677 7 5.38462C7 4.49246 6.32843 3.76923 5.5 3.76923C4.67157 3.76923 4 4.49246 4 5.38462C4 6.27677 4.67157 7 5.5 7Z" fill="white"/>
</svg>
