<svg width="10" height="12" viewBox="0 0 10 12" fill="none" xmlns="http://www.w3.org/2000/svg">
<path fill-rule="evenodd" clip-rule="evenodd" d="M0.619639 0.646447C0.792178 0.451184 1.07192 0.451184 1.24446 0.646447L5.97502 6L1.24446 11.3536C1.07192 11.5488 0.792178 11.5488 0.619639 11.3536C0.4471 11.1583 0.4471 10.8417 0.619639 10.6464L4.72538 6L0.619639 1.35355C0.4471 1.15829 0.4471 0.841709 0.619639 0.646447ZM4.15416 0.646447C4.32669 0.451184 4.60644 0.451184 4.77898 0.646447L9.50953 6L4.77898 11.3536C4.60644 11.5488 4.32669 11.5488 4.15416 11.3536C3.98162 11.1583 3.98162 10.8417 4.15416 10.6464L8.25989 6L4.15416 1.35355C3.98162 1.15829 3.98162 0.841709 4.15416 0.646447Z" fill="#3D4465"/>
</svg>
