<svg width="137" height="56" viewBox="0 0 137 56" fill="none" xmlns="http://www.w3.org/2000/svg">
<g clip-path="url(#clip0_515_277)">
<rect x="0.5" width="136" height="56" rx="6" fill="url(#paint0_linear_515_277)"/>
<path opacity="0.05" d="M16.5242 0H136.5C136.5 0 135.157 42.7887 84.4689 26.1632C33.781 9.53779 15.7431 37.5649 16.5242 0Z" fill="white"/>
<path opacity="0.1" d="M0.532227 0H160.5C160.5 0 133.084 37.6255 65.5 21C-2.08382 4.37454 6 69 0.532227 0Z" fill="white"/>
<path opacity="0.1" d="M0.516439 56H82.4999C82.4999 56 47.5001 46 30 33.5C12.4999 21 -0.0172766 18.4351 0.516439 56Z" fill="white"/>
<path d="M28.5 38C29.0523 38 29.5 37.5523 29.5 37C29.5 36.4477 29.0523 36 28.5 36V38ZM24.5 20C23.9477 20 23.5 20.4477 23.5 21C23.5 21.5523 23.9477 22 24.5 22V20ZM31.5 22C32.0523 22 32.5 21.5523 32.5 21C32.5 20.4477 32.0523 20 31.5 20V22ZM24.5 24C23.9477 24 23.5 24.4477 23.5 25C23.5 25.5523 23.9477 26 24.5 26V24ZM31.5 26C32.0523 26 32.5 25.5523 32.5 25C32.5 24.4477 32.0523 24 31.5 24V26ZM24.5 28C23.9477 28 23.5 28.4477 23.5 29C23.5 29.5523 23.9477 30 24.5 30V28ZM26.5 30C27.0523 30 27.5 29.5523 27.5 29C27.5 28.4477 27.0523 28 26.5 28V30ZM32.5 39H31.5C31.5 39.4045 31.7436 39.7691 32.1173 39.9239C32.491 40.0787 32.9211 39.9931 33.2071 39.7071L32.5 39ZM32.5 34.8293L32.8332 33.8865L32.5 34.8293ZM33.5 38L34.2071 37.2929L33.5 36.5858L32.7929 37.2929L33.5 38ZM34.5 39L33.7929 39.7071C34.0789 39.9931 34.509 40.0787 34.8827 39.9239C35.2564 39.7691 35.5 39.4045 35.5 39H34.5ZM34.5 34.8293L34.1668 33.8865L34.5 34.8293ZM28.5 36H24.5V38H28.5V36ZM21.5 33V21H19.5V33H21.5ZM24.5 18H31.5V16H24.5V18ZM34.5 21V29.7639H36.5V21H34.5ZM24.5 22H31.5V20H24.5V22ZM24.5 26H31.5V24H24.5V26ZM24.5 30H26.5V28H24.5V30ZM31.5 18C33.1569 18 34.5 19.3431 34.5 21H36.5C36.5 18.2386 34.2614 16 31.5 16V18ZM21.5 21C21.5 19.3431 22.8431 18 24.5 18V16C21.7386 16 19.5 18.2386 19.5 21H21.5ZM24.5 36C22.8431 36 21.5 34.6569 21.5 33H19.5C19.5 35.7614 21.7386 38 24.5 38V36ZM31.5 32C31.5 30.8954 32.3954 30 33.5 30V28C31.2909 28 29.5 29.7909 29.5 32H31.5ZM33.5 30C34.6046 30 35.5 30.8954 35.5 32H37.5C37.5 29.7909 35.7091 28 33.5 28V30ZM33.5 34C33.2645 34 33.0405 33.9597 32.8332 33.8865L32.1668 35.7721C32.5851 35.92 33.0343 36 33.5 36V34ZM32.8332 33.8865C32.0551 33.6114 31.5 32.8693 31.5 32H29.5C29.5 33.7432 30.6145 35.2235 32.1668 35.7721L32.8332 33.8865ZM33.5 39V34.8293H31.5V39H33.5ZM33.2071 39.7071L34.2071 38.7071L32.7929 37.2929L31.7929 38.2929L33.2071 39.7071ZM32.7929 38.7071L33.7929 39.7071L35.2071 38.2929L34.2071 37.2929L32.7929 38.7071ZM35.5 32C35.5 32.8693 34.9449 33.6114 34.1668 33.8865L34.8332 35.7721C36.3855 35.2235 37.5 33.7432 37.5 32H35.5ZM34.1668 33.8865C33.9595 33.9597 33.7355 34 33.5 34V36C33.9657 36 34.4149 35.92 34.8332 35.7721L34.1668 33.8865ZM35.5 39V34.8293H33.5V39H35.5Z" fill="white"/>
<path d="M53.1948 13.292C54.2788 13.292 55.2139 13.4922 56 13.8926C56.791 14.2881 57.3989 14.8765 57.8237 15.6577C58.2534 16.4341 58.4683 17.396 58.4683 18.5435C58.4683 19.7495 58.2485 20.7578 57.8091 21.5684C57.3696 22.374 56.7324 22.9819 55.8975 23.3921C55.0625 23.7974 54.0493 24 52.8579 24H50.0601V19.2466H48.9248V18.1553H50.0601V13.292H53.1948ZM53.0044 14.354H51.2979V18.1553H54.0225V19.2466H51.2979V22.9307H52.7261C54.2056 22.9307 55.314 22.5669 56.0513 21.8394C56.7886 21.1118 57.1572 20.0278 57.1572 18.5874C57.1572 17.6255 56.9961 16.832 56.6738 16.207C56.3516 15.582 55.8804 15.1182 55.2603 14.8154C54.645 14.5078 53.8931 14.354 53.0044 14.354ZM61.8813 15.9727V24H60.6655V15.9727H61.8813ZM61.2881 12.9697C61.4883 12.9697 61.6592 13.0356 61.8008 13.1675C61.9473 13.2944 62.0205 13.4946 62.0205 13.7681C62.0205 14.0366 61.9473 14.2368 61.8008 14.3687C61.6592 14.5005 61.4883 14.5664 61.2881 14.5664C61.0781 14.5664 60.9023 14.5005 60.7607 14.3687C60.624 14.2368 60.5557 14.0366 60.5557 13.7681C60.5557 13.4946 60.624 13.2944 60.7607 13.1675C60.9023 13.0356 61.0781 12.9697 61.2881 12.9697ZM67.5503 15.8262C68.2339 15.8262 68.8198 15.9775 69.3081 16.2803C69.7964 16.583 70.1699 17.0078 70.4287 17.5547C70.6875 18.0967 70.8169 18.7314 70.8169 19.459V20.2134H65.2725C65.2871 21.1558 65.5215 21.8735 65.9756 22.3667C66.4297 22.8599 67.0693 23.1064 67.8945 23.1064C68.4023 23.1064 68.8516 23.0601 69.2422 22.9673C69.6328 22.8745 70.0381 22.7378 70.458 22.5571V23.6265C70.0527 23.8071 69.6499 23.939 69.2495 24.022C68.854 24.105 68.3853 24.1465 67.8433 24.1465C67.0718 24.1465 66.3979 23.9902 65.8218 23.6777C65.2505 23.3604 64.8062 22.8965 64.4888 22.2861C64.1714 21.6758 64.0127 20.9287 64.0127 20.0449C64.0127 19.1807 64.1567 18.4336 64.4448 17.8037C64.7378 17.1689 65.1479 16.6807 65.6753 16.3389C66.2075 15.9971 66.8325 15.8262 67.5503 15.8262ZM67.5356 16.8223C66.8862 16.8223 66.3687 17.0347 65.9829 17.4595C65.5972 17.8843 65.3677 18.4775 65.2944 19.2393H69.5425C69.5376 18.7607 69.4619 18.3408 69.3154 17.9795C69.1738 17.6133 68.9565 17.3301 68.6636 17.1299C68.3706 16.9248 67.9946 16.8223 67.5356 16.8223ZM68.063 12.8232C68.2144 13.043 68.3804 13.2651 68.561 13.4897C68.7466 13.7144 68.9346 13.9316 69.125 14.1416C69.3154 14.3516 69.4961 14.5493 69.667 14.7349V14.9106H68.9785C68.7295 14.7397 68.4707 14.5493 68.2021 14.3394C67.9385 14.1294 67.6821 13.9048 67.4331 13.6655C67.1743 13.9048 66.9131 14.1294 66.6494 14.3394C66.3906 14.5493 66.1367 14.7397 65.8877 14.9106H65.1919V14.7349C65.3628 14.5493 65.5435 14.3516 65.7339 14.1416C65.9243 13.9316 66.1123 13.7144 66.2979 13.4897C66.4834 13.2651 66.6519 13.043 66.8032 12.8232H68.063ZM69.5425 10.9409C69.9868 10.9409 70.3311 11.0264 70.5752 11.1973C70.8193 11.3633 70.9414 11.6196 70.9414 11.9663C70.9414 12.2495 70.8486 12.4644 70.6631 12.6108C70.4824 12.7573 70.2603 12.8599 69.9966 12.9185L69.9526 13.5117H69.374L69.3081 12.5669C69.6011 12.5229 69.8232 12.4619 69.9746 12.3838C70.1309 12.3057 70.209 12.1763 70.209 11.9956C70.209 11.8198 70.1406 11.6978 70.0039 11.6294C69.8721 11.561 69.6938 11.5269 69.4692 11.5269C69.3618 11.5269 69.2593 11.5317 69.1616 11.5415C69.0688 11.5513 68.9907 11.5635 68.9272 11.5781V10.9995C68.9956 10.98 69.0811 10.9653 69.1836 10.9556C69.2861 10.9458 69.4058 10.9409 69.5425 10.9409ZM81.5981 15.8262C82.4819 15.8262 83.1484 16.0581 83.5977 16.522C84.0469 16.981 84.2715 17.7207 84.2715 18.7412V24H83.0703V18.7998C83.0703 18.1504 82.9287 17.6646 82.6455 17.3423C82.3672 17.0151 81.9521 16.8516 81.4004 16.8516C80.624 16.8516 80.0601 17.0762 79.7085 17.5254C79.3569 17.9746 79.1812 18.6362 79.1812 19.5103V24H77.9727V18.7998C77.9727 18.3652 77.9092 18.0039 77.7822 17.7158C77.6602 17.4277 77.4746 17.2129 77.2256 17.0713C76.9814 16.9248 76.6714 16.8516 76.2954 16.8516C75.7632 16.8516 75.3359 16.9614 75.0137 17.1812C74.6914 17.4009 74.457 17.728 74.3105 18.1626C74.1689 18.5923 74.0981 19.1221 74.0981 19.752V24H72.8823V15.9727H73.8638L74.0469 17.1079H74.1128C74.2739 16.8296 74.4766 16.5952 74.7207 16.4048C74.9648 16.2144 75.2383 16.0703 75.541 15.9727C75.8438 15.875 76.166 15.8262 76.5078 15.8262C77.1182 15.8262 77.6284 15.9409 78.0386 16.1704C78.4536 16.395 78.7539 16.7393 78.9395 17.2031H79.0054C79.269 16.7393 79.6304 16.395 80.0894 16.1704C80.5483 15.9409 81.0513 15.8262 81.5981 15.8262ZM93.522 24.1465C92.5063 24.1465 91.7007 23.8022 91.105 23.1138C90.5142 22.4204 90.2188 21.3975 90.2188 20.0449C90.2188 18.6436 90.5215 17.5962 91.127 16.9028C91.7324 16.2095 92.5356 15.8628 93.5366 15.8628C93.9614 15.8628 94.3325 15.9189 94.6499 16.0312C94.9673 16.1436 95.2407 16.2949 95.4702 16.4854C95.7046 16.6758 95.8999 16.8882 96.0562 17.1226H96.144C96.1196 16.9712 96.0977 16.7637 96.0781 16.5C96.0635 16.2363 96.0562 16.0166 96.0562 15.8408V14.8813H92.8115V13.9658H96.0562V12.6035H97.272V13.9658H98.4072V14.8813H97.272V24H96.2759L96.1001 22.8574H96.0415C95.8901 23.0967 95.6997 23.314 95.4702 23.5093C95.2407 23.7046 94.9648 23.8608 94.6426 23.978C94.3252 24.0903 93.9517 24.1465 93.522 24.1465ZM93.7197 23.1357C94.5791 23.1357 95.1846 22.8965 95.5361 22.418C95.8877 21.9346 96.0635 21.2144 96.0635 20.2573V20.0229C96.0635 18.9976 95.895 18.2163 95.5581 17.6792C95.2212 17.1421 94.606 16.8735 93.7124 16.8735C92.9653 16.8735 92.4062 17.1543 92.0352 17.7158C91.6689 18.2773 91.4858 19.0562 91.4858 20.0522C91.4858 21.0386 91.6689 21.8003 92.0352 22.3374C92.4014 22.8696 92.9629 23.1357 93.7197 23.1357ZM102.868 15.8408C103.825 15.8408 104.535 16.0557 104.999 16.4854C105.463 16.915 105.695 17.6011 105.695 18.5435V24H104.809L104.574 22.8135H104.516C104.291 23.1064 104.057 23.353 103.812 23.5532C103.568 23.7485 103.285 23.8975 102.963 24C102.646 24.0977 102.255 24.1465 101.791 24.1465C101.303 24.1465 100.868 24.061 100.487 23.8901C100.111 23.7192 99.8135 23.4604 99.5938 23.1138C99.3789 22.7671 99.2715 22.3276 99.2715 21.7954C99.2715 20.9946 99.5889 20.3794 100.224 19.9497C100.858 19.52 101.825 19.2856 103.124 19.2466L104.508 19.188V18.6973C104.508 18.0039 104.359 17.5181 104.062 17.2397C103.764 16.9614 103.344 16.8223 102.802 16.8223C102.382 16.8223 101.981 16.8833 101.601 17.0054C101.22 17.1274 100.858 17.2715 100.517 17.4375L100.143 16.5146C100.504 16.3291 100.919 16.1704 101.388 16.0386C101.857 15.9067 102.35 15.8408 102.868 15.8408ZM104.494 20.0449L103.271 20.0962C102.27 20.1353 101.564 20.2988 101.154 20.5869C100.744 20.875 100.539 21.2827 100.539 21.8101C100.539 22.269 100.678 22.6084 100.956 22.8281C101.234 23.0479 101.603 23.1577 102.062 23.1577C102.775 23.1577 103.358 22.96 103.812 22.5645C104.267 22.1689 104.494 21.5757 104.494 20.7847V20.0449ZM102.743 26.5708C102.538 26.5708 102.365 26.5049 102.223 26.373C102.082 26.2412 102.011 26.041 102.011 25.7725C102.011 25.499 102.082 25.2964 102.223 25.1646C102.365 25.0376 102.538 24.9741 102.743 24.9741C102.953 24.9741 103.129 25.0376 103.271 25.1646C103.412 25.2964 103.483 25.499 103.483 25.7725C103.483 26.041 103.412 26.2412 103.271 26.373C103.129 26.5049 102.953 26.5708 102.743 26.5708ZM110.792 23.1504C110.993 23.1504 111.198 23.1333 111.408 23.0991C111.618 23.0649 111.789 23.0234 111.92 22.9746V23.9194C111.779 23.9829 111.581 24.0366 111.327 24.0806C111.078 24.1245 110.834 24.1465 110.595 24.1465C110.17 24.1465 109.784 24.0732 109.438 23.9268C109.091 23.7754 108.812 23.5215 108.603 23.165C108.397 22.8086 108.295 22.3154 108.295 21.6855V16.9248H107.152V16.3315L108.302 15.8555L108.786 14.1123H109.518V15.9727H111.869V16.9248H109.518V21.6489C109.518 22.1519 109.633 22.5278 109.862 22.7769C110.097 23.0259 110.407 23.1504 110.792 23.1504ZM117.26 23.2383C117.26 22.8965 117.343 22.6548 117.509 22.5132C117.675 22.3667 117.877 22.2935 118.117 22.2935C118.366 22.2935 118.576 22.3667 118.747 22.5132C118.917 22.6548 119.003 22.8965 119.003 23.2383C119.003 23.5752 118.917 23.8218 118.747 23.978C118.576 24.1294 118.366 24.2051 118.117 24.2051C117.877 24.2051 117.675 24.1294 117.509 23.978C117.343 23.8218 117.26 23.5752 117.26 23.2383ZM117.26 16.7417C117.26 16.3901 117.343 16.1436 117.509 16.002C117.675 15.8555 117.877 15.7822 118.117 15.7822C118.366 15.7822 118.576 15.8555 118.747 16.002C118.917 16.1436 119.003 16.3901 119.003 16.7417C119.003 17.0737 118.917 17.3154 118.747 17.4668C118.576 17.6182 118.366 17.6938 118.117 17.6938C117.877 17.6938 117.675 17.6182 117.509 17.4668C117.343 17.3154 117.26 17.0737 117.26 16.7417ZM50.624 44L55.0186 34.4053H49.1812V33.292H56.3223V34.2295L51.957 44H50.624ZM64.8989 38.6313C64.8989 39.5005 64.833 40.2769 64.7012 40.9604C64.5693 41.644 64.3618 42.2227 64.0786 42.6963C63.7954 43.1699 63.4292 43.5312 62.98 43.7803C62.5308 44.0244 61.9912 44.1465 61.3613 44.1465C60.5654 44.1465 59.9062 43.9292 59.3838 43.4946C58.8662 43.0601 58.478 42.4326 58.2192 41.6123C57.9653 40.7871 57.8384 39.7935 57.8384 38.6313C57.8384 37.4888 57.9531 36.5073 58.1826 35.687C58.417 34.8618 58.793 34.2295 59.3105 33.79C59.8281 33.3457 60.5117 33.1235 61.3613 33.1235C62.167 33.1235 62.8311 33.3433 63.3535 33.7827C63.876 34.2173 64.2642 34.8472 64.5181 35.6724C64.772 36.4927 64.8989 37.479 64.8989 38.6313ZM59.0615 38.6313C59.0615 39.6274 59.1372 40.4575 59.2886 41.1216C59.4399 41.7856 59.6841 42.2837 60.021 42.6157C60.3628 42.9429 60.8096 43.1064 61.3613 43.1064C61.9131 43.1064 62.3574 42.9429 62.6943 42.6157C63.0361 42.2886 63.2827 41.793 63.4341 41.1289C63.5903 40.4648 63.6685 39.6323 63.6685 38.6313C63.6685 37.6499 63.5928 36.8296 63.4414 36.1704C63.29 35.5063 63.0459 35.0083 62.709 34.6763C62.3721 34.3394 61.9229 34.1709 61.3613 34.1709C60.7998 34.1709 60.3506 34.3394 60.0137 34.6763C59.6768 35.0083 59.4326 35.5063 59.2812 36.1704C59.1348 36.8296 59.0615 37.6499 59.0615 38.6313ZM68.5903 33.1382C69.3228 33.1382 69.877 33.4312 70.2529 34.0171C70.6338 34.5981 70.8242 35.4209 70.8242 36.4854C70.8242 37.5498 70.6411 38.3799 70.2749 38.9756C69.9087 39.5664 69.3472 39.8618 68.5903 39.8618C67.8872 39.8618 67.3477 39.5664 66.9717 38.9756C66.6006 38.3799 66.415 37.5498 66.415 36.4854C66.415 35.4209 66.5933 34.5981 66.9497 34.0171C67.3062 33.4312 67.853 33.1382 68.5903 33.1382ZM68.5903 34.0098C68.1948 34.0098 67.9043 34.2173 67.7188 34.6323C67.5332 35.0425 67.4404 35.6602 67.4404 36.4854C67.4404 37.3105 67.5332 37.9331 67.7188 38.353C67.9043 38.7729 68.1948 38.9829 68.5903 38.9829C69.0005 38.9829 69.3057 38.7729 69.5059 38.353C69.7061 37.9331 69.8062 37.3105 69.8062 36.4854C69.8062 35.665 69.7061 35.0474 69.5059 34.6323C69.3105 34.2173 69.0054 34.0098 68.5903 34.0098ZM75.3726 33.292L69.4326 44H68.3633L74.3032 33.292H75.3726ZM75.0869 37.4302C75.8145 37.4302 76.3687 37.7231 76.7495 38.3091C77.1304 38.8901 77.3208 39.7129 77.3208 40.7773C77.3208 41.8369 77.1377 42.6646 76.7715 43.2603C76.4053 43.8511 75.8438 44.1465 75.0869 44.1465C74.3789 44.1465 73.8394 43.8511 73.4683 43.2603C73.0972 42.6646 72.9116 41.8369 72.9116 40.7773C72.9116 39.7129 73.0874 38.8901 73.439 38.3091C73.7954 37.7231 74.3447 37.4302 75.0869 37.4302ZM75.0869 38.3091C74.6914 38.3091 74.4009 38.5142 74.2153 38.9243C74.0298 39.3345 73.937 39.9521 73.937 40.7773C73.937 41.6025 74.0298 42.2251 74.2153 42.645C74.4009 43.0601 74.6914 43.2676 75.0869 43.2676C75.4971 43.2676 75.8022 43.0625 76.0024 42.6523C76.2026 42.2373 76.3027 41.6123 76.3027 40.7773C76.3027 39.957 76.2026 39.3418 76.0024 38.9316C75.8071 38.5166 75.502 38.3091 75.0869 38.3091Z" fill="white"/>
<g opacity="0.4">
<path d="M114.3 -17.5502C113.967 -17.4758 113.638 -17.3926 113.312 -17.3008L100.225 -4.08638C100.134 -3.75736 100.051 -3.42485 99.9774 -3.08892L114.3 -17.5502Z" fill="white"/>
<path d="M99.5394 1.58553C99.5346 1.40587 99.532 1.22557 99.532 1.04469C99.532 0.977659 99.5323 0.910759 99.533 0.843922L118.195 -17.999C118.261 -17.9997 118.327 -18 118.394 -18C118.573 -18 118.751 -17.9975 118.929 -17.9924L99.5394 1.58553Z" fill="white"/>
<path d="M100.013 5.3391C99.9669 5.13478 99.9237 4.9291 99.8835 4.72232L122.036 -17.6452C122.241 -17.6047 122.445 -17.5609 122.647 -17.5139L100.013 5.3391Z" fill="white"/>
<path d="M101.045 8.53C100.97 8.35448 100.899 8.1776 100.829 7.99943L125.282 -16.6902C125.458 -16.6202 125.633 -16.5477 125.807 -16.4726L101.045 8.53Z" fill="white"/>
<path d="M102.496 11.2972C102.399 11.1447 102.304 10.9907 102.212 10.8354L128.09 -15.2939C128.244 -15.2006 128.397 -15.1052 128.548 -15.0076L102.496 11.2972Z" fill="white"/>
<path d="M104.303 13.7048C104.186 13.5728 104.072 13.4391 103.959 13.3038L130.535 -13.5303C130.669 -13.4164 130.801 -13.3006 130.932 -13.1831L104.303 13.7048Z" fill="white"/>
<path d="M106.441 15.7779C106.305 15.6656 106.171 15.5515 106.039 15.4355L132.646 -11.4298C132.761 -11.2961 132.874 -11.1609 132.985 -11.024L106.441 15.7779Z" fill="white"/>
<path d="M108.914 17.5129C108.758 17.4214 108.604 17.3277 108.451 17.2318L134.425 -8.99395C134.52 -8.83974 134.613 -8.68404 134.704 -8.52693L108.914 17.5129Z" fill="white"/>
<path d="M111.755 18.8764C111.577 18.8086 111.4 18.7381 111.224 18.6651L135.845 -6.19503C135.917 -6.01744 135.987 -5.83844 136.054 -5.6582L111.755 18.8764Z" fill="white"/>
<path d="M115.042 19.7896C114.835 19.752 114.628 19.711 114.423 19.6667L136.837 -2.96448C136.881 -2.75731 136.921 -2.54892 136.959 -2.3393L115.042 19.7896Z" fill="white"/>
<path d="M118.945 20.0814C118.762 20.0867 118.578 20.0894 118.394 20.0894C118.328 20.0894 118.262 20.089 118.197 20.0883L137.254 0.845985C137.255 0.912178 137.255 0.978371 137.255 1.04469C137.255 1.2308 137.253 1.41621 137.247 1.60103L118.945 20.0814Z" fill="white"/>
<path d="M123.964 19.2451C123.626 19.3504 123.284 19.4464 122.939 19.5329L136.704 5.63364C136.619 5.98281 136.524 6.32823 136.419 6.66953L123.964 19.2451Z" fill="white"/>
<path d="M141.932 41.4922C142.611 40.5959 143.405 39.7937 144.293 39.1082L141.932 41.4922Z" fill="white"/>
<path d="M139.601 46.6668C139.645 46.4488 139.694 46.2329 139.749 46.0191L148.776 36.9039C148.988 36.8488 149.202 36.7991 149.418 36.755L139.601 46.6668Z" fill="white"/>
<path d="M139.362 49.7299C139.355 49.568 139.352 49.4053 139.351 49.2419L151.968 36.5025C152.13 36.5031 152.291 36.5067 152.451 36.5134L139.362 49.7299Z" fill="white"/>
<path d="M139.706 52.2044C139.673 52.0695 139.643 51.9338 139.615 51.7973L154.499 36.7686C154.634 36.797 154.769 36.8275 154.902 36.8603L139.706 52.2044Z" fill="white"/>
<path d="M140.412 54.312C140.362 54.1961 140.313 54.0792 140.266 53.9614L156.642 37.4259C156.759 37.4736 156.875 37.523 156.99 37.5741L140.412 54.312Z" fill="white"/>
<path d="M141.395 56.1409C141.33 56.0401 141.266 55.9384 141.204 55.8357L158.499 38.3731C158.6 38.4362 158.701 38.5007 158.801 38.5666L141.395 56.1409Z" fill="white"/>
<path d="M142.614 57.7318C142.536 57.6446 142.459 57.5563 142.383 57.4669L160.114 39.5633C160.203 39.64 160.29 39.718 160.376 39.7972L142.614 57.7318Z" fill="white"/>
<path d="M144.053 59.1C143.962 59.026 143.872 58.9508 143.783 58.8743L161.508 40.9774C161.584 41.0673 161.658 41.1583 161.732 41.2504L144.053 59.1Z" fill="white"/>
<path d="M145.717 60.2421C145.612 60.182 145.508 60.1205 145.406 60.0574L162.68 42.6156C162.742 42.7193 162.803 42.824 162.863 42.9297L145.717 60.2421Z" fill="white"/>
<path d="M147.627 61.1343C147.507 61.0902 147.388 61.0443 147.27 60.9966L163.61 44.4979C163.657 44.6174 163.703 44.7377 163.746 44.859L147.627 61.1343Z" fill="white"/>
<path d="M149.84 61.7216C149.7 61.698 149.561 61.6721 149.423 61.6439L164.251 46.672C164.279 46.8116 164.305 46.952 164.328 47.0931L149.84 61.7216Z" fill="white"/>
<path d="M152.474 61.8835C152.306 61.8908 152.138 61.8947 151.968 61.8953L164.5 49.2421C164.499 49.4131 164.496 49.5833 164.488 49.7526L152.474 61.8835Z" fill="white"/>
<path d="M155.896 61.2494C155.664 61.3274 155.429 61.3987 155.191 61.4632L164.072 52.4957C164.008 52.7361 163.938 52.9737 163.86 53.2082L155.896 61.2494Z" fill="white"/>
<path d="M44.3148 36.3646C43.678 36.7361 43.0715 37.1546 42.4998 37.6153L40.1718 39.9659C39.7155 40.5431 39.3011 41.1555 38.9331 41.7985L44.3148 36.3646Z" fill="white"/>
<path d="M37.1511 46.8895C37.1882 46.6505 37.2309 46.4134 37.2791 46.1783L48.6526 34.6945C48.8854 34.6458 49.1202 34.6027 49.3569 34.5653L37.1511 46.8895Z" fill="white"/>
<path d="M37.0151 50.3185C37.0016 50.1357 36.9914 49.9521 36.9845 49.7675L52.2073 34.397C52.39 34.404 52.5719 34.4143 52.7529 34.428L37.0151 50.3185Z" fill="white"/>
<path d="M37.4949 53.1257C37.4532 52.9724 37.414 52.8181 37.3771 52.6628L55.0747 34.7935C55.2285 34.8307 55.3813 34.8704 55.5332 34.9124L37.4949 53.1257Z" fill="white"/>
<path d="M38.3763 55.5275C38.3144 55.3952 38.2543 55.2619 38.1961 55.1275L57.5158 35.6204C57.6489 35.6792 57.7809 35.7398 57.9118 35.8024L38.3763 55.5275Z" fill="white"/>
<path d="M39.5696 57.6143C39.4909 57.4993 39.4138 57.3832 39.3382 57.266L59.6337 36.7737C59.7498 36.8499 59.8648 36.9278 59.9786 37.0073L39.5696 57.6143Z" fill="white"/>
<path d="M41.0334 59.4279C40.9396 59.3287 40.8471 59.2281 40.7559 59.1263L61.4761 38.2051C61.577 38.2971 61.6766 38.3905 61.7749 38.4853L41.0334 59.4279Z" fill="white"/>
<path d="M42.7537 60.9827C42.6449 60.8988 42.5373 60.8135 42.4309 60.7267L63.0612 39.8963C63.1471 40.0037 63.2316 40.1124 63.3147 40.2223L42.7537 60.9827Z" fill="white"/>
<path d="M44.738 62.2709C44.6132 62.2035 44.4895 62.1344 44.367 62.0636L64.3852 41.8512C64.4553 41.9749 64.5238 42.0998 64.5905 42.2258L44.738 62.2709Z" fill="white"/>
<path d="M47.0183 63.2601C46.8749 63.2121 46.7325 63.1618 46.5912 63.1095L65.421 44.097C65.4729 44.2397 65.5226 44.3834 65.5702 44.5282L47.0183 63.2601Z" fill="white"/>
<path d="M49.6663 63.8781C49.4987 63.8553 49.332 63.8296 49.1662 63.8012L66.1061 46.697C66.1343 46.8643 66.1597 47.0327 66.1823 47.2019L49.6663 63.8781Z" fill="white"/>
<path d="M52.8424 63.9629C52.6392 63.9795 52.4348 63.9919 52.2294 64L66.303 49.7898C66.2949 49.9973 66.2827 50.2037 66.2662 50.4089L52.8424 63.9629Z" fill="white"/>
<path d="M57.1039 62.9518C56.8068 63.0721 56.505 63.1829 56.1987 63.2838L65.5937 53.7977C65.4938 54.1069 65.384 54.4117 65.2649 54.7116L57.1039 62.9518Z" fill="white"/>
<path d="M-27.6475 15.9302C-28.0692 16.1763 -28.4709 16.4535 -28.8495 16.7587L-30.3891 18.3132C-30.6914 18.6955 -30.9659 19.1011 -31.2096 19.5269L-27.6475 15.9302Z" fill="white"/>
<path d="M-32.3896 22.8976C-32.3651 22.7394 -32.3368 22.5824 -32.3049 22.4268L-24.7755 14.8244C-24.6214 14.7921 -24.4659 14.7636 -24.3092 14.7388L-32.3896 22.8976Z" fill="white"/>
<path d="M-32.4797 25.1678C-32.4887 25.0468 -32.4954 24.9252 -32.5 24.803L-22.4221 14.6273C-22.3011 14.632 -22.1807 14.6388 -22.0608 14.6478L-32.4797 25.1678Z" fill="white"/>
<path d="M-32.1621 27.0263C-32.1897 26.9248 -32.2157 26.8226 -32.2401 26.7198L-20.5237 14.8898C-20.4219 14.9144 -20.3207 14.9407 -20.2202 14.9685L-32.1621 27.0263Z" fill="white"/>
<path d="M-31.5786 28.6164C-31.6196 28.5288 -31.6594 28.4406 -31.6979 28.3516L-18.9076 15.4372C-18.8195 15.4761 -18.7321 15.5163 -18.6454 15.5577L-31.5786 28.6164Z" fill="white"/>
<path d="M-30.7886 29.9979C-30.8407 29.9218 -30.8918 29.845 -30.9418 29.7674L-17.5054 16.2007C-17.4286 16.2512 -17.3524 16.3027 -17.2771 16.3554L-30.7886 29.9979Z" fill="white"/>
<path d="M-29.8195 31.1987C-29.8816 31.133 -29.9429 31.0664 -30.0032 30.999L-16.2857 17.1483C-16.2189 17.2092 -16.153 17.2711 -16.0879 17.3338L-29.8195 31.1987Z" fill="white"/>
<path d="M-28.6806 32.228C-28.7527 32.1725 -28.8239 32.116 -28.8943 32.0585L-15.2363 18.268C-15.1794 18.3391 -15.1234 18.411 -15.0685 18.4838L-28.6806 32.228Z" fill="white"/>
<path d="M-27.367 33.0808C-27.4496 33.0362 -27.5315 32.9905 -27.6126 32.9436L-14.3597 19.5621C-14.3133 19.6441 -14.268 19.7268 -14.2238 19.8102L-27.367 33.0808Z" fill="white"/>
<path d="M-25.8574 33.7358C-25.9523 33.704 -26.0465 33.6707 -26.1401 33.636L-13.6739 21.0489C-13.6396 21.1434 -13.6067 21.2386 -13.5752 21.3344L-25.8574 33.7358Z" fill="white"/>
<path d="M-24.1043 34.1449C-24.2152 34.1298 -24.3256 34.1128 -24.4354 34.094L-13.2204 22.7702C-13.2017 22.881 -13.1849 22.9925 -13.17 23.1045L-24.1043 34.1449Z" fill="white"/>
<path d="M-22.0016 34.2011C-22.1361 34.2121 -22.2715 34.2203 -22.4075 34.2256L-13.09 24.8178C-13.0953 24.9551 -13.1035 25.0917 -13.1143 25.2276L-22.0016 34.2011Z" fill="white"/>
<path d="M-19.1805 33.5318C-19.3771 33.6115 -19.577 33.6848 -19.7797 33.7516L-13.5595 27.471C-13.6256 27.6758 -13.6983 27.8775 -13.7772 28.0761L-19.1805 33.5318Z" fill="white"/>
</g>
</g>
<defs>
<linearGradient id="paint0_linear_515_277" x1="0.5" y1="28" x2="136.5" y2="28" gradientUnits="userSpaceOnUse">
<stop stop-color="#FEB500"/>
<stop offset="1" stop-color="#FF9900"/>
</linearGradient>
<clipPath id="clip0_515_277">
<rect x="0.5" width="136" height="56" rx="6" fill="white"/>
</clipPath>
</defs>
</svg>
