<svg width="119" height="56" viewBox="0 0 119 56" fill="none" xmlns="http://www.w3.org/2000/svg">
<g clip-path="url(#clip0_515_288)">
<rect x="0.5" width="118" height="56" rx="6" fill="url(#paint0_linear_515_288)"/>
<path opacity="0.05" d="M-1.47581 0H118.5C118.5 0 117.157 42.7887 66.4689 26.1632C15.781 9.53779 -2.25686 37.5649 -1.47581 0Z" fill="white"/>
<path opacity="0.1" d="M0.532227 0H160.5C160.5 0 133.084 37.6255 65.5 21C-2.08382 4.37454 6 69 0.532227 0Z" fill="white"/>
<path opacity="0.1" d="M0.516439 56H82.4999C82.4999 56 47.5001 46 30 33.5C12.4999 21 -0.0172766 18.4351 0.516439 56Z" fill="white"/>
<path d="M24.5 36L23.6056 35.5528C23.4506 35.8628 23.4671 36.2309 23.6493 36.5257C23.8316 36.8205 24.1534 37 24.5 37V36ZM32.5 36V37C32.8466 37 33.1684 36.8205 33.3507 36.5257C33.5329 36.2309 33.5494 35.8628 33.3944 35.5528L32.5 36ZM28.5 32L29.0547 31.1679C28.7188 30.944 28.2812 30.944 27.9453 31.1679L28.5 32ZM26.5 28C26.5 26.9771 26.0769 26.0362 25.5667 25.22C25.055 24.4012 24.3827 23.5971 23.7682 22.8598C23.1327 22.0971 22.555 21.4012 22.1292 20.72C21.7019 20.0362 21.5 19.4771 21.5 19H19.5C19.5 20.0229 19.9231 20.9638 20.4333 21.78C20.945 22.5988 21.6173 23.4029 22.2318 24.1402C22.8673 24.9029 23.445 25.5988 23.8708 26.28C24.2981 26.9638 24.5 27.5229 24.5 28H26.5ZM21.5 19C21.5 18.6071 21.5217 18.3609 21.5564 18.2024C21.5886 18.0552 21.617 18.0546 21.5858 18.0858C21.5546 18.117 21.5552 18.0886 21.7024 18.0564C21.8609 18.0217 22.1071 18 22.5 18V16C22.0645 16 21.6465 16.0212 21.2746 16.1026C20.8915 16.1865 20.4957 16.3475 20.1716 16.6716C19.8475 16.9957 19.6865 17.3915 19.6026 17.7746C19.5212 18.1465 19.5 18.5645 19.5 19H21.5ZM32.5 28C32.5 27.5229 32.7019 26.9638 33.1292 26.28C33.555 25.5988 34.1327 24.9029 34.7682 24.1402C35.3827 23.4029 36.055 22.5988 36.5667 21.78C37.0769 20.9638 37.5 20.0229 37.5 19H35.5C35.5 19.4771 35.2981 20.0362 34.8708 20.72C34.445 21.4012 33.8673 22.0971 33.2318 22.8598C32.6173 23.5971 31.945 24.4012 31.4333 25.22C30.9231 26.0362 30.5 26.9771 30.5 28H32.5ZM37.5 19C37.5 18.5645 37.4788 18.1465 37.3974 17.7746C37.3135 17.3915 37.1525 16.9957 36.8284 16.6716C36.5043 16.3475 36.1085 16.1865 35.7254 16.1026C35.3535 16.0212 34.9355 16 34.5 16V18C34.8929 18 35.1391 18.0217 35.2976 18.0564C35.4448 18.0886 35.4454 18.117 35.4142 18.0858C35.383 18.0546 35.4114 18.0552 35.4436 18.2024C35.4783 18.3609 35.5 18.6071 35.5 19H37.5ZM22.5 18H34.5V16H22.5V18ZM24.5 28C24.5 28.4771 24.2981 29.0362 23.8708 29.72C23.445 30.4012 22.8673 31.0971 22.2318 31.8598C21.6173 32.5971 20.945 33.4012 20.4333 34.22C19.9231 35.0362 19.5 35.9771 19.5 37H21.5C21.5 36.5229 21.7019 35.9638 22.1292 35.28C22.555 34.5988 23.1327 33.9029 23.7682 33.1402C24.3827 32.4029 25.055 31.5988 25.5667 30.78C26.0769 29.9638 26.5 29.0229 26.5 28H24.5ZM19.5 37C19.5 37.4355 19.5212 37.8535 19.6026 38.2254C19.6865 38.6085 19.8475 39.0043 20.1716 39.3284C20.4957 39.6525 20.8915 39.8135 21.2746 39.8974C21.6465 39.9788 22.0645 40 22.5 40V38C22.1071 38 21.8609 37.9783 21.7024 37.9436C21.5552 37.9114 21.5546 37.883 21.5858 37.9142C21.617 37.9454 21.5886 37.9448 21.5564 37.7976C21.5217 37.6391 21.5 37.3929 21.5 37H19.5ZM30.5 28C30.5 29.0229 30.9231 29.9638 31.4333 30.78C31.945 31.5988 32.6173 32.4029 33.2318 33.1402C33.8673 33.9029 34.445 34.5988 34.8708 35.28C35.2981 35.9638 35.5 36.5229 35.5 37H37.5C37.5 35.9771 37.0769 35.0362 36.5667 34.22C36.055 33.4012 35.3827 32.5971 34.7682 31.8598C34.1327 31.0971 33.555 30.4012 33.1292 29.72C32.7019 29.0362 32.5 28.4771 32.5 28H30.5ZM35.5 37C35.5 37.3929 35.4783 37.6391 35.4436 37.7976C35.4114 37.9448 35.383 37.9454 35.4142 37.9142C35.4454 37.883 35.4448 37.9114 35.2976 37.9436C35.1391 37.9783 34.8929 38 34.5 38V40C34.9355 40 35.3535 39.9788 35.7254 39.8974C36.1085 39.8135 36.5043 39.6525 36.8284 39.3284C37.1525 39.0043 37.3135 38.6085 37.3974 38.2254C37.4788 37.8535 37.5 37.4355 37.5 37H35.5ZM22.5 40H34.5V38H22.5V40ZM24.5 37H32.5V35H24.5V37ZM32.5 36C33.3944 35.5528 33.3942 35.5524 33.3941 35.5521C33.394 35.5519 33.3938 35.5516 33.3937 35.5513C33.3934 35.5508 33.3931 35.5502 33.3928 35.5496C33.3922 35.5484 33.3916 35.5471 33.3909 35.5457C33.3894 35.5429 33.3877 35.5395 33.3858 35.5357C33.3818 35.5281 33.3768 35.5186 33.3708 35.5072C33.3587 35.4844 33.3422 35.4542 33.3212 35.4171C33.2791 35.3429 33.2188 35.2411 33.1381 35.1155C32.9766 34.8644 32.7337 34.5184 32.3932 34.1098C31.7117 33.292 30.6411 32.2255 29.0547 31.1679L27.9453 32.8321C29.3589 33.7745 30.2883 34.708 30.8568 35.3902C31.1413 35.7316 31.3359 36.0106 31.4557 36.197C31.5156 36.2902 31.5568 36.3602 31.5812 36.4032C31.5933 36.4247 31.6013 36.4394 31.6053 36.4469C31.6073 36.4507 31.6083 36.4526 31.6083 36.4527C31.6083 36.4527 31.6081 36.4523 31.6077 36.4514C31.6074 36.4509 31.6071 36.4503 31.6068 36.4496C31.6066 36.4493 31.6064 36.4489 31.6062 36.4485C31.6061 36.4483 31.606 36.448 31.6059 36.4479C31.6057 36.4476 31.6056 36.4472 32.5 36ZM27.9453 31.1679C26.3589 32.2255 25.2883 33.292 24.6068 34.1098C24.2663 34.5184 24.0234 34.8644 23.8619 35.1155C23.7812 35.2411 23.7209 35.3429 23.6788 35.4171C23.6578 35.4542 23.6413 35.4844 23.6292 35.5072C23.6232 35.5186 23.6182 35.5281 23.6142 35.5357C23.6123 35.5395 23.6106 35.5429 23.6091 35.5457C23.6084 35.5471 23.6078 35.5484 23.6072 35.5496C23.6069 35.5502 23.6066 35.5508 23.6063 35.5513C23.6062 35.5516 23.606 35.5519 23.6059 35.5521C23.6058 35.5524 23.6056 35.5528 24.5 36C25.3944 36.4472 25.3943 36.4476 25.3941 36.4479C25.394 36.448 25.3939 36.4483 25.3938 36.4485C25.3936 36.4489 25.3934 36.4493 25.3932 36.4496C25.3929 36.4503 25.3926 36.4509 25.3923 36.4514C25.3919 36.4523 25.3917 36.4527 25.3917 36.4527C25.3917 36.4526 25.3927 36.4507 25.3947 36.4469C25.3987 36.4394 25.4067 36.4247 25.4189 36.4032C25.4432 36.3602 25.4844 36.2902 25.5443 36.197C25.6641 36.0106 25.8587 35.7316 26.1432 35.3902C26.7117 34.708 27.6411 33.7745 29.0547 32.8321L27.9453 31.1679Z" fill="white"/>
<path d="M53.7661 24H52.5796V16.4121C52.5796 16.124 52.5796 15.8774 52.5796 15.6724C52.5845 15.4624 52.5894 15.272 52.5942 15.1011C52.604 14.9253 52.6162 14.7471 52.6309 14.5664C52.4795 14.7227 52.3379 14.8569 52.2061 14.9692C52.0742 15.0767 51.9106 15.2109 51.7153 15.3721L50.4922 16.3535L49.855 15.5259L52.7554 13.292H53.7661V24ZM64.8989 18.6313C64.8989 19.5005 64.833 20.2769 64.7012 20.9604C64.5693 21.644 64.3618 22.2227 64.0786 22.6963C63.7954 23.1699 63.4292 23.5312 62.98 23.7803C62.5308 24.0244 61.9912 24.1465 61.3613 24.1465C60.5654 24.1465 59.9062 23.9292 59.3838 23.4946C58.8662 23.0601 58.478 22.4326 58.2192 21.6123C57.9653 20.7871 57.8384 19.7935 57.8384 18.6313C57.8384 17.4888 57.9531 16.5073 58.1826 15.687C58.417 14.8618 58.793 14.2295 59.3105 13.79C59.8281 13.3457 60.5117 13.1235 61.3613 13.1235C62.167 13.1235 62.8311 13.3433 63.3535 13.7827C63.876 14.2173 64.2642 14.8472 64.5181 15.6724C64.772 16.4927 64.8989 17.479 64.8989 18.6313ZM59.0615 18.6313C59.0615 19.6274 59.1372 20.4575 59.2886 21.1216C59.4399 21.7856 59.6841 22.2837 60.021 22.6157C60.3628 22.9429 60.8096 23.1064 61.3613 23.1064C61.9131 23.1064 62.3574 22.9429 62.6943 22.6157C63.0361 22.2886 63.2827 21.793 63.4341 21.1289C63.5903 20.4648 63.6685 19.6323 63.6685 18.6313C63.6685 17.6499 63.5928 16.8296 63.4414 16.1704C63.29 15.5063 63.0459 15.0083 62.709 14.6763C62.3721 14.3394 61.9229 14.1709 61.3613 14.1709C60.7998 14.1709 60.3506 14.3394 60.0137 14.6763C59.6768 15.0083 59.4326 15.5063 59.2812 16.1704C59.1348 16.8296 59.0615 17.6499 59.0615 18.6313ZM73.8271 13.292C75.209 13.292 76.2173 13.563 76.8521 14.105C77.4917 14.6421 77.8115 15.4136 77.8115 16.4194C77.8115 16.8735 77.7358 17.3057 77.5845 17.7158C77.438 18.1211 77.1987 18.48 76.8667 18.7925C76.5347 19.1001 76.0977 19.3442 75.5557 19.5249C75.0186 19.7007 74.3594 19.7886 73.5781 19.7886H72.2744V24H71.0293V13.292H73.8271ZM73.71 14.354H72.2744V18.7192H73.439C74.1226 18.7192 74.6914 18.646 75.1455 18.4995C75.6045 18.353 75.9487 18.1162 76.1782 17.7891C76.4077 17.457 76.5225 17.0176 76.5225 16.4707C76.5225 15.7578 76.2954 15.228 75.8413 14.8813C75.3872 14.5298 74.6768 14.354 73.71 14.354ZM81.0854 12.6035V16.0093C81.0854 16.2046 81.0806 16.4023 81.0708 16.6025C81.061 16.7979 81.0439 16.9785 81.0195 17.1445H81.1001C81.2661 16.8613 81.4761 16.6245 81.73 16.4341C81.9888 16.2388 82.2817 16.0923 82.6089 15.9946C82.936 15.8921 83.2827 15.8408 83.6489 15.8408C84.2935 15.8408 84.8306 15.9434 85.2603 16.1484C85.6948 16.3535 86.0195 16.6709 86.2344 17.1006C86.4541 17.5303 86.564 18.0869 86.564 18.7705V24H85.3628V18.8511C85.3628 18.1821 85.209 17.6816 84.9014 17.3496C84.5986 17.0176 84.1323 16.8516 83.5024 16.8516C82.9067 16.8516 82.4307 16.9663 82.0742 17.1958C81.7227 17.4204 81.4688 17.7524 81.3125 18.1919C81.1611 18.6313 81.0854 19.1685 81.0854 19.8032V24H79.8696V12.6035H81.0854ZM95.6973 15.9727V24H94.7012L94.5254 22.8721H94.4595C94.2935 23.1504 94.0786 23.3848 93.8149 23.5752C93.5513 23.7656 93.2534 23.9072 92.9214 24C92.5942 24.0977 92.2451 24.1465 91.874 24.1465C91.2393 24.1465 90.707 24.0439 90.2773 23.8389C89.8477 23.6338 89.5229 23.3164 89.3032 22.8867C89.0884 22.457 88.981 21.9053 88.981 21.2314V15.9727H90.2114V21.1436C90.2114 21.8125 90.3628 22.313 90.6655 22.645C90.9683 22.9722 91.4297 23.1357 92.0498 23.1357C92.6455 23.1357 93.1191 23.0234 93.4707 22.7988C93.8271 22.5742 94.0835 22.2446 94.2397 21.8101C94.396 21.3706 94.4741 20.8335 94.4741 20.1987V15.9727H95.6973ZM94.5107 12.5083V12.6548C94.4131 12.7964 94.2788 12.9673 94.1079 13.1675C93.9419 13.3628 93.7563 13.5703 93.5513 13.79C93.3462 14.0049 93.1387 14.21 92.9287 14.4053C92.7236 14.6006 92.5332 14.769 92.3574 14.9106H91.5444V14.7349C91.7007 14.5493 91.8716 14.3271 92.0571 14.0684C92.2427 13.8047 92.4233 13.5361 92.5991 13.2627C92.7749 12.9844 92.9214 12.7329 93.0386 12.5083H94.5107ZM100.861 23.1504C101.061 23.1504 101.266 23.1333 101.476 23.0991C101.686 23.0649 101.857 23.0234 101.989 22.9746V23.9194C101.847 23.9829 101.649 24.0366 101.396 24.0806C101.146 24.1245 100.902 24.1465 100.663 24.1465C100.238 24.1465 99.8525 24.0732 99.5059 23.9268C99.1592 23.7754 98.8809 23.5215 98.6709 23.165C98.4658 22.8086 98.3633 22.3154 98.3633 21.6855V16.9248H97.2207V16.3315L98.3706 15.8555L98.854 14.1123H99.5864V15.9727H101.938V16.9248H99.5864V21.6489C99.5864 22.1519 99.7012 22.5278 99.9307 22.7769C100.165 23.0259 100.475 23.1504 100.861 23.1504ZM51.0049 44H49.7817V32.6035H51.0049V44ZM56.5786 35.8408C57.5356 35.8408 58.2461 36.0557 58.71 36.4854C59.1738 36.915 59.4058 37.6011 59.4058 38.5435V44H58.5195L58.2852 42.8135H58.2266C58.002 43.1064 57.7676 43.353 57.5234 43.5532C57.2793 43.7485 56.9961 43.8975 56.6738 44C56.3564 44.0977 55.9658 44.1465 55.502 44.1465C55.0137 44.1465 54.5791 44.061 54.1982 43.8901C53.8223 43.7192 53.5244 43.4604 53.3047 43.1138C53.0898 42.7671 52.9824 42.3276 52.9824 41.7954C52.9824 40.9946 53.2998 40.3794 53.9346 39.9497C54.5693 39.52 55.5361 39.2856 56.835 39.2466L58.2192 39.188V38.6973C58.2192 38.0039 58.0703 37.5181 57.7725 37.2397C57.4746 36.9614 57.0547 36.8223 56.5127 36.8223C56.0928 36.8223 55.6924 36.8833 55.3115 37.0054C54.9307 37.1274 54.5693 37.2715 54.2275 37.4375L53.854 36.5146C54.2153 36.3291 54.6304 36.1704 55.0991 36.0386C55.5679 35.9067 56.061 35.8408 56.5786 35.8408ZM58.2046 40.0449L56.9814 40.0962C55.9805 40.1353 55.2749 40.2988 54.8647 40.5869C54.4546 40.875 54.2495 41.2827 54.2495 41.8101C54.2495 42.269 54.3887 42.6084 54.667 42.8281C54.9453 43.0479 55.314 43.1577 55.7729 43.1577C56.4858 43.1577 57.0693 42.96 57.5234 42.5645C57.9775 42.1689 58.2046 41.5757 58.2046 40.7847V40.0449ZM55.9561 32.5083C56.0732 32.7329 56.2173 32.9844 56.3882 33.2627C56.564 33.5361 56.7471 33.8047 56.9375 34.0684C57.1328 34.3271 57.311 34.5493 57.4722 34.7349V34.9106H56.6445C56.4688 34.769 56.2759 34.6006 56.0659 34.4053C55.8608 34.21 55.6558 34.0049 55.4507 33.79C55.2456 33.5703 55.0601 33.3628 54.894 33.1675C54.728 32.9673 54.5986 32.7964 54.5059 32.6548V32.5083H55.9561ZM70.6265 35.8262C71.5103 35.8262 72.1768 36.0581 72.626 36.522C73.0752 36.981 73.2998 37.7207 73.2998 38.7412V44H72.0986V38.7998C72.0986 38.1504 71.957 37.6646 71.6738 37.3423C71.3955 37.0151 70.9805 36.8516 70.4287 36.8516C69.6523 36.8516 69.0884 37.0762 68.7368 37.5254C68.3853 37.9746 68.2095 38.6362 68.2095 39.5103V44H67.001V38.7998C67.001 38.3652 66.9375 38.0039 66.8105 37.7158C66.6885 37.4277 66.5029 37.2129 66.2539 37.0713C66.0098 36.9248 65.6997 36.8516 65.3237 36.8516C64.7915 36.8516 64.3643 36.9614 64.042 37.1812C63.7197 37.4009 63.4854 37.728 63.3389 38.1626C63.1973 38.5923 63.1265 39.1221 63.1265 39.752V44H61.9106V35.9727H62.8921L63.0752 37.1079H63.1411C63.3022 36.8296 63.5049 36.5952 63.749 36.4048C63.9932 36.2144 64.2666 36.0703 64.5693 35.9727C64.8721 35.875 65.1943 35.8262 65.5361 35.8262C66.1465 35.8262 66.6567 35.9409 67.0669 36.1704C67.4819 36.395 67.7822 36.7393 67.9678 37.2031H68.0337C68.2974 36.7393 68.6587 36.395 69.1177 36.1704C69.5767 35.9409 70.0796 35.8262 70.6265 35.8262ZM80.9097 32.6035V35.4526C80.9097 35.7798 80.8999 36.0972 80.8804 36.4048C80.8657 36.7124 80.8535 36.9517 80.8438 37.1226H80.9097C81.1294 36.7612 81.4468 36.4561 81.8618 36.207C82.2769 35.958 82.8066 35.8335 83.4512 35.8335C84.457 35.8335 85.2578 36.1826 85.8535 36.8809C86.4541 37.5742 86.7544 38.6069 86.7544 39.979C86.7544 40.8823 86.6177 41.644 86.3442 42.2642C86.0708 42.8843 85.6851 43.353 85.187 43.6704C84.689 43.9878 84.1006 44.1465 83.4219 44.1465C82.7871 44.1465 82.2646 44.0293 81.8545 43.7949C81.4492 43.5557 81.1367 43.2651 80.917 42.9233H80.8218L80.5728 44H79.6938V32.6035H80.9097ZM83.2534 36.8516C82.6724 36.8516 82.2109 36.9663 81.8691 37.1958C81.5273 37.4204 81.2808 37.7622 81.1294 38.2212C80.9829 38.6753 80.9097 39.2515 80.9097 39.9497V40.0156C80.9097 41.0264 81.0781 41.8003 81.415 42.3374C81.752 42.8696 82.3647 43.1357 83.2534 43.1357C84.0005 43.1357 84.5596 42.8623 84.9307 42.3154C85.3066 41.7686 85.4946 40.9873 85.4946 39.9717C85.4946 38.9365 85.3091 38.1577 84.938 37.6353C84.5718 37.1128 84.0103 36.8516 83.2534 36.8516ZM91.8813 35.8408C92.8384 35.8408 93.5488 36.0557 94.0127 36.4854C94.4766 36.915 94.7085 37.6011 94.7085 38.5435V44H93.8223L93.5879 42.8135H93.5293C93.3047 43.1064 93.0703 43.353 92.8262 43.5532C92.582 43.7485 92.2988 43.8975 91.9766 44C91.6592 44.0977 91.2686 44.1465 90.8047 44.1465C90.3164 44.1465 89.8818 44.061 89.501 43.8901C89.125 43.7192 88.8271 43.4604 88.6074 43.1138C88.3926 42.7671 88.2852 42.3276 88.2852 41.7954C88.2852 40.9946 88.6025 40.3794 89.2373 39.9497C89.8721 39.52 90.8389 39.2856 92.1377 39.2466L93.522 39.188V38.6973C93.522 38.0039 93.373 37.5181 93.0752 37.2397C92.7773 36.9614 92.3574 36.8223 91.8154 36.8223C91.3955 36.8223 90.9951 36.8833 90.6143 37.0054C90.2334 37.1274 89.8721 37.2715 89.5303 37.4375L89.1567 36.5146C89.5181 36.3291 89.9331 36.1704 90.4019 36.0386C90.8706 35.9067 91.3638 35.8408 91.8813 35.8408ZM93.5073 40.0449L92.2842 40.0962C91.2832 40.1353 90.5776 40.2988 90.1675 40.5869C89.7573 40.875 89.5522 41.2827 89.5522 41.8101C89.5522 42.269 89.6914 42.6084 89.9697 42.8281C90.248 43.0479 90.6167 43.1577 91.0757 43.1577C91.7886 43.1577 92.3721 42.96 92.8262 42.5645C93.2803 42.1689 93.5073 41.5757 93.5073 40.7847V40.0449ZM91.2588 32.5083C91.376 32.7329 91.52 32.9844 91.6909 33.2627C91.8667 33.5361 92.0498 33.8047 92.2402 34.0684C92.4355 34.3271 92.6138 34.5493 92.7749 34.7349V34.9106H91.9473C91.7715 34.769 91.5786 34.6006 91.3687 34.4053C91.1636 34.21 90.9585 34.0049 90.7534 33.79C90.5483 33.5703 90.3628 33.3628 90.1968 33.1675C90.0308 32.9673 89.9014 32.7964 89.8086 32.6548V32.5083H91.2588ZM98.4292 35.9727V44H97.2134V35.9727H98.4292ZM97.8359 32.9697C98.0361 32.9697 98.207 33.0356 98.3486 33.1675C98.4951 33.2944 98.5684 33.4946 98.5684 33.7681C98.5684 34.0366 98.4951 34.2368 98.3486 34.3687C98.207 34.5005 98.0361 34.5664 97.8359 34.5664C97.626 34.5664 97.4502 34.5005 97.3086 34.3687C97.1719 34.2368 97.1035 34.0366 97.1035 33.7681C97.1035 33.4946 97.1719 33.2944 97.3086 33.1675C97.4502 33.0356 97.626 32.9697 97.8359 32.9697Z" fill="white"/>
<g opacity="0.4">
<path d="M105.3 -17.5502C104.967 -17.4758 104.638 -17.3926 104.312 -17.3008L91.2245 -4.08638C91.1337 -3.75736 91.0511 -3.42485 90.9774 -3.08892L105.3 -17.5502Z" fill="white"/>
<path d="M90.5394 1.58553C90.5346 1.40587 90.532 1.22557 90.532 1.04469C90.532 0.977659 90.5323 0.910759 90.533 0.843922L109.195 -17.999C109.261 -17.9997 109.327 -18 109.394 -18C109.573 -18 109.751 -17.9975 109.929 -17.9924L90.5394 1.58553Z" fill="white"/>
<path d="M91.0135 5.3391C90.9669 5.13478 90.9237 4.9291 90.8835 4.72232L113.036 -17.6452C113.241 -17.6047 113.445 -17.5609 113.647 -17.5139L91.0135 5.3391Z" fill="white"/>
<path d="M92.0447 8.53C91.9703 8.35448 91.8987 8.1776 91.8293 7.99943L116.282 -16.6902C116.458 -16.6202 116.633 -16.5477 116.807 -16.4726L92.0447 8.53Z" fill="white"/>
<path d="M93.4955 11.2972C93.3988 11.1447 93.3044 10.9907 93.2121 10.8354L119.09 -15.2939C119.244 -15.2006 119.397 -15.1052 119.548 -15.0076L93.4955 11.2972Z" fill="white"/>
<path d="M95.3027 13.7048C95.1863 13.5728 95.0717 13.4391 94.9589 13.3038L121.535 -13.5303C121.669 -13.4164 121.801 -13.3006 121.932 -13.1831L95.3027 13.7048Z" fill="white"/>
<path d="M97.4409 15.7779C97.3053 15.6656 97.1713 15.5515 97.039 15.4355L123.646 -11.4298C123.761 -11.2961 123.874 -11.1609 123.985 -11.024L97.4409 15.7779Z" fill="white"/>
<path d="M99.914 17.5129C99.7585 17.4214 99.6042 17.3277 99.4515 17.2318L125.425 -8.99395C125.52 -8.83974 125.613 -8.68404 125.704 -8.52693L99.914 17.5129Z" fill="white"/>
<path d="M102.755 18.8764C102.577 18.8086 102.4 18.7381 102.224 18.6651L126.845 -6.19503C126.917 -6.01744 126.987 -5.83844 127.054 -5.6582L102.755 18.8764Z" fill="white"/>
<path d="M106.042 19.7896C105.835 19.752 105.628 19.711 105.423 19.6667L127.837 -2.96448C127.881 -2.75731 127.921 -2.54892 127.959 -2.3393L106.042 19.7896Z" fill="white"/>
<path d="M109.945 20.0814C109.762 20.0867 109.578 20.0894 109.394 20.0894C109.328 20.0894 109.262 20.089 109.197 20.0883L128.254 0.845985C128.255 0.912178 128.255 0.978371 128.255 1.04469C128.255 1.2308 128.253 1.41621 128.247 1.60103L109.945 20.0814Z" fill="white"/>
<path d="M114.964 19.2451C114.626 19.3504 114.284 19.4464 113.939 19.5329L127.704 5.63364C127.619 5.98281 127.524 6.32823 127.419 6.66953L114.964 19.2451Z" fill="white"/>
<path d="M132.932 41.4922C133.611 40.5959 134.405 39.7937 135.293 39.1082L132.932 41.4922Z" fill="white"/>
<path d="M130.601 46.6668C130.645 46.4488 130.694 46.2329 130.749 46.0191L139.776 36.9039C139.988 36.8488 140.202 36.7991 140.418 36.755L130.601 46.6668Z" fill="white"/>
<path d="M130.362 49.7299C130.355 49.568 130.352 49.4053 130.351 49.2419L142.968 36.5025C143.13 36.5031 143.291 36.5067 143.451 36.5134L130.362 49.7299Z" fill="white"/>
<path d="M130.706 52.2044C130.673 52.0695 130.643 51.9338 130.615 51.7973L145.499 36.7686C145.634 36.797 145.769 36.8275 145.902 36.8603L130.706 52.2044Z" fill="white"/>
<path d="M131.412 54.312C131.362 54.1961 131.313 54.0792 131.266 53.9614L147.642 37.4259C147.759 37.4736 147.875 37.523 147.99 37.5741L131.412 54.312Z" fill="white"/>
<path d="M132.395 56.1409C132.33 56.0401 132.266 55.9384 132.204 55.8357L149.499 38.3731C149.6 38.4362 149.701 38.5007 149.801 38.5666L132.395 56.1409Z" fill="white"/>
<path d="M133.614 57.7318C133.536 57.6446 133.459 57.5563 133.383 57.4669L151.114 39.5633C151.203 39.64 151.29 39.718 151.376 39.7972L133.614 57.7318Z" fill="white"/>
<path d="M135.053 59.1C134.962 59.026 134.872 58.9508 134.783 58.8743L152.508 40.9774C152.584 41.0673 152.658 41.1583 152.732 41.2504L135.053 59.1Z" fill="white"/>
<path d="M136.717 60.2421C136.612 60.182 136.508 60.1205 136.406 60.0574L153.68 42.6156C153.742 42.7193 153.803 42.824 153.863 42.9297L136.717 60.2421Z" fill="white"/>
<path d="M138.627 61.1343C138.507 61.0902 138.388 61.0443 138.27 60.9966L154.61 44.4979C154.657 44.6174 154.703 44.7377 154.746 44.859L138.627 61.1343Z" fill="white"/>
<path d="M140.84 61.7216C140.7 61.698 140.561 61.6721 140.423 61.6439L155.251 46.672C155.279 46.8116 155.305 46.952 155.328 47.0931L140.84 61.7216Z" fill="white"/>
<path d="M143.474 61.8835C143.306 61.8908 143.138 61.8947 142.968 61.8953L155.5 49.2421C155.499 49.4131 155.496 49.5833 155.488 49.7526L143.474 61.8835Z" fill="white"/>
<path d="M146.896 61.2494C146.664 61.3274 146.429 61.3987 146.191 61.4632L155.072 52.4957C155.008 52.7361 154.938 52.9737 154.86 53.2082L146.896 61.2494Z" fill="white"/>
<path d="M35.3148 36.3646C34.678 36.7361 34.0715 37.1546 33.4998 37.6153L31.1718 39.9659C30.7155 40.5431 30.3011 41.1555 29.9331 41.7985L35.3148 36.3646Z" fill="white"/>
<path d="M28.1511 46.8895C28.1882 46.6505 28.2309 46.4134 28.2791 46.1783L39.6526 34.6945C39.8854 34.6458 40.1202 34.6027 40.3569 34.5653L28.1511 46.8895Z" fill="white"/>
<path d="M28.0151 50.3185C28.0016 50.1357 27.9914 49.9521 27.9845 49.7675L43.2073 34.397C43.39 34.404 43.5719 34.4143 43.7529 34.428L28.0151 50.3185Z" fill="white"/>
<path d="M28.4949 53.1257C28.4532 52.9724 28.414 52.8181 28.3771 52.6628L46.0747 34.7935C46.2285 34.8307 46.3813 34.8704 46.5332 34.9124L28.4949 53.1257Z" fill="white"/>
<path d="M29.3763 55.5275C29.3144 55.3952 29.2543 55.2619 29.1961 55.1275L48.5158 35.6204C48.6489 35.6792 48.7809 35.7398 48.9118 35.8024L29.3763 55.5275Z" fill="white"/>
<path d="M30.5696 57.6143C30.4909 57.4993 30.4138 57.3832 30.3382 57.266L50.6337 36.7737C50.7498 36.8499 50.8648 36.9278 50.9786 37.0073L30.5696 57.6143Z" fill="white"/>
<path d="M32.0334 59.4279C31.9396 59.3287 31.8471 59.2281 31.7559 59.1263L52.4761 38.2051C52.577 38.2971 52.6766 38.3905 52.7749 38.4853L32.0334 59.4279Z" fill="white"/>
<path d="M33.7537 60.9827C33.6449 60.8988 33.5373 60.8135 33.4309 60.7267L54.0612 39.8963C54.1471 40.0037 54.2316 40.1124 54.3147 40.2223L33.7537 60.9827Z" fill="white"/>
<path d="M35.738 62.2709C35.6132 62.2035 35.4895 62.1344 35.367 62.0636L55.3852 41.8512C55.4553 41.9749 55.5238 42.0998 55.5905 42.2258L35.738 62.2709Z" fill="white"/>
<path d="M38.0183 63.2601C37.8749 63.2121 37.7325 63.1618 37.5912 63.1095L56.421 44.097C56.4729 44.2397 56.5226 44.3834 56.5702 44.5282L38.0183 63.2601Z" fill="white"/>
<path d="M40.6663 63.8781C40.4987 63.8553 40.332 63.8296 40.1662 63.8012L57.1061 46.697C57.1343 46.8643 57.1597 47.0327 57.1823 47.2019L40.6663 63.8781Z" fill="white"/>
<path d="M43.8424 63.9629C43.6392 63.9795 43.4348 63.9919 43.2294 64L57.303 49.7898C57.2949 49.9973 57.2827 50.2037 57.2662 50.4089L43.8424 63.9629Z" fill="white"/>
<path d="M48.1039 62.9518C47.8068 63.0721 47.505 63.1829 47.1987 63.2838L56.5937 53.7977C56.4938 54.1069 56.384 54.4117 56.2649 54.7116L48.1039 62.9518Z" fill="white"/>
<path d="M-36.6475 15.9302C-37.0692 16.1763 -37.4709 16.4535 -37.8495 16.7587L-39.3891 18.3132C-39.6914 18.6955 -39.9659 19.1011 -40.2096 19.5269L-36.6475 15.9302Z" fill="white"/>
<path d="M-41.3896 22.8976C-41.3651 22.7394 -41.3368 22.5824 -41.3049 22.4268L-33.7755 14.8244C-33.6214 14.7921 -33.4659 14.7636 -33.3092 14.7388L-41.3896 22.8976Z" fill="white"/>
<path d="M-41.4797 25.1678C-41.4887 25.0468 -41.4954 24.9252 -41.5 24.803L-31.4221 14.6273C-31.3011 14.632 -31.1807 14.6388 -31.0608 14.6478L-41.4797 25.1678Z" fill="white"/>
<path d="M-41.1621 27.0263C-41.1897 26.9248 -41.2157 26.8226 -41.2401 26.7198L-29.5237 14.8898C-29.4219 14.9144 -29.3207 14.9407 -29.2202 14.9685L-41.1621 27.0263Z" fill="white"/>
<path d="M-40.5786 28.6164C-40.6196 28.5288 -40.6594 28.4406 -40.6979 28.3516L-27.9076 15.4372C-27.8195 15.4761 -27.7321 15.5163 -27.6454 15.5577L-40.5786 28.6164Z" fill="white"/>
<path d="M-39.7886 29.9979C-39.8407 29.9218 -39.8918 29.845 -39.9418 29.7674L-26.5054 16.2007C-26.4286 16.2512 -26.3524 16.3027 -26.2771 16.3554L-39.7886 29.9979Z" fill="white"/>
<path d="M-38.8195 31.1987C-38.8816 31.133 -38.9429 31.0664 -39.0032 30.999L-25.2857 17.1483C-25.2189 17.2092 -25.153 17.2711 -25.0879 17.3338L-38.8195 31.1987Z" fill="white"/>
<path d="M-37.6806 32.228C-37.7527 32.1725 -37.8239 32.116 -37.8943 32.0585L-24.2363 18.268C-24.1794 18.3391 -24.1234 18.411 -24.0685 18.4838L-37.6806 32.228Z" fill="white"/>
<path d="M-36.367 33.0808C-36.4496 33.0362 -36.5315 32.9905 -36.6126 32.9436L-23.3597 19.5621C-23.3133 19.6441 -23.268 19.7268 -23.2238 19.8102L-36.367 33.0808Z" fill="white"/>
<path d="M-34.8574 33.7358C-34.9523 33.704 -35.0465 33.6707 -35.1401 33.636L-22.6739 21.0489C-22.6396 21.1434 -22.6067 21.2386 -22.5752 21.3344L-34.8574 33.7358Z" fill="white"/>
<path d="M-33.1043 34.1449C-33.2152 34.1298 -33.3256 34.1128 -33.4354 34.094L-22.2204 22.7702C-22.2017 22.881 -22.1849 22.9925 -22.17 23.1045L-33.1043 34.1449Z" fill="white"/>
<path d="M-31.0016 34.2011C-31.1361 34.2121 -31.2715 34.2203 -31.4075 34.2256L-22.09 24.8178C-22.0953 24.9551 -22.1035 25.0917 -22.1143 25.2276L-31.0016 34.2011Z" fill="white"/>
<path d="M-28.1805 33.5318C-28.3771 33.6115 -28.577 33.6848 -28.7797 33.7516L-22.5595 27.471C-22.6256 27.6758 -22.6983 27.8775 -22.7772 28.0761L-28.1805 33.5318Z" fill="white"/>
</g>
</g>
<defs>
<linearGradient id="paint0_linear_515_288" x1="0.5" y1="28" x2="118.5" y2="28" gradientUnits="userSpaceOnUse">
<stop stop-color="#FEB500"/>
<stop offset="1" stop-color="#FF9900"/>
</linearGradient>
<clipPath id="clip0_515_288">
<rect x="0.5" width="118" height="56" rx="6" fill="white"/>
</clipPath>
</defs>
</svg>
