<svg width="161" height="56" viewBox="0 0 161 56" fill="none" xmlns="http://www.w3.org/2000/svg">
<g clip-path="url(#clip0_514_259)">
<rect x="0.5" width="160" height="56" rx="6" fill="url(#paint0_linear_514_259)"/>
<path opacity="0.05" d="M40.5242 0H160.5C160.5 0 159.157 42.7887 108.469 26.1632C57.781 9.53779 39.7431 37.5649 40.5242 0Z" fill="white"/>
<path opacity="0.1" d="M0.532227 0H160.5C160.5 0 133.084 37.6255 65.5 21C-2.08382 4.37454 6 69 0.532227 0Z" fill="white"/>
<path opacity="0.1" d="M0.516439 56H82.4999C82.4999 56 47.5001 46 30 33.5C12.4999 21 -0.0172766 18.4351 0.516439 56Z" fill="white"/>
<path d="M22.5 38C22.5 38.5523 22.9477 39 23.5 39C24.0523 39 24.5 38.5523 24.5 38H22.5ZM32.5 38C32.5 38.5523 32.9477 39 33.5 39C34.0523 39 34.5 38.5523 34.5 38H32.5ZM16.5 29C16.5 29.5523 16.9477 30 17.5 30C18.0523 30 18.5 29.5523 18.5 29H16.5ZM38.5 29C38.5 29.5523 38.9477 30 39.5 30C40.0523 30 40.5 29.5523 40.5 29H38.5ZM23.0219 26.414C23.4975 26.6947 24.1107 26.5367 24.3914 26.0611C24.6721 25.5854 24.5141 24.9723 24.0385 24.6916L23.0219 26.414ZM32.9615 24.6916C32.4859 24.9723 32.3279 25.5854 32.6086 26.0611C32.8893 26.5367 33.5025 26.6947 33.9781 26.414L32.9615 24.6916ZM30.5 27C30.5 28.1046 29.6046 29 28.5 29V31C30.7091 31 32.5 29.2091 32.5 27H30.5ZM28.5 29C27.3954 29 26.5 28.1046 26.5 27H24.5C24.5 29.2091 26.2909 31 28.5 31V29ZM26.5 27C26.5 25.8954 27.3954 25 28.5 25V23C26.2909 23 24.5 24.7909 24.5 27H26.5ZM28.5 25C29.6046 25 30.5 25.8954 30.5 27H32.5C32.5 24.7909 30.7091 23 28.5 23V25ZM24.5 38C24.5 35.7909 26.2909 34 28.5 34V32C25.1863 32 22.5 34.6863 22.5 38H24.5ZM28.5 34C30.7091 34 32.5 35.7909 32.5 38H34.5C34.5 34.6863 31.8137 32 28.5 32V34ZM18.5 29C18.5 27.3431 19.8431 26 21.5 26V24C18.7386 24 16.5 26.2386 16.5 29H18.5ZM35.5 26C37.1569 26 38.5 27.3431 38.5 29H40.5C40.5 26.2386 38.2614 24 35.5 24V26ZM22.5 20C22.5 20.5523 22.0523 21 21.5 21V23C23.1569 23 24.5 21.6569 24.5 20H22.5ZM21.5 21C20.9477 21 20.5 20.5523 20.5 20H18.5C18.5 21.6569 19.8431 23 21.5 23V21ZM20.5 20C20.5 19.4477 20.9477 19 21.5 19V17C19.8431 17 18.5 18.3431 18.5 20H20.5ZM21.5 19C22.0523 19 22.5 19.4477 22.5 20H24.5C24.5 18.3431 23.1569 17 21.5 17V19ZM36.5 20C36.5 20.5523 36.0523 21 35.5 21V23C37.1569 23 38.5 21.6569 38.5 20H36.5ZM35.5 21C34.9477 21 34.5 20.5523 34.5 20H32.5C32.5 21.6569 33.8431 23 35.5 23V21ZM34.5 20C34.5 19.4477 34.9477 19 35.5 19V17C33.8431 17 32.5 18.3431 32.5 20H34.5ZM35.5 19C36.0523 19 36.5 19.4477 36.5 20H38.5C38.5 18.3431 37.1569 17 35.5 17V19ZM21.5 26C22.0574 26 22.5765 26.1511 23.0219 26.414L24.0385 24.6916C23.2936 24.252 22.4247 24 21.5 24V26ZM33.9781 26.414C34.4235 26.1511 34.9426 26 35.5 26V24C34.5753 24 33.7064 24.252 32.9615 24.6916L33.9781 26.414Z" fill="white"/>
<path d="M55.8608 15.7896C55.8608 16.2681 55.7681 16.6831 55.5825 17.0347C55.397 17.3862 55.1382 17.6743 54.8062 17.8989C54.4741 18.1187 54.0835 18.2725 53.6343 18.3604V18.4189C54.4839 18.5264 55.1211 18.7998 55.5459 19.2393C55.9756 19.6787 56.1904 20.2549 56.1904 20.9678C56.1904 21.5879 56.0439 22.1372 55.751 22.6157C55.4629 23.0942 55.0186 23.4702 54.418 23.7437C53.8223 24.0122 53.0581 24.1465 52.1255 24.1465C51.5591 24.1465 51.0342 24.1001 50.5508 24.0073C50.0723 23.9194 49.6133 23.7705 49.1738 23.5605V22.418C49.6182 22.6377 50.1016 22.811 50.624 22.938C51.1465 23.0601 51.6519 23.1211 52.1401 23.1211C53.1167 23.1211 53.8223 22.9282 54.2568 22.5425C54.6914 22.1519 54.9087 21.6196 54.9087 20.9458C54.9087 20.4819 54.7866 20.1084 54.5425 19.8252C54.3032 19.5371 53.9565 19.3271 53.5024 19.1953C53.0532 19.0586 52.5112 18.9902 51.8765 18.9902H50.8071V17.9502H51.8838C52.4648 17.9502 52.958 17.8647 53.3633 17.6938C53.7686 17.5229 54.0762 17.2837 54.2861 16.9761C54.501 16.6636 54.6084 16.2949 54.6084 15.8701C54.6084 15.3281 54.4277 14.9106 54.0664 14.6177C53.7051 14.3198 53.2144 14.1709 52.5942 14.1709C52.2134 14.1709 51.8667 14.21 51.5542 14.2881C51.2417 14.3662 50.9487 14.4736 50.6753 14.6104C50.4019 14.7471 50.1284 14.9058 49.855 15.0864L49.2397 14.2515C49.6304 13.9487 50.1064 13.6875 50.668 13.4678C51.2295 13.248 51.8667 13.1382 52.5796 13.1382C53.6733 13.1382 54.4937 13.3872 55.0405 13.8853C55.5874 14.3833 55.8608 15.0181 55.8608 15.7896ZM66.3198 13.292L62.3354 24H61.1343L65.126 13.292H66.3198ZM79.5693 24H78.0972L74.2373 18.7925L73.0947 19.8179V24H71.8496V13.292H73.0947V18.6313C73.373 18.314 73.6587 17.999 73.9517 17.6865C74.2446 17.3691 74.5352 17.0493 74.8232 16.7271L77.9507 13.292H79.4082L75.1455 17.9355L79.5693 24ZM82.0669 12.6035V16.0093C82.0669 16.2046 82.062 16.4023 82.0522 16.6025C82.0425 16.7979 82.0254 16.9785 82.001 17.1445H82.0815C82.2476 16.8613 82.4575 16.6245 82.7114 16.4341C82.9702 16.2388 83.2632 16.0923 83.5903 15.9946C83.9175 15.8921 84.2642 15.8408 84.6304 15.8408C85.2749 15.8408 85.812 15.9434 86.2417 16.1484C86.6763 16.3535 87.001 16.6709 87.2158 17.1006C87.4355 17.5303 87.5454 18.0869 87.5454 18.7705V24H86.3442V18.8511C86.3442 18.1821 86.1904 17.6816 85.8828 17.3496C85.5801 17.0176 85.1138 16.8516 84.4839 16.8516C83.8882 16.8516 83.4121 16.9663 83.0557 17.1958C82.7041 17.4204 82.4502 17.7524 82.2939 18.1919C82.1426 18.6313 82.0669 19.1685 82.0669 19.8032V24H80.8511V12.6035H82.0669ZM96.9717 19.9717C96.9717 20.6309 96.8862 21.2192 96.7153 21.7368C96.5444 22.2544 96.2979 22.6914 95.9756 23.0479C95.6533 23.4043 95.2627 23.6777 94.8037 23.8682C94.3496 24.0537 93.8345 24.1465 93.2583 24.1465C92.7212 24.1465 92.228 24.0537 91.7788 23.8682C91.3345 23.6777 90.9487 23.4043 90.6216 23.0479C90.2993 22.6914 90.0479 22.2544 89.8672 21.7368C89.6914 21.2192 89.6035 20.6309 89.6035 19.9717C89.6035 19.0928 89.7524 18.3457 90.0503 17.7305C90.3481 17.1104 90.7729 16.6392 91.3247 16.3169C91.8813 15.9897 92.543 15.8262 93.3096 15.8262C94.042 15.8262 94.6816 15.9897 95.2285 16.3169C95.7803 16.644 96.2075 17.1177 96.5103 17.7378C96.8179 18.353 96.9717 19.0977 96.9717 19.9717ZM90.8633 19.9717C90.8633 20.6162 90.9487 21.1753 91.1196 21.6489C91.2905 22.1226 91.5542 22.4888 91.9106 22.7476C92.2671 23.0063 92.7261 23.1357 93.2876 23.1357C93.8442 23.1357 94.3008 23.0063 94.6572 22.7476C95.0186 22.4888 95.2847 22.1226 95.4556 21.6489C95.6265 21.1753 95.7119 20.6162 95.7119 19.9717C95.7119 19.332 95.6265 18.7803 95.4556 18.3164C95.2847 17.8477 95.021 17.4863 94.6646 17.2324C94.3081 16.9785 93.8467 16.8516 93.2803 16.8516C92.4453 16.8516 91.8325 17.1274 91.4419 17.6792C91.0562 18.231 90.8633 18.9951 90.8633 19.9717ZM93.9175 12.5156C94.0396 12.7354 94.2104 12.9844 94.4302 13.2627C94.6499 13.5361 94.8818 13.8047 95.126 14.0684C95.3701 14.332 95.5874 14.5591 95.7778 14.7495V14.9106H94.9136C94.6499 14.7397 94.3789 14.5298 94.1006 14.2808C93.8223 14.0317 93.5513 13.7729 93.2876 13.5044C93.0239 13.7729 92.7554 14.0317 92.4819 14.2808C92.2134 14.5249 91.9473 14.7349 91.6836 14.9106H90.8486V14.7495C91.0342 14.5542 91.2441 14.3247 91.4785 14.061C91.7178 13.7974 91.9448 13.5288 92.1597 13.2554C92.3794 12.9819 92.5527 12.7354 92.6797 12.5156H93.9175ZM102.875 15.8262C103.827 15.8262 104.547 16.0605 105.036 16.5293C105.524 16.9932 105.768 17.7402 105.768 18.7705V24H104.567V18.8511C104.567 18.1821 104.413 17.6816 104.105 17.3496C103.803 17.0176 103.336 16.8516 102.707 16.8516C101.818 16.8516 101.193 17.103 100.832 17.606C100.47 18.1089 100.29 18.8389 100.29 19.7959V24H99.0737V15.9727H100.055L100.238 17.1299H100.304C100.475 16.8467 100.692 16.6099 100.956 16.4194C101.22 16.2241 101.515 16.0776 101.842 15.98C102.169 15.8774 102.514 15.8262 102.875 15.8262ZM110.514 27.6035C109.459 27.6035 108.646 27.4058 108.075 27.0103C107.504 26.6196 107.218 26.0703 107.218 25.3623C107.218 24.8594 107.377 24.4297 107.694 24.0732C108.017 23.7168 108.461 23.48 109.027 23.3628C108.817 23.2651 108.637 23.1187 108.485 22.9233C108.339 22.728 108.266 22.5034 108.266 22.2495C108.266 21.9565 108.346 21.7002 108.507 21.4805C108.673 21.2559 108.925 21.041 109.262 20.8359C108.842 20.665 108.5 20.377 108.236 19.9717C107.978 19.5615 107.848 19.0854 107.848 18.5435C107.848 17.9673 107.968 17.4766 108.207 17.0713C108.446 16.6611 108.793 16.3486 109.247 16.1338C109.701 15.9189 110.25 15.8115 110.895 15.8115C111.037 15.8115 111.178 15.8188 111.32 15.8335C111.466 15.8433 111.605 15.8604 111.737 15.8848C111.869 15.9043 111.984 15.9287 112.082 15.958H114.835V16.7417L113.356 16.9248C113.502 17.1152 113.625 17.3447 113.722 17.6133C113.82 17.8818 113.869 18.1797 113.869 18.5068C113.869 19.3076 113.598 19.9448 113.056 20.4185C112.514 20.8872 111.769 21.1216 110.822 21.1216C110.597 21.1216 110.368 21.1021 110.133 21.063C109.894 21.1948 109.711 21.3413 109.584 21.5024C109.462 21.6636 109.401 21.8491 109.401 22.0591C109.401 22.2153 109.447 22.3398 109.54 22.4326C109.638 22.5254 109.777 22.5938 109.958 22.6377C110.138 22.6768 110.355 22.6963 110.609 22.6963H112.023C112.897 22.6963 113.566 22.8794 114.03 23.2456C114.499 23.6118 114.733 24.1465 114.733 24.8496C114.733 25.7383 114.372 26.4194 113.649 26.8931C112.926 27.3667 111.881 27.6035 110.514 27.6035ZM110.551 26.6514C111.215 26.6514 111.764 26.583 112.199 26.4463C112.638 26.3145 112.965 26.1216 113.18 25.8677C113.4 25.6187 113.51 25.3208 113.51 24.9741C113.51 24.6519 113.437 24.4077 113.29 24.2417C113.144 24.0806 112.929 23.9731 112.646 23.9194C112.362 23.8608 112.016 23.8315 111.605 23.8315H110.214C109.853 23.8315 109.538 23.8877 109.269 24C109 24.1123 108.793 24.2783 108.646 24.498C108.505 24.7178 108.434 24.9912 108.434 25.3184C108.434 25.7529 108.617 26.0825 108.983 26.3071C109.35 26.5366 109.872 26.6514 110.551 26.6514ZM110.866 20.2354C111.447 20.2354 111.884 20.0889 112.177 19.7959C112.47 19.5029 112.616 19.0757 112.616 18.5142C112.616 17.9136 112.467 17.4644 112.169 17.1665C111.872 16.8638 111.432 16.7124 110.851 16.7124C110.294 16.7124 109.865 16.8687 109.562 17.1812C109.264 17.4888 109.115 17.9404 109.115 18.5361C109.115 19.083 109.267 19.5029 109.569 19.7959C109.872 20.0889 110.304 20.2354 110.866 20.2354ZM122.555 27.6035C121.5 27.6035 120.688 27.4058 120.116 27.0103C119.545 26.6196 119.259 26.0703 119.259 25.3623C119.259 24.8594 119.418 24.4297 119.735 24.0732C120.058 23.7168 120.502 23.48 121.068 23.3628C120.858 23.2651 120.678 23.1187 120.526 22.9233C120.38 22.728 120.307 22.5034 120.307 22.2495C120.307 21.9565 120.387 21.7002 120.548 21.4805C120.714 21.2559 120.966 21.041 121.303 20.8359C120.883 20.665 120.541 20.377 120.277 19.9717C120.019 19.5615 119.889 19.0854 119.889 18.5435C119.889 17.9673 120.009 17.4766 120.248 17.0713C120.487 16.6611 120.834 16.3486 121.288 16.1338C121.742 15.9189 122.292 15.8115 122.936 15.8115C123.078 15.8115 123.219 15.8188 123.361 15.8335C123.507 15.8433 123.646 15.8604 123.778 15.8848C123.91 15.9043 124.025 15.9287 124.123 15.958H126.876V16.7417L125.397 16.9248C125.543 17.1152 125.666 17.3447 125.763 17.6133C125.861 17.8818 125.91 18.1797 125.91 18.5068C125.91 19.3076 125.639 19.9448 125.097 20.4185C124.555 20.8872 123.81 21.1216 122.863 21.1216C122.638 21.1216 122.409 21.1021 122.174 21.063C121.935 21.1948 121.752 21.3413 121.625 21.5024C121.503 21.6636 121.442 21.8491 121.442 22.0591C121.442 22.2153 121.488 22.3398 121.581 22.4326C121.679 22.5254 121.818 22.5938 121.999 22.6377C122.179 22.6768 122.396 22.6963 122.65 22.6963H124.064C124.938 22.6963 125.607 22.8794 126.071 23.2456C126.54 23.6118 126.774 24.1465 126.774 24.8496C126.774 25.7383 126.413 26.4194 125.69 26.8931C124.967 27.3667 123.922 27.6035 122.555 27.6035ZM122.592 26.6514C123.256 26.6514 123.805 26.583 124.24 26.4463C124.679 26.3145 125.006 26.1216 125.221 25.8677C125.441 25.6187 125.551 25.3208 125.551 24.9741C125.551 24.6519 125.478 24.4077 125.331 24.2417C125.185 24.0806 124.97 23.9731 124.687 23.9194C124.403 23.8608 124.057 23.8315 123.646 23.8315H122.255C121.894 23.8315 121.579 23.8877 121.31 24C121.042 24.1123 120.834 24.2783 120.688 24.498C120.546 24.7178 120.475 24.9912 120.475 25.3184C120.475 25.7529 120.658 26.0825 121.024 26.3071C121.391 26.5366 121.913 26.6514 122.592 26.6514ZM122.907 20.2354C123.488 20.2354 123.925 20.0889 124.218 19.7959C124.511 19.5029 124.657 19.0757 124.657 18.5142C124.657 17.9136 124.508 17.4644 124.21 17.1665C123.913 16.8638 123.473 16.7124 122.892 16.7124C122.335 16.7124 121.906 16.8687 121.603 17.1812C121.305 17.4888 121.156 17.9404 121.156 18.5361C121.156 19.083 121.308 19.5029 121.61 19.7959C121.913 20.0889 122.345 20.2354 122.907 20.2354ZM129.674 15.9727V24H128.458V15.9727H129.674ZM129.081 12.9697C129.281 12.9697 129.452 13.0356 129.594 13.1675C129.74 13.2944 129.813 13.4946 129.813 13.7681C129.813 14.0366 129.74 14.2368 129.594 14.3687C129.452 14.5005 129.281 14.5664 129.081 14.5664C128.871 14.5664 128.695 14.5005 128.554 14.3687C128.417 14.2368 128.349 14.0366 128.349 13.7681C128.349 13.4946 128.417 13.2944 128.554 13.1675C128.695 13.0356 128.871 12.9697 129.081 12.9697ZM139.174 19.9717C139.174 20.8506 139.022 21.6025 138.72 22.2275C138.422 22.8477 137.995 23.3237 137.438 23.6558C136.886 23.9829 136.227 24.1465 135.46 24.1465C134.748 24.1465 134.115 23.9829 133.563 23.6558C133.012 23.3237 132.58 22.8477 132.267 22.2275C131.959 21.6025 131.806 20.8506 131.806 19.9717C131.806 18.6533 132.135 17.6328 132.794 16.9102C133.458 16.1875 134.364 15.8262 135.512 15.8262C136.044 15.8262 136.53 15.9165 136.969 16.0972C137.414 16.2778 137.794 16.5342 138.112 16.8662C138.4 16.7734 138.617 16.6294 138.764 16.4341C138.91 16.2339 139.008 15.9897 139.057 15.7017C139.105 15.4136 139.13 15.0938 139.13 14.7422H140.419L140.521 14.896C140.443 15.355 140.329 15.7627 140.177 16.1191C140.026 16.4756 139.826 16.7783 139.577 17.0273C139.333 17.2764 139.025 17.4717 138.654 17.6133C138.82 17.9307 138.947 18.2871 139.035 18.6826C139.127 19.0781 139.174 19.5078 139.174 19.9717ZM133.065 19.9717C133.065 20.6553 133.148 21.2339 133.314 21.7075C133.485 22.1763 133.749 22.5327 134.105 22.7769C134.467 23.0161 134.928 23.1357 135.49 23.1357C136.056 23.1357 136.518 23.0137 136.874 22.7695C137.23 22.5254 137.492 22.1689 137.658 21.7002C137.829 21.2266 137.914 20.6504 137.914 19.9717C137.914 19.2979 137.829 18.729 137.658 18.2651C137.492 17.8013 137.23 17.4497 136.874 17.2104C136.518 16.9712 136.054 16.8516 135.482 16.8516C134.643 16.8516 134.03 17.1177 133.644 17.6499C133.258 18.1772 133.065 18.9512 133.065 19.9717ZM137.614 12.5083V12.6548C137.516 12.7964 137.382 12.9673 137.211 13.1675C137.045 13.3628 136.859 13.5703 136.654 13.79C136.449 14.0049 136.242 14.21 136.032 14.4053C135.827 14.6006 135.636 14.769 135.46 14.9106H134.647V14.7349C134.804 14.5493 134.975 14.3271 135.16 14.0684C135.346 13.8047 135.526 13.5361 135.702 13.2627C135.878 12.9844 136.024 12.7329 136.142 12.5083H137.614ZM142.638 15.9727V24H141.422V15.9727H142.638ZM142.045 12.9697C142.245 12.9697 142.416 13.0356 142.558 13.1675C142.704 13.2944 142.777 13.4946 142.777 13.7681C142.777 14.0366 142.704 14.2368 142.558 14.3687C142.416 14.5005 142.245 14.5664 142.045 14.5664C141.835 14.5664 141.659 14.5005 141.518 14.3687C141.381 14.2368 141.312 14.0366 141.312 13.7681C141.312 13.4946 141.381 13.2944 141.518 13.1675C141.659 13.0356 141.835 12.9697 142.045 12.9697ZM50.9976 32.6035V36.0093C50.9976 36.2046 50.9927 36.4023 50.9829 36.6025C50.9731 36.7979 50.9561 36.9785 50.9316 37.1445H51.0122C51.1782 36.8613 51.3882 36.6245 51.6421 36.4341C51.9009 36.2388 52.1938 36.0923 52.521 35.9946C52.8481 35.8921 53.1948 35.8408 53.561 35.8408C54.2056 35.8408 54.7427 35.9434 55.1724 36.1484C55.6069 36.3535 55.9316 36.6709 56.1465 37.1006C56.3662 37.5303 56.4761 38.0869 56.4761 38.7705V44H55.2749V38.8511C55.2749 38.1821 55.1211 37.6816 54.8135 37.3496C54.5107 37.0176 54.0444 36.8516 53.4146 36.8516C52.8188 36.8516 52.3428 36.9663 51.9863 37.1958C51.6348 37.4204 51.3809 37.7524 51.2246 38.1919C51.0732 38.6313 50.9976 39.1685 50.9976 39.8032V44H49.7817V32.6035H50.9976ZM61.9839 35.8408C62.9409 35.8408 63.6514 36.0557 64.1152 36.4854C64.5791 36.915 64.811 37.6011 64.811 38.5435V44H63.9248L63.6904 42.8135H63.6318C63.4072 43.1064 63.1729 43.353 62.9287 43.5532C62.6846 43.7485 62.4014 43.8975 62.0791 44C61.7617 44.0977 61.3711 44.1465 60.9072 44.1465C60.4189 44.1465 59.9844 44.061 59.6035 43.8901C59.2275 43.7192 58.9297 43.4604 58.71 43.1138C58.4951 42.7671 58.3877 42.3276 58.3877 41.7954C58.3877 40.9946 58.7051 40.3794 59.3398 39.9497C59.9746 39.52 60.9414 39.2856 62.2402 39.2466L63.6245 39.188V38.6973C63.6245 38.0039 63.4756 37.5181 63.1777 37.2397C62.8799 36.9614 62.46 36.8223 61.918 36.8223C61.498 36.8223 61.0977 36.8833 60.7168 37.0054C60.3359 37.1274 59.9746 37.2715 59.6328 37.4375L59.2593 36.5146C59.6206 36.3291 60.0356 36.1704 60.5044 36.0386C60.9731 35.9067 61.4663 35.8408 61.9839 35.8408ZM63.6099 40.0449L62.3867 40.0962C61.3857 40.1353 60.6802 40.2988 60.27 40.5869C59.8599 40.875 59.6548 41.2827 59.6548 41.8101C59.6548 42.269 59.7939 42.6084 60.0723 42.8281C60.3506 43.0479 60.7192 43.1577 61.1782 43.1577C61.8911 43.1577 62.4746 42.96 62.9287 42.5645C63.3828 42.1689 63.6099 41.5757 63.6099 40.7847V40.0449ZM61.8594 46.5708C61.6543 46.5708 61.481 46.5049 61.3394 46.373C61.1978 46.2412 61.127 46.041 61.127 45.7725C61.127 45.499 61.1978 45.2964 61.3394 45.1646C61.481 45.0376 61.6543 44.9741 61.8594 44.9741C62.0693 44.9741 62.2451 45.0376 62.3867 45.1646C62.5283 45.2964 62.5991 45.499 62.5991 45.7725C62.5991 46.041 62.5283 46.2412 62.3867 46.373C62.2451 46.5049 62.0693 46.5708 61.8594 46.5708ZM71.1172 35.8262C72.0693 35.8262 72.7896 36.0605 73.2778 36.5293C73.7661 36.9932 74.0103 37.7402 74.0103 38.7705V44H72.8091V38.8511C72.8091 38.1821 72.6553 37.6816 72.3477 37.3496C72.0449 37.0176 71.5786 36.8516 70.9487 36.8516C70.0601 36.8516 69.4351 37.103 69.0737 37.606C68.7124 38.1089 68.5317 38.8389 68.5317 39.7959V44H67.3159V35.9727H68.2974L68.4805 37.1299H68.5464C68.7173 36.8467 68.9346 36.6099 69.1982 36.4194C69.4619 36.2241 69.7573 36.0776 70.0845 35.98C70.4116 35.8774 70.7559 35.8262 71.1172 35.8262ZM83.8833 44H82.6309V34.3906H79.2617V33.292H87.2378V34.3906H83.8833V44ZM89.8892 32.6035V36.0093C89.8892 36.2046 89.8843 36.4023 89.8745 36.6025C89.8647 36.7979 89.8477 36.9785 89.8232 37.1445H89.9038C90.0698 36.8613 90.2798 36.6245 90.5337 36.4341C90.7925 36.2388 91.0854 36.0923 91.4126 35.9946C91.7397 35.8921 92.0864 35.8408 92.4526 35.8408C93.0972 35.8408 93.6343 35.9434 94.064 36.1484C94.4985 36.3535 94.8232 36.6709 95.0381 37.1006C95.2578 37.5303 95.3677 38.0869 95.3677 38.7705V44H94.1665V38.8511C94.1665 38.1821 94.0127 37.6816 93.7051 37.3496C93.4023 37.0176 92.936 36.8516 92.3062 36.8516C91.7104 36.8516 91.2344 36.9663 90.8779 37.1958C90.5264 37.4204 90.2725 37.7524 90.1162 38.1919C89.9648 38.6313 89.8892 39.1685 89.8892 39.8032V44H88.6733V32.6035H89.8892ZM99.0884 44H97.8726V35.9727H99.0884V44ZM100.604 32.5083V32.6548C100.507 32.7964 100.373 32.9673 100.202 33.1675C100.036 33.3628 99.8501 33.5703 99.645 33.79C99.4399 34.0049 99.2324 34.21 99.0225 34.4053C98.8174 34.6006 98.627 34.769 98.4512 34.9106H97.6382V34.7349C97.7944 34.5493 97.9653 34.3271 98.1509 34.0684C98.3364 33.8047 98.5171 33.5361 98.6929 33.2627C98.8687 32.9844 99.0151 32.7329 99.1323 32.5083H100.604ZM110.756 41.8027C110.756 42.3154 110.626 42.7476 110.368 43.0991C110.114 43.4458 109.748 43.707 109.269 43.8828C108.795 44.0586 108.229 44.1465 107.57 44.1465C107.008 44.1465 106.522 44.1025 106.112 44.0146C105.702 43.9268 105.343 43.8022 105.036 43.6411V42.5205C105.363 42.6816 105.753 42.8281 106.208 42.96C106.662 43.0918 107.125 43.1577 107.599 43.1577C108.292 43.1577 108.795 43.0454 109.108 42.8208C109.42 42.5962 109.577 42.291 109.577 41.9053C109.577 41.6855 109.513 41.4927 109.386 41.3267C109.264 41.1558 109.057 40.9922 108.764 40.8359C108.471 40.6748 108.065 40.499 107.548 40.3086C107.035 40.1133 106.591 39.9204 106.215 39.73C105.844 39.5347 105.556 39.2979 105.351 39.0195C105.15 38.7412 105.05 38.3799 105.05 37.9355C105.05 37.2568 105.324 36.7368 105.871 36.3755C106.422 36.0093 107.145 35.8262 108.039 35.8262C108.522 35.8262 108.974 35.875 109.394 35.9727C109.818 36.0654 110.214 36.1924 110.58 36.3535L110.17 37.3276C109.838 37.186 109.484 37.0664 109.108 36.9688C108.732 36.8711 108.349 36.8223 107.958 36.8223C107.396 36.8223 106.964 36.915 106.662 37.1006C106.364 37.2861 106.215 37.54 106.215 37.8623C106.215 38.1113 106.283 38.3164 106.42 38.4775C106.562 38.6387 106.786 38.79 107.094 38.9316C107.401 39.0732 107.807 39.2393 108.31 39.4297C108.812 39.6152 109.247 39.8081 109.613 40.0083C109.979 40.2036 110.26 40.4429 110.456 40.7261C110.656 41.0044 110.756 41.3633 110.756 41.8027ZM113.927 35.9727V44H112.711V35.9727H113.927ZM113.334 32.9697C113.534 32.9697 113.705 33.0356 113.847 33.1675C113.993 33.2944 114.066 33.4946 114.066 33.7681C114.066 34.0366 113.993 34.2368 113.847 34.3687C113.705 34.5005 113.534 34.5664 113.334 34.5664C113.124 34.5664 112.948 34.5005 112.807 34.3687C112.67 34.2368 112.602 34.0366 112.602 33.7681C112.602 33.4946 112.67 33.2944 112.807 33.1675C112.948 33.0356 113.124 32.9697 113.334 32.9697ZM120.307 35.8262C121.259 35.8262 121.979 36.0605 122.467 36.5293C122.956 36.9932 123.2 37.7402 123.2 38.7705V44H121.999V38.8511C121.999 38.1821 121.845 37.6816 121.537 37.3496C121.234 37.0176 120.768 36.8516 120.138 36.8516C119.25 36.8516 118.625 37.103 118.263 37.606C117.902 38.1089 117.721 38.8389 117.721 39.7959V44H116.505V35.9727H117.487L117.67 37.1299H117.736C117.907 36.8467 118.124 36.6099 118.388 36.4194C118.651 36.2241 118.947 36.0776 119.274 35.98C119.601 35.8774 119.945 35.8262 120.307 35.8262ZM126.92 32.6035V36.0093C126.92 36.2046 126.916 36.4023 126.906 36.6025C126.896 36.7979 126.879 36.9785 126.854 37.1445H126.935C127.101 36.8613 127.311 36.6245 127.565 36.4341C127.824 36.2388 128.117 36.0923 128.444 35.9946C128.771 35.8921 129.118 35.8408 129.484 35.8408C130.128 35.8408 130.666 35.9434 131.095 36.1484C131.53 36.3535 131.854 36.6709 132.069 37.1006C132.289 37.5303 132.399 38.0869 132.399 38.7705V44H131.198V38.8511C131.198 38.1821 131.044 37.6816 130.736 37.3496C130.434 37.0176 129.967 36.8516 129.337 36.8516C128.742 36.8516 128.266 36.9663 127.909 37.1958C127.558 37.4204 127.304 37.7524 127.147 38.1919C126.996 38.6313 126.92 39.1685 126.92 39.8032V44H125.705V32.6035H126.92Z" fill="white"/>
<g opacity="0.4">
<path d="M126.3 -17.5502C125.967 -17.4758 125.638 -17.3926 125.312 -17.3008L112.225 -4.08638C112.134 -3.75736 112.051 -3.42485 111.977 -3.08892L126.3 -17.5502Z" fill="white"/>
<path d="M111.539 1.58553C111.535 1.40587 111.532 1.22557 111.532 1.04469C111.532 0.97766 111.532 0.910759 111.533 0.843921L130.195 -17.999C130.261 -17.9997 130.327 -18 130.394 -18C130.573 -18 130.751 -17.9975 130.929 -17.9924L111.539 1.58553Z" fill="white"/>
<path d="M112.013 5.3391C111.967 5.13478 111.924 4.9291 111.884 4.72232L134.036 -17.6452C134.241 -17.6047 134.445 -17.5609 134.647 -17.5139L112.013 5.3391Z" fill="white"/>
<path d="M113.045 8.53C112.97 8.35448 112.899 8.1776 112.829 7.99943L137.282 -16.6902C137.458 -16.6202 137.633 -16.5477 137.807 -16.4726L113.045 8.53Z" fill="white"/>
<path d="M114.496 11.2972C114.399 11.1447 114.304 10.9907 114.212 10.8354L140.09 -15.2939C140.244 -15.2006 140.397 -15.1052 140.548 -15.0076L114.496 11.2972Z" fill="white"/>
<path d="M116.303 13.7048C116.186 13.5728 116.072 13.4391 115.959 13.3038L142.535 -13.5303C142.669 -13.4164 142.801 -13.3006 142.932 -13.1831L116.303 13.7048Z" fill="white"/>
<path d="M118.441 15.7779C118.305 15.6656 118.171 15.5515 118.039 15.4355L144.646 -11.4298C144.761 -11.2961 144.874 -11.1609 144.985 -11.024L118.441 15.7779Z" fill="white"/>
<path d="M120.914 17.5129C120.758 17.4214 120.604 17.3277 120.451 17.2318L146.425 -8.99395C146.52 -8.83974 146.613 -8.68404 146.704 -8.52693L120.914 17.5129Z" fill="white"/>
<path d="M123.755 18.8764C123.577 18.8086 123.4 18.7381 123.224 18.6651L147.845 -6.19503C147.917 -6.01744 147.987 -5.83844 148.054 -5.6582L123.755 18.8764Z" fill="white"/>
<path d="M127.042 19.7896C126.835 19.752 126.628 19.711 126.423 19.6667L148.837 -2.96448C148.881 -2.75731 148.921 -2.54892 148.959 -2.3393L127.042 19.7896Z" fill="white"/>
<path d="M130.945 20.0814C130.762 20.0867 130.578 20.0894 130.394 20.0894C130.328 20.0894 130.262 20.089 130.197 20.0883L149.254 0.845986C149.255 0.912178 149.255 0.97837 149.255 1.04469C149.255 1.2308 149.253 1.41621 149.247 1.60103L130.945 20.0814Z" fill="white"/>
<path d="M135.964 19.2451C135.626 19.3504 135.284 19.4464 134.939 19.5329L148.704 5.63364C148.619 5.98281 148.524 6.32823 148.419 6.66953L135.964 19.2451Z" fill="white"/>
<path d="M153.932 41.4922C154.611 40.5959 155.405 39.7937 156.293 39.1082L153.932 41.4922Z" fill="white"/>
<path d="M151.601 46.6668C151.645 46.4488 151.694 46.2329 151.749 46.0191L160.776 36.9039C160.988 36.8488 161.202 36.7991 161.418 36.755L151.601 46.6668Z" fill="white"/>
<path d="M151.362 49.7299C151.355 49.568 151.352 49.4053 151.351 49.2419L163.968 36.5025C164.13 36.5031 164.291 36.5067 164.451 36.5133L151.362 49.7299Z" fill="white"/>
<path d="M151.706 52.2044C151.673 52.0695 151.643 51.9338 151.615 51.7973L166.499 36.7686C166.634 36.797 166.769 36.8275 166.902 36.8603L151.706 52.2044Z" fill="white"/>
<path d="M152.412 54.312C152.362 54.1961 152.313 54.0792 152.266 53.9614L168.642 37.4259C168.759 37.4736 168.875 37.523 168.99 37.5741L152.412 54.312Z" fill="white"/>
<path d="M153.395 56.1409C153.33 56.0401 153.266 55.9384 153.204 55.8357L170.499 38.3731C170.6 38.4362 170.701 38.5007 170.801 38.5666L153.395 56.1409Z" fill="white"/>
<path d="M154.614 57.7318C154.536 57.6446 154.459 57.5563 154.383 57.4669L172.114 39.5633C172.203 39.64 172.29 39.718 172.376 39.7972L154.614 57.7318Z" fill="white"/>
<path d="M156.053 59.1C155.962 59.026 155.872 58.9508 155.783 58.8743L173.508 40.9774C173.584 41.0673 173.658 41.1583 173.732 41.2504L156.053 59.1Z" fill="white"/>
<path d="M157.717 60.2421C157.612 60.182 157.508 60.1205 157.406 60.0574L174.68 42.6156C174.742 42.7193 174.803 42.824 174.863 42.9297L157.717 60.2421Z" fill="white"/>
<path d="M159.627 61.1343C159.507 61.0902 159.388 61.0443 159.27 60.9966L175.61 44.4979C175.657 44.6174 175.703 44.7377 175.746 44.859L159.627 61.1343Z" fill="white"/>
<path d="M161.84 61.7216C161.7 61.698 161.561 61.6721 161.423 61.6439L176.251 46.672C176.279 46.8116 176.305 46.952 176.328 47.0931L161.84 61.7216Z" fill="white"/>
<path d="M164.474 61.8835C164.306 61.8908 164.138 61.8947 163.968 61.8953L176.5 49.2421C176.499 49.4131 176.496 49.5833 176.488 49.7526L164.474 61.8835Z" fill="white"/>
<path d="M167.896 61.2494C167.664 61.3274 167.429 61.3987 167.191 61.4632L176.072 52.4957C176.008 52.7361 175.937 52.9737 175.86 53.2082L167.896 61.2494Z" fill="white"/>
<path d="M56.3148 36.3646C55.678 36.7361 55.0715 37.1546 54.4998 37.6153L52.1718 39.9659C51.7155 40.5431 51.3011 41.1555 50.9331 41.7985L56.3148 36.3646Z" fill="white"/>
<path d="M49.1511 46.8895C49.1882 46.6505 49.2309 46.4134 49.2791 46.1783L60.6526 34.6945C60.8854 34.6458 61.1202 34.6027 61.3569 34.5653L49.1511 46.8895Z" fill="white"/>
<path d="M49.0151 50.3185C49.0016 50.1357 48.9914 49.9521 48.9845 49.7675L64.2073 34.397C64.39 34.404 64.5719 34.4143 64.7529 34.428L49.0151 50.3185Z" fill="white"/>
<path d="M49.4949 53.1257C49.4532 52.9724 49.414 52.8181 49.3771 52.6628L67.0747 34.7935C67.2285 34.8307 67.3813 34.8704 67.5332 34.9124L49.4949 53.1257Z" fill="white"/>
<path d="M50.3763 55.5275C50.3144 55.3952 50.2543 55.2619 50.1961 55.1275L69.5158 35.6204C69.6489 35.6792 69.7809 35.7398 69.9118 35.8024L50.3763 55.5275Z" fill="white"/>
<path d="M51.5696 57.6143C51.4909 57.4993 51.4138 57.3832 51.3382 57.266L71.6337 36.7737C71.7498 36.8499 71.8648 36.9278 71.9786 37.0073L51.5696 57.6143Z" fill="white"/>
<path d="M53.0334 59.4279C52.9396 59.3287 52.8471 59.2281 52.7559 59.1263L73.4761 38.2051C73.577 38.2971 73.6766 38.3905 73.7749 38.4853L53.0334 59.4279Z" fill="white"/>
<path d="M54.7537 60.9827C54.6449 60.8989 54.5373 60.8135 54.4309 60.7267L75.0612 39.8963C75.1471 40.0037 75.2316 40.1124 75.3147 40.2223L54.7537 60.9827Z" fill="white"/>
<path d="M56.738 62.2709C56.6132 62.2035 56.4895 62.1344 56.367 62.0636L76.3852 41.8512C76.4553 41.9749 76.5238 42.0998 76.5905 42.2258L56.738 62.2709Z" fill="white"/>
<path d="M59.0183 63.2601C58.8749 63.2121 58.7325 63.1618 58.5912 63.1095L77.421 44.097C77.4729 44.2397 77.5226 44.3834 77.5702 44.5282L59.0183 63.2601Z" fill="white"/>
<path d="M61.6663 63.8781C61.4987 63.8553 61.332 63.8296 61.1662 63.8012L78.1061 46.697C78.1343 46.8644 78.1597 47.0327 78.1823 47.2019L61.6663 63.8781Z" fill="white"/>
<path d="M64.8424 63.9629C64.6392 63.9795 64.4348 63.9919 64.2294 64L78.303 49.7898C78.2949 49.9973 78.2827 50.2037 78.2662 50.4088L64.8424 63.9629Z" fill="white"/>
<path d="M69.1039 62.9518C68.8068 63.0721 68.505 63.1829 68.1987 63.2838L77.5937 53.7977C77.4938 54.1069 77.384 54.4117 77.2649 54.7116L69.1039 62.9518Z" fill="white"/>
<path d="M-15.6475 15.9302C-16.0692 16.1763 -16.4709 16.4535 -16.8495 16.7587L-18.3891 18.3132C-18.6914 18.6955 -18.9659 19.1011 -19.2096 19.5269L-15.6475 15.9302Z" fill="white"/>
<path d="M-20.3896 22.8976C-20.3651 22.7394 -20.3368 22.5824 -20.3049 22.4268L-12.7755 14.8244C-12.6214 14.7921 -12.4659 14.7636 -12.3092 14.7388L-20.3896 22.8976Z" fill="white"/>
<path d="M-20.4797 25.1678C-20.4887 25.0468 -20.4954 24.9252 -20.5 24.803L-10.4221 14.6273C-10.3011 14.632 -10.1807 14.6388 -10.0608 14.6478L-20.4797 25.1678Z" fill="white"/>
<path d="M-20.1621 27.0263C-20.1897 26.9248 -20.2157 26.8226 -20.2401 26.7198L-8.52373 14.8898C-8.42191 14.9144 -8.32071 14.9407 -8.22016 14.9685L-20.1621 27.0263Z" fill="white"/>
<path d="M-19.5786 28.6164C-19.6196 28.5288 -19.6594 28.4406 -19.6979 28.3516L-6.9076 15.4372C-6.81951 15.4761 -6.7321 15.5163 -6.64539 15.5577L-19.5786 28.6164Z" fill="white"/>
<path d="M-18.7886 29.9979C-18.8407 29.9218 -18.8918 29.845 -18.9418 29.7674L-5.50545 16.2007C-5.42857 16.2512 -5.35245 16.3027 -5.2771 16.3554L-18.7886 29.9979Z" fill="white"/>
<path d="M-17.8195 31.1987C-17.8816 31.133 -17.9429 31.0664 -18.0032 30.999L-4.28569 17.1483C-4.21891 17.2092 -4.15297 17.2711 -4.08789 17.3338L-17.8195 31.1987Z" fill="white"/>
<path d="M-16.6806 32.228C-16.7527 32.1725 -16.8239 32.116 -16.8943 32.0585L-3.2363 18.268C-3.17938 18.3391 -3.12344 18.411 -3.06848 18.4838L-16.6806 32.228Z" fill="white"/>
<path d="M-15.367 33.0808C-15.4496 33.0362 -15.5315 32.9905 -15.6126 32.9436L-2.35973 19.5621C-2.31329 19.6441 -2.26798 19.7268 -2.22382 19.8101L-15.367 33.0808Z" fill="white"/>
<path d="M-13.8574 33.7358C-13.9523 33.704 -14.0465 33.6707 -14.1401 33.636L-1.67395 21.0489C-1.63961 21.1434 -1.60667 21.2386 -1.57516 21.3344L-13.8574 33.7358Z" fill="white"/>
<path d="M-12.1043 34.1449C-12.2152 34.1298 -12.3256 34.1128 -12.4354 34.094L-1.22041 22.7702C-1.20174 22.881 -1.18491 22.9925 -1.16995 23.1045L-12.1043 34.1449Z" fill="white"/>
<path d="M-10.0016 34.2011C-10.1361 34.212 -10.2715 34.2203 -10.4075 34.2256L-1.08999 24.8178C-1.09533 24.9551 -1.10346 25.0917 -1.11433 25.2276L-10.0016 34.2011Z" fill="white"/>
<path d="M-7.1805 33.5318C-7.37714 33.6115 -7.57695 33.6848 -7.7797 33.7516L-1.55949 27.471C-1.62563 27.6758 -1.69827 27.8775 -1.77716 28.0761L-7.1805 33.5318Z" fill="white"/>
</g>
</g>
<defs>
<linearGradient id="paint0_linear_514_259" x1="0.5" y1="28" x2="160.5" y2="28" gradientUnits="userSpaceOnUse">
<stop stop-color="#FEB500"/>
<stop offset="1" stop-color="#FF9900"/>
</linearGradient>
<clipPath id="clip0_514_259">
<rect x="0.5" width="160" height="56" rx="6" fill="white"/>
</clipPath>
</defs>
</svg>
