<svg width="147" height="56" viewBox="0 0 147 56" fill="none" xmlns="http://www.w3.org/2000/svg">
<g clip-path="url(#clip0_514_248)">
<rect x="0.5" width="146" height="56" rx="6" fill="url(#paint0_linear_514_248)"/>
<path opacity="0.05" d="M26.5242 0H146.5C146.5 0 145.157 42.7887 94.4689 26.1632C43.781 9.53779 25.7431 37.5649 26.5242 0Z" fill="white"/>
<path opacity="0.1" d="M0.532227 0H160.5C160.5 0 133.084 37.6255 65.5 21C-2.08382 4.37454 6 69 0.532227 0Z" fill="white"/>
<path opacity="0.1" d="M0.516439 56H82.4999C82.4999 56 47.5001 46 30 33.5C12.4999 21 -0.0172766 18.4351 0.516439 56Z" fill="white"/>
<path d="M36.5 21H37.5C37.5 20.682 37.3488 20.383 37.0927 20.1946C36.8366 20.0061 36.5062 19.9507 36.2026 20.0452L36.5 21ZM36.5 29L36.7974 29.9548C37.2153 29.8246 37.5 29.4377 37.5 29H36.5ZM20.5 39C20.5 39.5523 20.9477 40 21.5 40C22.0523 40 22.5 39.5523 22.5 39H20.5ZM25.5 29L25.3896 28.0061H25.3896L25.5 29ZM32.5 22L32.3896 21.0061L32.5 22ZM25.5 21L25.6104 21.9939H25.6104L25.5 21ZM32.5 30L32.6104 30.9939L32.5 30ZM35.5 21V29H37.5V21H35.5ZM22.5 22V19H20.5V22H22.5ZM22.5 39V30H20.5V39H22.5ZM22.5 30V22H20.5V30H22.5ZM21.5 30C21.7974 30.9548 21.7974 30.9548 21.7973 30.9548C21.7974 30.9548 21.7973 30.9548 21.7974 30.9548C21.7974 30.9548 21.7975 30.9547 21.7976 30.9547C21.7978 30.9546 21.7982 30.9545 21.7988 30.9543C21.7999 30.954 21.8017 30.9534 21.8041 30.9527C21.809 30.9512 21.8164 30.9489 21.8263 30.9458C21.846 30.9397 21.8754 30.9307 21.9136 30.919C21.9898 30.8958 22.1007 30.8622 22.2377 30.8214C22.5122 30.7396 22.8902 30.6295 23.305 30.5153C24.1615 30.2796 25.0874 30.052 25.6104 29.9939L25.3896 28.0061C24.6852 28.0844 23.6111 28.3567 22.7744 28.587C22.3427 28.7058 21.9508 28.82 21.6671 28.9045C21.525 28.9468 21.4097 28.9817 21.3295 29.0062C21.2894 29.0185 21.2581 29.0281 21.2366 29.0347C21.2258 29.038 21.2175 29.0406 21.2118 29.0424C21.209 29.0433 21.2068 29.0439 21.2052 29.0444C21.2045 29.0447 21.2039 29.0449 21.2034 29.045C21.2032 29.0451 21.203 29.0451 21.2029 29.0452C21.2028 29.0452 21.2027 29.0452 21.2027 29.0452C21.2027 29.0452 21.2026 29.0452 21.5 30ZM32.6104 22.9939C33.3148 22.9156 34.3889 22.6433 35.2256 22.413C35.6573 22.2942 36.0492 22.18 36.3329 22.0955C36.475 22.0532 36.5903 22.0183 36.6705 21.9938C36.7106 21.9815 36.7419 21.9719 36.7634 21.9653C36.7742 21.962 36.7825 21.9594 36.7882 21.9576C36.791 21.9567 36.7932 21.9561 36.7948 21.9556C36.7955 21.9553 36.7961 21.9551 36.7966 21.955C36.7968 21.9549 36.797 21.9549 36.7971 21.9548C36.7972 21.9548 36.7973 21.9548 36.7973 21.9548C36.7973 21.9548 36.7974 21.9548 36.5 21C36.2026 20.0452 36.2026 20.0452 36.2027 20.0452C36.2026 20.0452 36.2027 20.0452 36.2026 20.0452C36.2026 20.0452 36.2025 20.0453 36.2024 20.0453C36.2022 20.0454 36.2018 20.0455 36.2012 20.0457C36.2001 20.046 36.1983 20.0466 36.1959 20.0473C36.191 20.0488 36.1836 20.0511 36.1737 20.0542C36.154 20.0603 36.1246 20.0693 36.0864 20.081C36.0102 20.1042 35.8993 20.1378 35.7623 20.1786C35.4878 20.2604 35.1098 20.3705 34.695 20.4847C33.8385 20.7204 32.9126 20.948 32.3896 21.0061L32.6104 22.9939ZM21.5 22C21.7974 22.9548 21.7974 22.9548 21.7973 22.9548C21.7974 22.9548 21.7973 22.9548 21.7974 22.9548C21.7974 22.9548 21.7975 22.9547 21.7976 22.9547C21.7978 22.9546 21.7982 22.9545 21.7988 22.9543C21.7999 22.954 21.8017 22.9534 21.8041 22.9527C21.809 22.9512 21.8164 22.9489 21.8263 22.9458C21.846 22.9397 21.8754 22.9307 21.9136 22.919C21.9898 22.8958 22.1007 22.8622 22.2377 22.8214C22.5122 22.7396 22.8902 22.6295 23.305 22.5153C24.1615 22.2796 25.0874 22.052 25.6104 21.9939L25.3896 20.0061C24.6852 20.0844 23.6111 20.3567 22.7744 20.587C22.3427 20.7058 21.9508 20.82 21.6671 20.9045C21.525 20.9468 21.4097 20.9817 21.3295 21.0062C21.2894 21.0185 21.2581 21.0281 21.2366 21.0347C21.2258 21.038 21.2175 21.0406 21.2118 21.0424C21.209 21.0433 21.2068 21.0439 21.2052 21.0444C21.2045 21.0447 21.2039 21.0449 21.2034 21.045C21.2032 21.0451 21.203 21.0451 21.2029 21.0452C21.2028 21.0452 21.2027 21.0452 21.2027 21.0452C21.2027 21.0452 21.2026 21.0452 21.5 22ZM25.6104 21.9939C26.6146 21.8823 27.5661 22.1369 28.7304 22.463C29.8387 22.7733 31.1599 23.1551 32.6104 22.9939L32.3896 21.0061C31.3854 21.1177 30.4339 20.8631 29.2696 20.537C28.1613 20.2267 26.8401 19.8449 25.3896 20.0061L25.6104 21.9939ZM25.6104 29.9939C26.6146 29.8823 27.5661 30.1369 28.7304 30.463C29.8387 30.7733 31.1599 31.1551 32.6104 30.9939L32.3896 29.0061C31.3854 29.1177 30.4339 28.8631 29.2696 28.537C28.1613 28.2267 26.8401 27.8449 25.3896 28.0061L25.6104 29.9939ZM32.6104 30.9939C33.3148 30.9156 34.3889 30.6433 35.2256 30.413C35.6573 30.2942 36.0492 30.18 36.3329 30.0955C36.475 30.0532 36.5903 30.0183 36.6705 29.9938C36.7106 29.9815 36.7419 29.9719 36.7634 29.9653C36.7742 29.962 36.7825 29.9594 36.7882 29.9576C36.791 29.9567 36.7932 29.9561 36.7948 29.9556C36.7955 29.9553 36.7961 29.9551 36.7966 29.955C36.7968 29.9549 36.797 29.9549 36.7971 29.9548C36.7972 29.9548 36.7973 29.9548 36.7973 29.9548C36.7973 29.9548 36.7974 29.9548 36.5 29C36.2026 28.0452 36.2026 28.0452 36.2027 28.0452C36.2026 28.0452 36.2027 28.0452 36.2026 28.0452C36.2026 28.0452 36.2025 28.0453 36.2024 28.0453C36.2022 28.0454 36.2018 28.0455 36.2012 28.0457C36.2001 28.046 36.1983 28.0466 36.1959 28.0473C36.191 28.0488 36.1836 28.0511 36.1737 28.0542C36.154 28.0603 36.1246 28.0693 36.0864 28.081C36.0102 28.1042 35.8993 28.1378 35.7623 28.1786C35.4878 28.2604 35.1098 28.3705 34.695 28.4847C33.8385 28.7204 32.9126 28.948 32.3896 29.0061L32.6104 30.9939ZM21.5 20C22.6046 20 23.5 19.1046 23.5 18H21.5V20ZM19.5 18C19.5 19.1046 20.3954 20 21.5 20V18H19.5ZM21.5 16C20.3954 16 19.5 16.8954 19.5 18H21.5V16ZM21.5 18H23.5C23.5 16.8954 22.6046 16 21.5 16V18Z" fill="white"/>
<path d="M57.6846 24H56.2124L52.3525 18.7925L51.21 19.8179V24H49.9648V13.292H51.21V18.6313C51.4883 18.314 51.7739 17.999 52.0669 17.6865C52.3599 17.3691 52.6504 17.0493 52.9385 16.7271L56.0659 13.292H57.5234L53.2607 17.9355L57.6846 24ZM60.1821 12.6035V16.0093C60.1821 16.2046 60.1772 16.4023 60.1675 16.6025C60.1577 16.7979 60.1406 16.9785 60.1162 17.1445H60.1968C60.3628 16.8613 60.5728 16.6245 60.8267 16.4341C61.0854 16.2388 61.3784 16.0923 61.7056 15.9946C62.0327 15.8921 62.3794 15.8408 62.7456 15.8408C63.3901 15.8408 63.9272 15.9434 64.3569 16.1484C64.7915 16.3535 65.1162 16.6709 65.3311 17.1006C65.5508 17.5303 65.6606 18.0869 65.6606 18.7705V24H64.4595V18.8511C64.4595 18.1821 64.3057 17.6816 63.998 17.3496C63.6953 17.0176 63.229 16.8516 62.5991 16.8516C62.0034 16.8516 61.5273 16.9663 61.1709 17.1958C60.8193 17.4204 60.5654 17.7524 60.4092 18.1919C60.2578 18.6313 60.1821 19.1685 60.1821 19.8032V24H58.9663V12.6035H60.1821ZM75.0869 19.9717C75.0869 20.6309 75.0015 21.2192 74.8306 21.7368C74.6597 22.2544 74.4131 22.6914 74.0908 23.0479C73.7686 23.4043 73.3779 23.6777 72.9189 23.8682C72.4648 24.0537 71.9497 24.1465 71.3735 24.1465C70.8364 24.1465 70.3433 24.0537 69.894 23.8682C69.4497 23.6777 69.064 23.4043 68.7368 23.0479C68.4146 22.6914 68.1631 22.2544 67.9824 21.7368C67.8066 21.2192 67.7188 20.6309 67.7188 19.9717C67.7188 19.0928 67.8677 18.3457 68.1655 17.7305C68.4634 17.1104 68.8882 16.6392 69.4399 16.3169C69.9966 15.9897 70.6582 15.8262 71.4248 15.8262C72.1572 15.8262 72.7969 15.9897 73.3438 16.3169C73.8955 16.644 74.3228 17.1177 74.6255 17.7378C74.9331 18.353 75.0869 19.0977 75.0869 19.9717ZM68.9785 19.9717C68.9785 20.6162 69.064 21.1753 69.2349 21.6489C69.4058 22.1226 69.6694 22.4888 70.0259 22.7476C70.3823 23.0063 70.8413 23.1357 71.4028 23.1357C71.9595 23.1357 72.416 23.0063 72.7725 22.7476C73.1338 22.4888 73.3999 22.1226 73.5708 21.6489C73.7417 21.1753 73.8271 20.6162 73.8271 19.9717C73.8271 19.332 73.7417 18.7803 73.5708 18.3164C73.3999 17.8477 73.1362 17.4863 72.7798 17.2324C72.4233 16.9785 71.9619 16.8516 71.3955 16.8516C70.5605 16.8516 69.9478 17.1274 69.5571 17.6792C69.1714 18.231 68.9785 18.9951 68.9785 19.9717ZM72.0327 12.5156C72.1548 12.7354 72.3257 12.9844 72.5454 13.2627C72.7651 13.5361 72.9971 13.8047 73.2412 14.0684C73.4854 14.332 73.7026 14.5591 73.8931 14.7495V14.9106H73.0288C72.7651 14.7397 72.4941 14.5298 72.2158 14.2808C71.9375 14.0317 71.6665 13.7729 71.4028 13.5044C71.1392 13.7729 70.8706 14.0317 70.5972 14.2808C70.3286 14.5249 70.0625 14.7349 69.7988 14.9106H68.9639V14.7495C69.1494 14.5542 69.3594 14.3247 69.5938 14.061C69.833 13.7974 70.0601 13.5288 70.2749 13.2554C70.4946 12.9819 70.668 12.7354 70.7949 12.5156H72.0327ZM80.9902 15.8262C81.9424 15.8262 82.6626 16.0605 83.1509 16.5293C83.6392 16.9932 83.8833 17.7402 83.8833 18.7705V24H82.6821V18.8511C82.6821 18.1821 82.5283 17.6816 82.2207 17.3496C81.918 17.0176 81.4517 16.8516 80.8218 16.8516C79.9331 16.8516 79.3081 17.103 78.9468 17.606C78.5854 18.1089 78.4048 18.8389 78.4048 19.7959V24H77.189V15.9727H78.1704L78.3535 17.1299H78.4194C78.5903 16.8467 78.8076 16.6099 79.0713 16.4194C79.335 16.2241 79.6304 16.0776 79.9575 15.98C80.2847 15.8774 80.6289 15.8262 80.9902 15.8262ZM88.6294 27.6035C87.5747 27.6035 86.7617 27.4058 86.1904 27.0103C85.6191 26.6196 85.3335 26.0703 85.3335 25.3623C85.3335 24.8594 85.4922 24.4297 85.8096 24.0732C86.1318 23.7168 86.5762 23.48 87.1426 23.3628C86.9326 23.2651 86.752 23.1187 86.6006 22.9233C86.4541 22.728 86.3809 22.5034 86.3809 22.2495C86.3809 21.9565 86.4614 21.7002 86.6226 21.4805C86.7886 21.2559 87.04 21.041 87.377 20.8359C86.957 20.665 86.6152 20.377 86.3516 19.9717C86.0928 19.5615 85.9634 19.0854 85.9634 18.5435C85.9634 17.9673 86.083 17.4766 86.3223 17.0713C86.5615 16.6611 86.9082 16.3486 87.3623 16.1338C87.8164 15.9189 88.3657 15.8115 89.0103 15.8115C89.1519 15.8115 89.2935 15.8188 89.4351 15.8335C89.5815 15.8433 89.7207 15.8604 89.8525 15.8848C89.9844 15.9043 90.0991 15.9287 90.1968 15.958H92.9507V16.7417L91.4712 16.9248C91.6177 17.1152 91.7397 17.3447 91.8374 17.6133C91.9351 17.8818 91.9839 18.1797 91.9839 18.5068C91.9839 19.3076 91.7129 19.9448 91.1709 20.4185C90.6289 20.8872 89.8843 21.1216 88.937 21.1216C88.7124 21.1216 88.4829 21.1021 88.2485 21.063C88.0093 21.1948 87.8262 21.3413 87.6992 21.5024C87.5771 21.6636 87.5161 21.8491 87.5161 22.0591C87.5161 22.2153 87.5625 22.3398 87.6553 22.4326C87.7529 22.5254 87.8921 22.5938 88.0728 22.6377C88.2534 22.6768 88.4707 22.6963 88.7246 22.6963H90.1382C91.0122 22.6963 91.6812 22.8794 92.145 23.2456C92.6138 23.6118 92.8481 24.1465 92.8481 24.8496C92.8481 25.7383 92.4868 26.4194 91.7642 26.8931C91.0415 27.3667 89.9966 27.6035 88.6294 27.6035ZM88.666 26.6514C89.3301 26.6514 89.8794 26.583 90.314 26.4463C90.7534 26.3145 91.0806 26.1216 91.2954 25.8677C91.5151 25.6187 91.625 25.3208 91.625 24.9741C91.625 24.6519 91.5518 24.4077 91.4053 24.2417C91.2588 24.0806 91.0439 23.9731 90.7607 23.9194C90.4775 23.8608 90.1309 23.8315 89.7207 23.8315H88.3291C87.9678 23.8315 87.6528 23.8877 87.3843 24C87.1157 24.1123 86.9082 24.2783 86.7617 24.498C86.6201 24.7178 86.5493 24.9912 86.5493 25.3184C86.5493 25.7529 86.7324 26.0825 87.0986 26.3071C87.4648 26.5366 87.9873 26.6514 88.666 26.6514ZM88.981 20.2354C89.562 20.2354 89.999 20.0889 90.292 19.7959C90.585 19.5029 90.7314 19.0757 90.7314 18.5142C90.7314 17.9136 90.5825 17.4644 90.2847 17.1665C89.9868 16.8638 89.5474 16.7124 88.9663 16.7124C88.4097 16.7124 87.98 16.8687 87.6772 17.1812C87.3794 17.4888 87.2305 17.9404 87.2305 18.5361C87.2305 19.083 87.3818 19.5029 87.6846 19.7959C87.9873 20.0889 88.4194 20.2354 88.981 20.2354ZM100.67 27.6035C99.6157 27.6035 98.8027 27.4058 98.2314 27.0103C97.6602 26.6196 97.3745 26.0703 97.3745 25.3623C97.3745 24.8594 97.5332 24.4297 97.8506 24.0732C98.1729 23.7168 98.6172 23.48 99.1836 23.3628C98.9736 23.2651 98.793 23.1187 98.6416 22.9233C98.4951 22.728 98.4219 22.5034 98.4219 22.2495C98.4219 21.9565 98.5024 21.7002 98.6636 21.4805C98.8296 21.2559 99.0811 21.041 99.418 20.8359C98.998 20.665 98.6562 20.377 98.3926 19.9717C98.1338 19.5615 98.0044 19.0854 98.0044 18.5435C98.0044 17.9673 98.124 17.4766 98.3633 17.0713C98.6025 16.6611 98.9492 16.3486 99.4033 16.1338C99.8574 15.9189 100.407 15.8115 101.051 15.8115C101.193 15.8115 101.334 15.8188 101.476 15.8335C101.623 15.8433 101.762 15.8604 101.894 15.8848C102.025 15.9043 102.14 15.9287 102.238 15.958H104.992V16.7417L103.512 16.9248C103.659 17.1152 103.781 17.3447 103.878 17.6133C103.976 17.8818 104.025 18.1797 104.025 18.5068C104.025 19.3076 103.754 19.9448 103.212 20.4185C102.67 20.8872 101.925 21.1216 100.978 21.1216C100.753 21.1216 100.524 21.1021 100.29 21.063C100.05 21.1948 99.8672 21.3413 99.7402 21.5024C99.6182 21.6636 99.5571 21.8491 99.5571 22.0591C99.5571 22.2153 99.6035 22.3398 99.6963 22.4326C99.7939 22.5254 99.9331 22.5938 100.114 22.6377C100.294 22.6768 100.512 22.6963 100.766 22.6963H102.179C103.053 22.6963 103.722 22.8794 104.186 23.2456C104.655 23.6118 104.889 24.1465 104.889 24.8496C104.889 25.7383 104.528 26.4194 103.805 26.8931C103.083 27.3667 102.038 27.6035 100.67 27.6035ZM100.707 26.6514C101.371 26.6514 101.92 26.583 102.355 26.4463C102.794 26.3145 103.122 26.1216 103.336 25.8677C103.556 25.6187 103.666 25.3208 103.666 24.9741C103.666 24.6519 103.593 24.4077 103.446 24.2417C103.3 24.0806 103.085 23.9731 102.802 23.9194C102.519 23.8608 102.172 23.8315 101.762 23.8315H100.37C100.009 23.8315 99.6938 23.8877 99.4253 24C99.1567 24.1123 98.9492 24.2783 98.8027 24.498C98.6611 24.7178 98.5903 24.9912 98.5903 25.3184C98.5903 25.7529 98.7734 26.0825 99.1396 26.3071C99.5059 26.5366 100.028 26.6514 100.707 26.6514ZM101.022 20.2354C101.603 20.2354 102.04 20.0889 102.333 19.7959C102.626 19.5029 102.772 19.0757 102.772 18.5142C102.772 17.9136 102.624 17.4644 102.326 17.1665C102.028 16.8638 101.588 16.7124 101.007 16.7124C100.451 16.7124 100.021 16.8687 99.7183 17.1812C99.4204 17.4888 99.2715 17.9404 99.2715 18.5361C99.2715 19.083 99.4229 19.5029 99.7256 19.7959C100.028 20.0889 100.46 20.2354 101.022 20.2354ZM107.79 15.9727V24H106.574V15.9727H107.79ZM107.196 12.9697C107.396 12.9697 107.567 13.0356 107.709 13.1675C107.855 13.2944 107.929 13.4946 107.929 13.7681C107.929 14.0366 107.855 14.2368 107.709 14.3687C107.567 14.5005 107.396 14.5664 107.196 14.5664C106.986 14.5664 106.811 14.5005 106.669 14.3687C106.532 14.2368 106.464 14.0366 106.464 13.7681C106.464 13.4946 106.532 13.2944 106.669 13.1675C106.811 13.0356 106.986 12.9697 107.196 12.9697ZM117.289 19.9717C117.289 20.8506 117.138 21.6025 116.835 22.2275C116.537 22.8477 116.11 23.3237 115.553 23.6558C115.001 23.9829 114.342 24.1465 113.576 24.1465C112.863 24.1465 112.23 23.9829 111.679 23.6558C111.127 23.3237 110.695 22.8477 110.382 22.2275C110.075 21.6025 109.921 20.8506 109.921 19.9717C109.921 18.6533 110.25 17.6328 110.91 16.9102C111.574 16.1875 112.479 15.8262 113.627 15.8262C114.159 15.8262 114.645 15.9165 115.084 16.0972C115.529 16.2778 115.91 16.5342 116.227 16.8662C116.515 16.7734 116.732 16.6294 116.879 16.4341C117.025 16.2339 117.123 15.9897 117.172 15.7017C117.221 15.4136 117.245 15.0938 117.245 14.7422H118.534L118.637 14.896C118.559 15.355 118.444 15.7627 118.292 16.1191C118.141 16.4756 117.941 16.7783 117.692 17.0273C117.448 17.2764 117.14 17.4717 116.769 17.6133C116.935 17.9307 117.062 18.2871 117.15 18.6826C117.243 19.0781 117.289 19.5078 117.289 19.9717ZM111.181 19.9717C111.181 20.6553 111.264 21.2339 111.43 21.7075C111.601 22.1763 111.864 22.5327 112.221 22.7769C112.582 23.0161 113.043 23.1357 113.605 23.1357C114.171 23.1357 114.633 23.0137 114.989 22.7695C115.346 22.5254 115.607 22.1689 115.773 21.7002C115.944 21.2266 116.029 20.6504 116.029 19.9717C116.029 19.2979 115.944 18.729 115.773 18.2651C115.607 17.8013 115.346 17.4497 114.989 17.2104C114.633 16.9712 114.169 16.8516 113.598 16.8516C112.758 16.8516 112.145 17.1177 111.759 17.6499C111.374 18.1772 111.181 18.9512 111.181 19.9717ZM115.729 12.5083V12.6548C115.631 12.7964 115.497 12.9673 115.326 13.1675C115.16 13.3628 114.975 13.5703 114.77 13.79C114.564 14.0049 114.357 14.21 114.147 14.4053C113.942 14.6006 113.751 14.769 113.576 14.9106H112.763V14.7349C112.919 14.5493 113.09 14.3271 113.275 14.0684C113.461 13.8047 113.642 13.5361 113.817 13.2627C113.993 12.9844 114.14 12.7329 114.257 12.5083H115.729ZM120.753 15.9727V24H119.538V15.9727H120.753ZM120.16 12.9697C120.36 12.9697 120.531 13.0356 120.673 13.1675C120.819 13.2944 120.893 13.4946 120.893 13.7681C120.893 14.0366 120.819 14.2368 120.673 14.3687C120.531 14.5005 120.36 14.5664 120.16 14.5664C119.95 14.5664 119.774 14.5005 119.633 14.3687C119.496 14.2368 119.428 14.0366 119.428 13.7681C119.428 13.4946 119.496 13.2944 119.633 13.1675C119.774 13.0356 119.95 12.9697 120.16 12.9697ZM50.9976 32.6035V36.0093C50.9976 36.2046 50.9927 36.4023 50.9829 36.6025C50.9731 36.7979 50.9561 36.9785 50.9316 37.1445H51.0122C51.1782 36.8613 51.3882 36.6245 51.6421 36.4341C51.9009 36.2388 52.1938 36.0923 52.521 35.9946C52.8481 35.8921 53.1948 35.8408 53.561 35.8408C54.2056 35.8408 54.7427 35.9434 55.1724 36.1484C55.6069 36.3535 55.9316 36.6709 56.1465 37.1006C56.3662 37.5303 56.4761 38.0869 56.4761 38.7705V44H55.2749V38.8511C55.2749 38.1821 55.1211 37.6816 54.8135 37.3496C54.5107 37.0176 54.0444 36.8516 53.4146 36.8516C52.8188 36.8516 52.3428 36.9663 51.9863 37.1958C51.6348 37.4204 51.3809 37.7524 51.2246 38.1919C51.0732 38.6313 50.9976 39.1685 50.9976 39.8032V44H49.7817V32.6035H50.9976ZM61.9839 35.8408C62.9409 35.8408 63.6514 36.0557 64.1152 36.4854C64.5791 36.915 64.811 37.6011 64.811 38.5435V44H63.9248L63.6904 42.8135H63.6318C63.4072 43.1064 63.1729 43.353 62.9287 43.5532C62.6846 43.7485 62.4014 43.8975 62.0791 44C61.7617 44.0977 61.3711 44.1465 60.9072 44.1465C60.4189 44.1465 59.9844 44.061 59.6035 43.8901C59.2275 43.7192 58.9297 43.4604 58.71 43.1138C58.4951 42.7671 58.3877 42.3276 58.3877 41.7954C58.3877 40.9946 58.7051 40.3794 59.3398 39.9497C59.9746 39.52 60.9414 39.2856 62.2402 39.2466L63.6245 39.188V38.6973C63.6245 38.0039 63.4756 37.5181 63.1777 37.2397C62.8799 36.9614 62.46 36.8223 61.918 36.8223C61.498 36.8223 61.0977 36.8833 60.7168 37.0054C60.3359 37.1274 59.9746 37.2715 59.6328 37.4375L59.2593 36.5146C59.6206 36.3291 60.0356 36.1704 60.5044 36.0386C60.9731 35.9067 61.4663 35.8408 61.9839 35.8408ZM63.6099 40.0449L62.3867 40.0962C61.3857 40.1353 60.6802 40.2988 60.27 40.5869C59.8599 40.875 59.6548 41.2827 59.6548 41.8101C59.6548 42.269 59.7939 42.6084 60.0723 42.8281C60.3506 43.0479 60.7192 43.1577 61.1782 43.1577C61.8911 43.1577 62.4746 42.96 62.9287 42.5645C63.3828 42.1689 63.6099 41.5757 63.6099 40.7847V40.0449ZM61.8594 46.5708C61.6543 46.5708 61.481 46.5049 61.3394 46.373C61.1978 46.2412 61.127 46.041 61.127 45.7725C61.127 45.499 61.1978 45.2964 61.3394 45.1646C61.481 45.0376 61.6543 44.9741 61.8594 44.9741C62.0693 44.9741 62.2451 45.0376 62.3867 45.1646C62.5283 45.2964 62.5991 45.499 62.5991 45.7725C62.5991 46.041 62.5283 46.2412 62.3867 46.373C62.2451 46.5049 62.0693 46.5708 61.8594 46.5708ZM71.1172 35.8262C72.0693 35.8262 72.7896 36.0605 73.2778 36.5293C73.7661 36.9932 74.0103 37.7402 74.0103 38.7705V44H72.8091V38.8511C72.8091 38.1821 72.6553 37.6816 72.3477 37.3496C72.0449 37.0176 71.5786 36.8516 70.9487 36.8516C70.0601 36.8516 69.4351 37.103 69.0737 37.606C68.7124 38.1089 68.5317 38.8389 68.5317 39.7959V44H67.3159V35.9727H68.2974L68.4805 37.1299H68.5464C68.7173 36.8467 68.9346 36.6099 69.1982 36.4194C69.4619 36.2241 69.7573 36.0776 70.0845 35.98C70.4116 35.8774 70.7559 35.8262 71.1172 35.8262ZM81.6348 44H80.4116V32.6035H81.6348V44ZM93.2437 34.7275L93.3462 34.8887C93.2925 35.2402 93.2095 35.5771 93.0972 35.8994C92.9897 36.2217 92.8408 36.5122 92.6504 36.771C92.46 37.0298 92.2158 37.2446 91.918 37.4155C91.625 37.5864 91.2637 37.6963 90.834 37.7451V44H89.8379L89.6621 42.8721H89.5962C89.4302 43.1504 89.2178 43.3848 88.959 43.5752C88.7002 43.7656 88.4072 43.9072 88.0801 44C87.7529 44.0977 87.4062 44.1465 87.04 44.1465C86.3955 44.1465 85.856 44.0439 85.4214 43.8389C84.9868 43.6338 84.6597 43.3164 84.4399 42.8867C84.2251 42.457 84.1177 41.9053 84.1177 41.2314V35.9873H85.3481V41.1436C85.3481 41.8125 85.4995 42.313 85.8022 42.645C86.105 42.9722 86.5664 43.1357 87.1865 43.1357C88.0752 43.1357 88.7002 42.8843 89.0615 42.3813C89.4277 41.8784 89.6108 41.1509 89.6108 40.1987V35.9873H90.834V36.8809C91.1465 36.8223 91.3833 36.6978 91.5444 36.5073C91.7056 36.3169 91.8154 36.0703 91.874 35.7676C91.9326 35.4648 91.9619 35.1182 91.9619 34.7275H93.2437ZM101.073 39.9717C101.073 40.8506 100.922 41.6025 100.619 42.2275C100.321 42.8477 99.894 43.3237 99.3374 43.6558C98.7856 43.9829 98.1265 44.1465 97.3599 44.1465C96.647 44.1465 96.0146 43.9829 95.4629 43.6558C94.9111 43.3237 94.479 42.8477 94.1665 42.2275C93.8589 41.6025 93.7051 40.8506 93.7051 39.9717C93.7051 38.6533 94.0347 37.6328 94.6938 36.9102C95.3579 36.1875 96.2637 35.8262 97.4111 35.8262C97.9434 35.8262 98.4292 35.9165 98.8687 36.0972C99.313 36.2778 99.6938 36.5342 100.011 36.8662C100.299 36.7734 100.517 36.6294 100.663 36.4341C100.81 36.2339 100.907 35.9897 100.956 35.7017C101.005 35.4136 101.029 35.0938 101.029 34.7422H102.318L102.421 34.896C102.343 35.355 102.228 35.7627 102.077 36.1191C101.925 36.4756 101.725 36.7783 101.476 37.0273C101.232 37.2764 100.924 37.4717 100.553 37.6133C100.719 37.9307 100.846 38.2871 100.934 38.6826C101.027 39.0781 101.073 39.5078 101.073 39.9717ZM94.9648 39.9717C94.9648 40.6553 95.0479 41.2339 95.2139 41.7075C95.3848 42.1763 95.6484 42.5327 96.0049 42.7769C96.3662 43.0161 96.8276 43.1357 97.3892 43.1357C97.9556 43.1357 98.417 43.0137 98.7734 42.7695C99.1299 42.5254 99.3911 42.1689 99.5571 41.7002C99.728 41.2266 99.8135 40.6504 99.8135 39.9717C99.8135 39.2979 99.728 38.729 99.5571 38.2651C99.3911 37.8013 99.1299 37.4497 98.7734 37.2104C98.417 36.9712 97.9531 36.8516 97.3818 36.8516C96.542 36.8516 95.9292 37.1177 95.5435 37.6499C95.1577 38.1772 94.9648 38.9512 94.9648 39.9717ZM97.3599 46.5708C97.1548 46.5708 96.9814 46.5049 96.8398 46.373C96.6982 46.2412 96.6274 46.041 96.6274 45.7725C96.6274 45.499 96.6982 45.2964 96.8398 45.1646C96.9814 45.0376 97.1548 44.9741 97.3599 44.9741C97.5698 44.9741 97.7456 45.0376 97.8872 45.1646C98.0288 45.2964 98.0996 45.499 98.0996 45.7725C98.0996 46.041 98.0288 46.2412 97.8872 46.373C97.7456 46.5049 97.5698 46.5708 97.3599 46.5708ZM105.915 43.1504C106.115 43.1504 106.32 43.1333 106.53 43.0991C106.74 43.0649 106.911 43.0234 107.042 42.9746V43.9194C106.901 43.9829 106.703 44.0366 106.449 44.0806C106.2 44.1245 105.956 44.1465 105.717 44.1465C105.292 44.1465 104.906 44.0732 104.56 43.9268C104.213 43.7754 103.935 43.5215 103.725 43.165C103.52 42.8086 103.417 42.3154 103.417 41.6855V36.9248H102.274V36.3315L103.424 35.8555L103.908 34.1123H104.64V35.9727H106.991V36.9248H104.64V41.6489C104.64 42.1519 104.755 42.5278 104.984 42.7769C105.219 43.0259 105.529 43.1504 105.915 43.1504ZM115.158 43.1504C115.358 43.1504 115.563 43.1333 115.773 43.0991C115.983 43.0649 116.154 43.0234 116.286 42.9746V43.9194C116.144 43.9829 115.946 44.0366 115.692 44.0806C115.443 44.1245 115.199 44.1465 114.96 44.1465C114.535 44.1465 114.149 44.0732 113.803 43.9268C113.456 43.7754 113.178 43.5215 112.968 43.165C112.763 42.8086 112.66 42.3154 112.66 41.6855V36.9248H111.518V36.3315L112.667 35.8555L113.151 34.1123H113.883V35.9727H116.234V36.9248H113.883V41.6489C113.883 42.1519 113.998 42.5278 114.228 42.7769C114.462 43.0259 114.772 43.1504 115.158 43.1504ZM119.127 32.6035V36.0093C119.127 36.2046 119.123 36.4023 119.113 36.6025C119.103 36.7979 119.086 36.9785 119.062 37.1445H119.142C119.308 36.8613 119.518 36.6245 119.772 36.4341C120.031 36.2388 120.324 36.0923 120.651 35.9946C120.978 35.8921 121.325 35.8408 121.691 35.8408C122.335 35.8408 122.873 35.9434 123.302 36.1484C123.737 36.3535 124.062 36.6709 124.276 37.1006C124.496 37.5303 124.606 38.0869 124.606 38.7705V44H123.405V38.8511C123.405 38.1821 123.251 37.6816 122.943 37.3496C122.641 37.0176 122.174 36.8516 121.544 36.8516C120.949 36.8516 120.473 36.9663 120.116 37.1958C119.765 37.4204 119.511 37.7524 119.354 38.1919C119.203 38.6313 119.127 39.1685 119.127 39.8032V44H117.912V32.6035H119.127ZM128.327 35.9727V44H127.111V35.9727H128.327ZM127.733 32.9697C127.934 32.9697 128.104 33.0356 128.246 33.1675C128.393 33.2944 128.466 33.4946 128.466 33.7681C128.466 34.0366 128.393 34.2368 128.246 34.3687C128.104 34.5005 127.934 34.5664 127.733 34.5664C127.523 34.5664 127.348 34.5005 127.206 34.3687C127.069 34.2368 127.001 34.0366 127.001 33.7681C127.001 33.4946 127.069 33.2944 127.206 33.1675C127.348 33.0356 127.523 32.9697 127.733 32.9697Z" fill="white"/>
<g opacity="0.4">
<path d="M119.3 -17.5502C118.967 -17.4758 118.638 -17.3926 118.312 -17.3008L105.225 -4.08638C105.134 -3.75736 105.051 -3.42485 104.977 -3.08892L119.3 -17.5502Z" fill="white"/>
<path d="M104.539 1.58553C104.535 1.40587 104.532 1.22557 104.532 1.04469C104.532 0.977659 104.532 0.910759 104.533 0.843922L123.195 -17.999C123.261 -17.9997 123.327 -18 123.394 -18C123.573 -18 123.751 -17.9975 123.929 -17.9924L104.539 1.58553Z" fill="white"/>
<path d="M105.013 5.3391C104.967 5.13478 104.924 4.9291 104.884 4.72232L127.036 -17.6452C127.241 -17.6047 127.445 -17.5609 127.647 -17.5139L105.013 5.3391Z" fill="white"/>
<path d="M106.045 8.53C105.97 8.35448 105.899 8.1776 105.829 7.99943L130.282 -16.6902C130.458 -16.6202 130.633 -16.5477 130.807 -16.4726L106.045 8.53Z" fill="white"/>
<path d="M107.496 11.2972C107.399 11.1447 107.304 10.9907 107.212 10.8354L133.09 -15.2939C133.244 -15.2006 133.397 -15.1052 133.548 -15.0076L107.496 11.2972Z" fill="white"/>
<path d="M109.303 13.7048C109.186 13.5728 109.072 13.4391 108.959 13.3038L135.535 -13.5303C135.669 -13.4164 135.801 -13.3006 135.932 -13.1831L109.303 13.7048Z" fill="white"/>
<path d="M111.441 15.7779C111.305 15.6656 111.171 15.5515 111.039 15.4355L137.646 -11.4298C137.761 -11.2961 137.874 -11.1609 137.985 -11.024L111.441 15.7779Z" fill="white"/>
<path d="M113.914 17.5129C113.758 17.4214 113.604 17.3277 113.451 17.2318L139.425 -8.99395C139.52 -8.83974 139.613 -8.68404 139.704 -8.52693L113.914 17.5129Z" fill="white"/>
<path d="M116.755 18.8764C116.577 18.8086 116.4 18.7381 116.224 18.6651L140.845 -6.19503C140.917 -6.01744 140.987 -5.83844 141.054 -5.6582L116.755 18.8764Z" fill="white"/>
<path d="M120.042 19.7896C119.835 19.752 119.628 19.711 119.423 19.6667L141.837 -2.96448C141.881 -2.75731 141.921 -2.54892 141.959 -2.3393L120.042 19.7896Z" fill="white"/>
<path d="M123.945 20.0814C123.762 20.0867 123.578 20.0894 123.394 20.0894C123.328 20.0894 123.262 20.089 123.197 20.0883L142.254 0.845985C142.255 0.912178 142.255 0.978371 142.255 1.04469C142.255 1.2308 142.253 1.41621 142.247 1.60103L123.945 20.0814Z" fill="white"/>
<path d="M128.964 19.2451C128.626 19.3504 128.284 19.4464 127.939 19.5329L141.704 5.63364C141.619 5.98281 141.524 6.32823 141.419 6.66953L128.964 19.2451Z" fill="white"/>
<path d="M146.932 41.4922C147.611 40.5959 148.405 39.7937 149.293 39.1082L146.932 41.4922Z" fill="white"/>
<path d="M144.601 46.6668C144.645 46.4488 144.694 46.2329 144.749 46.0191L153.776 36.9039C153.988 36.8488 154.202 36.7991 154.418 36.755L144.601 46.6668Z" fill="white"/>
<path d="M144.362 49.7299C144.355 49.568 144.352 49.4053 144.351 49.2419L156.968 36.5025C157.13 36.5031 157.291 36.5067 157.451 36.5134L144.362 49.7299Z" fill="white"/>
<path d="M144.706 52.2044C144.673 52.0695 144.643 51.9338 144.615 51.7973L159.499 36.7686C159.634 36.797 159.769 36.8275 159.902 36.8603L144.706 52.2044Z" fill="white"/>
<path d="M145.412 54.312C145.362 54.1961 145.313 54.0792 145.266 53.9614L161.642 37.4259C161.759 37.4736 161.875 37.523 161.99 37.5741L145.412 54.312Z" fill="white"/>
<path d="M146.395 56.1409C146.33 56.0401 146.266 55.9384 146.204 55.8357L163.499 38.3731C163.6 38.4362 163.701 38.5007 163.801 38.5666L146.395 56.1409Z" fill="white"/>
<path d="M147.614 57.7318C147.536 57.6446 147.459 57.5563 147.383 57.4669L165.114 39.5633C165.203 39.64 165.29 39.718 165.376 39.7972L147.614 57.7318Z" fill="white"/>
<path d="M149.053 59.1C148.962 59.026 148.872 58.9508 148.783 58.8743L166.508 40.9774C166.584 41.0673 166.658 41.1583 166.732 41.2504L149.053 59.1Z" fill="white"/>
<path d="M150.717 60.2421C150.612 60.182 150.508 60.1205 150.406 60.0574L167.68 42.6156C167.742 42.7193 167.803 42.824 167.863 42.9297L150.717 60.2421Z" fill="white"/>
<path d="M152.627 61.1343C152.507 61.0902 152.388 61.0443 152.27 60.9966L168.61 44.4979C168.657 44.6174 168.703 44.7377 168.746 44.859L152.627 61.1343Z" fill="white"/>
<path d="M154.84 61.7216C154.7 61.698 154.561 61.6721 154.423 61.6439L169.251 46.672C169.279 46.8116 169.305 46.952 169.328 47.0931L154.84 61.7216Z" fill="white"/>
<path d="M157.474 61.8835C157.306 61.8908 157.138 61.8947 156.968 61.8953L169.5 49.2421C169.499 49.4131 169.496 49.5833 169.488 49.7526L157.474 61.8835Z" fill="white"/>
<path d="M160.896 61.2494C160.664 61.3274 160.429 61.3987 160.191 61.4632L169.072 52.4957C169.008 52.7361 168.938 52.9737 168.86 53.2082L160.896 61.2494Z" fill="white"/>
<path d="M49.3148 36.3646C48.678 36.7361 48.0715 37.1546 47.4998 37.6153L45.1718 39.9659C44.7155 40.5431 44.3011 41.1555 43.9331 41.7985L49.3148 36.3646Z" fill="white"/>
<path d="M42.1511 46.8895C42.1882 46.6505 42.2309 46.4134 42.2791 46.1783L53.6526 34.6945C53.8854 34.6458 54.1202 34.6027 54.3569 34.5653L42.1511 46.8895Z" fill="white"/>
<path d="M42.0151 50.3185C42.0016 50.1357 41.9914 49.9521 41.9845 49.7675L57.2073 34.397C57.39 34.404 57.5719 34.4143 57.7529 34.428L42.0151 50.3185Z" fill="white"/>
<path d="M42.4949 53.1257C42.4532 52.9724 42.414 52.8181 42.3771 52.6628L60.0747 34.7935C60.2285 34.8307 60.3813 34.8704 60.5332 34.9124L42.4949 53.1257Z" fill="white"/>
<path d="M43.3763 55.5275C43.3144 55.3952 43.2543 55.2619 43.1961 55.1275L62.5158 35.6204C62.6489 35.6792 62.7809 35.7398 62.9118 35.8024L43.3763 55.5275Z" fill="white"/>
<path d="M44.5696 57.6143C44.4909 57.4993 44.4138 57.3832 44.3382 57.266L64.6337 36.7737C64.7498 36.8499 64.8648 36.9278 64.9786 37.0073L44.5696 57.6143Z" fill="white"/>
<path d="M46.0334 59.4279C45.9396 59.3287 45.8471 59.2281 45.7559 59.1263L66.4761 38.2051C66.577 38.2971 66.6766 38.3905 66.7749 38.4853L46.0334 59.4279Z" fill="white"/>
<path d="M47.7537 60.9827C47.6449 60.8988 47.5373 60.8135 47.4309 60.7267L68.0612 39.8963C68.1471 40.0037 68.2316 40.1124 68.3147 40.2223L47.7537 60.9827Z" fill="white"/>
<path d="M49.738 62.2709C49.6132 62.2035 49.4895 62.1344 49.367 62.0636L69.3852 41.8512C69.4553 41.9749 69.5238 42.0998 69.5905 42.2258L49.738 62.2709Z" fill="white"/>
<path d="M52.0183 63.2601C51.8749 63.2121 51.7325 63.1618 51.5912 63.1095L70.421 44.097C70.4729 44.2397 70.5226 44.3834 70.5702 44.5282L52.0183 63.2601Z" fill="white"/>
<path d="M54.6663 63.8781C54.4987 63.8553 54.332 63.8296 54.1662 63.8012L71.1061 46.697C71.1343 46.8643 71.1597 47.0327 71.1823 47.2019L54.6663 63.8781Z" fill="white"/>
<path d="M57.8424 63.9629C57.6392 63.9795 57.4348 63.9919 57.2294 64L71.303 49.7898C71.2949 49.9973 71.2827 50.2037 71.2662 50.4089L57.8424 63.9629Z" fill="white"/>
<path d="M62.1039 62.9518C61.8068 63.0721 61.505 63.1829 61.1987 63.2838L70.5937 53.7977C70.4938 54.1069 70.384 54.4117 70.2649 54.7116L62.1039 62.9518Z" fill="white"/>
<path d="M-22.6475 15.9302C-23.0692 16.1763 -23.4709 16.4535 -23.8495 16.7587L-25.3891 18.3132C-25.6914 18.6955 -25.9659 19.1011 -26.2096 19.5269L-22.6475 15.9302Z" fill="white"/>
<path d="M-27.3896 22.8976C-27.3651 22.7394 -27.3368 22.5824 -27.3049 22.4268L-19.7755 14.8244C-19.6214 14.7921 -19.4659 14.7636 -19.3092 14.7388L-27.3896 22.8976Z" fill="white"/>
<path d="M-27.4797 25.1678C-27.4887 25.0468 -27.4954 24.9252 -27.5 24.803L-17.4221 14.6273C-17.3011 14.632 -17.1807 14.6388 -17.0608 14.6478L-27.4797 25.1678Z" fill="white"/>
<path d="M-27.1621 27.0263C-27.1897 26.9248 -27.2157 26.8226 -27.2401 26.7198L-15.5237 14.8898C-15.4219 14.9144 -15.3207 14.9407 -15.2202 14.9685L-27.1621 27.0263Z" fill="white"/>
<path d="M-26.5786 28.6164C-26.6196 28.5288 -26.6594 28.4406 -26.6979 28.3516L-13.9076 15.4372C-13.8195 15.4761 -13.7321 15.5163 -13.6454 15.5577L-26.5786 28.6164Z" fill="white"/>
<path d="M-25.7886 29.9979C-25.8407 29.9218 -25.8918 29.845 -25.9418 29.7674L-12.5054 16.2007C-12.4286 16.2512 -12.3524 16.3027 -12.2771 16.3554L-25.7886 29.9979Z" fill="white"/>
<path d="M-24.8195 31.1987C-24.8816 31.133 -24.9429 31.0664 -25.0032 30.999L-11.2857 17.1483C-11.2189 17.2092 -11.153 17.2711 -11.0879 17.3338L-24.8195 31.1987Z" fill="white"/>
<path d="M-23.6806 32.228C-23.7527 32.1725 -23.8239 32.116 -23.8943 32.0585L-10.2363 18.268C-10.1794 18.3391 -10.1234 18.411 -10.0685 18.4838L-23.6806 32.228Z" fill="white"/>
<path d="M-22.367 33.0808C-22.4496 33.0362 -22.5315 32.9905 -22.6126 32.9436L-9.35973 19.5621C-9.31329 19.6441 -9.26797 19.7268 -9.22382 19.8102L-22.367 33.0808Z" fill="white"/>
<path d="M-20.8574 33.7358C-20.9523 33.704 -21.0465 33.6707 -21.1401 33.636L-8.67395 21.0489C-8.63961 21.1434 -8.60667 21.2386 -8.57516 21.3344L-20.8574 33.7358Z" fill="white"/>
<path d="M-19.1043 34.1449C-19.2152 34.1298 -19.3256 34.1128 -19.4354 34.094L-8.22041 22.7702C-8.20174 22.881 -8.18491 22.9925 -8.16995 23.1045L-19.1043 34.1449Z" fill="white"/>
<path d="M-17.0016 34.2011C-17.1361 34.2121 -17.2715 34.2203 -17.4075 34.2256L-8.08999 24.8178C-8.09533 24.9551 -8.10346 25.0917 -8.11433 25.2276L-17.0016 34.2011Z" fill="white"/>
<path d="M-14.1805 33.5318C-14.3771 33.6115 -14.577 33.6848 -14.7797 33.7516L-8.55949 27.471C-8.62563 27.6758 -8.69827 27.8775 -8.77716 28.0761L-14.1805 33.5318Z" fill="white"/>
</g>
</g>
<defs>
<linearGradient id="paint0_linear_514_248" x1="0.5" y1="28" x2="146.5" y2="28" gradientUnits="userSpaceOnUse">
<stop stop-color="#FEB500"/>
<stop offset="1" stop-color="#FF9900"/>
</linearGradient>
<clipPath id="clip0_514_248">
<rect x="0.5" width="146" height="56" rx="6" fill="white"/>
</clipPath>
</defs>
</svg>
