<svg width="17" height="16" viewBox="0 0 17 16" fill="none" xmlns="http://www.w3.org/2000/svg">
<path d="M4 0.5H3C1.89543 0.5 1 1.39543 1 2.5V5.5M4 0.5V2.5M4 0.5H7M7 0.5H10M7 0.5V2.5M10 0.5H13M10 0.5V2.5M13 0.5H14C15.1046 0.5 16 1.39543 16 2.5V5.5M13 0.5V2.5M1 5.5V13.5C1 14.6046 1.89543 15.5 3 15.5H14C15.1046 15.5 16 14.6046 16 13.5V5.5M1 5.5H16M4 8.5H5V9.5H4V8.5ZM7 8.5H8V9.5H7V8.5ZM10 8.5H11V9.5H10V8.5ZM13 8.5H14V9.5H13V8.5ZM13 11.5H14V12.5H13V11.5ZM10 11.5H11V12.5H10V11.5ZM7 11.5H8V12.5H7V11.5ZM4 11.5H5V12.5H4V11.5Z" stroke="#7287A2" stroke-linecap="round"/>
</svg>
