<svg width="61" height="60" viewBox="0 0 61 60" fill="none" xmlns="http://www.w3.org/2000/svg">
<path d="M4.5 11C2.84314 11 1.5 12.3431 1.5 14V39M1.5 39V44C1.5 45.6569 2.84315 47 4.5 47H20.5M1.5 39H7.5M52.5 39V44C52.5 45.6569 51.1569 47 49.5 47H33.5M52.5 39V18M52.5 39H46.5M7.5 39V10M7.5 39H46.5M7.5 10H15.5V2M7.5 10L15.5 2M46.5 39V25M15.5 2H43.5C45.1569 2 46.5 3.34315 46.5 5M20.5 47L19.5 55M20.5 47H33.5M33.5 47L34.5 55M19.5 55H34.5M19.5 55H17.5C16.3954 55 15.5 55.8954 15.5 57C15.5 58.1046 16.3954 59 17.5 59H36.5C37.6046 59 38.5 58.1046 38.5 57C38.5 55.8954 37.6046 55 36.5 55H34.5M46.5 43H44.5M34.5 32H28.5M29.5 28H28.5M30.5 20H28.5M33.5 16H28.5M35.5 19L34 23.5M35.5 19L50.5 4M35.5 19L38.5 22M34 23.5L32.5 28L37 26.5M34 23.5L36.5 24L37 26.5M37 26.5L41.5 25M41.5 25L56.5 10M41.5 25L38.5 22M50.5 4L52.4393 2.06066C53.1185 1.38153 54.0396 1 55 1C55.9604 1 56.8815 1.38153 57.5607 2.06066L58.4393 2.93934C59.1185 3.61847 59.5 4.53957 59.5 5.5C59.5 6.46043 59.1185 7.38153 58.4393 8.06066L56.5 10M50.5 4L53.5 7M56.5 10L53.5 7M53.5 7L38.5 22M19.5 18L24.5 13M19.5 30L24.5 25M19.5 22C21.7091 22 23.5 20.2091 23.5 18C23.5 15.7909 21.7091 14 19.5 14C17.2909 14 15.5 15.7909 15.5 18C15.5 20.2091 17.2909 22 19.5 22ZM19.5 34C21.7091 34 23.5 32.2091 23.5 30C23.5 27.7909 21.7091 26 19.5 26C17.2909 26 15.5 27.7909 15.5 30C15.5 32.2091 17.2909 34 19.5 34Z" stroke="#A9B8C3" stroke-width="2" stroke-linecap="round"/>
</svg>
