<svg width="16" height="16" viewBox="0 0 16 16" fill="none" xmlns="http://www.w3.org/2000/svg">
<path fill-rule="evenodd" clip-rule="evenodd" d="M16 12.5C16 12.7761 15.7761 13 15.5 13H10H6H0.5C0.223858 13 0 12.7761 0 12.5V11H16V12.5ZM8 11.5C7.72386 11.5 7.5 11.7239 7.5 12C7.5 12.2761 7.72386 12.5 8 12.5C8.27614 12.5 8.5 12.2761 8.5 12C8.5 11.7239 8.27614 11.5 8 11.5Z" fill="#BAC7D9"/>
<path d="M8.5 12C8.5 12.2761 8.27614 12.5 8 12.5C7.72386 12.5 7.5 12.2761 7.5 12C7.5 11.7239 7.72386 11.5 8 11.5C8.27614 11.5 8.5 11.7239 8.5 12Z" fill="#2B597A"/>
<path fill-rule="evenodd" clip-rule="evenodd" d="M10 13L10.5 15H5.5L6 13H10Z" fill="#97A9BB"/>
<path d="M5.5 15H4.5C4.22386 15 4 15.2239 4 15.5C4 15.7761 4.22386 16 4.5 16H11.5C11.7761 16 12 15.7761 12 15.5C12 15.2239 11.7761 15 11.5 15H10.5H5.5Z" fill="#BAC7D9"/>
<path fill-rule="evenodd" clip-rule="evenodd" d="M1.5 4.5V3.5H2.5V4.5H1.5Z" fill="#92D782"/>
<path d="M1.5 3.5V4.5H2.5V3.5H1.5Z" fill="white"/>
<path fill-rule="evenodd" clip-rule="evenodd" d="M13 2.5V3V5V8.5C13 8.77614 12.7761 9 12.5 9H3.5C3.22386 9 3 8.77614 3 8.5V5V4C3 3.72386 3.22386 3.5 3.5 3.5H4H8.29289C8.4255 3.5 8.55268 3.44732 8.64645 3.35355L9.85355 2.14645C9.94732 2.05268 10.0745 2 10.2071 2H12H12.5C12.7761 2 13 2.22386 13 2.5ZM4 7V8H6V7H4Z" fill="#FFD15C"/>
<path d="M4 8V7H6V8H4Z" fill="white"/>
<path d="M8.64645 3.35355L9.85355 2.14645C9.94732 2.05268 10.0745 2 10.2071 2H12V0.5C12 0.223858 11.7761 0 11.5 0H4.5C4.22386 0 4 0.223858 4 0.5V2V3V3.5H8.29289C8.4255 3.5 8.55268 3.44732 8.64645 3.35355Z" fill="#2983CD"/>
<path d="M1 10H15V5H13V8.5C13 8.77614 12.7761 9 12.5 9H3.5C3.22386 9 3 8.77614 3 8.5V5H1V10Z" fill="white"/>
<path fill-rule="evenodd" clip-rule="evenodd" d="M4 3H1V5H3V4C3 3.72386 3.22386 3.5 3.5 3.5H4V3ZM1.5 4.5V3.5H2.5V4.5H1.5Z" fill="#F27228"/>
<path d="M15 5V3H13V5H15Z" fill="#F27228"/>
<path d="M16 11V2.5C16 2.22386 15.7761 2 15.5 2H12.5C12.7761 2 13 2.22386 13 2.5V3H15V5V10H1V5V3H4V2H0.5C0.223858 2 0 2.22386 0 2.5V11H16Z" fill="#2B597A"/>
</svg>
