<svg width="22" height="26" viewBox="0 0 22 26" fill="none" xmlns="http://www.w3.org/2000/svg">
<path d="M8 21H1L1.59147 20.1128C2.51582 18.7263 3.07903 17.1307 3.22989 15.4712L3.42125 11.3663C3.74903 7.7607 6.77208 5 10.3925 5M8 21V22C8 23.6569 9.34315 25 11 25C12.6569 25 14 23.6569 14 22V21M8 21H14M14 21H21L20.4085 20.1128C19.4842 18.7263 18.921 17.1307 18.7701 15.4712L18.5788 11.3662C18.251 7.76069 15.2279 5 11.6075 5M10.3925 5H9V3C9 1.89543 9.89543 1 11 1C12.1046 1 13 1.89543 13 3V5H11.6075M10.3925 5H11.6075" stroke="#A9B8C3" stroke-width="2" stroke-linecap="round" stroke-linejoin="round"/>
</svg>
