<svg width="32" height="32" viewBox="0 0 32 32" fill="none" xmlns="http://www.w3.org/2000/svg">
<path d="M16 5C16 2.79086 14.2091 1 12 1H1V25H7.66298M16 5C16 2.79086 17.7909 1 20 1L31 1V25H24.3373M16 5L16 14M12 7H5M12 11H5M27 7H20M27 11H20M24.3373 25L24.3613 25.0179L22.3613 28.4821L20.34 27.6119C19.4182 27.2151 18.3744 27.8178 18.2571 28.8144L18 31H14L13.7429 28.8145C13.6257 27.8179 12.5818 27.2152 11.6601 27.612L9.63892 28.4821L7.63892 25.0179L7.66298 25M24.3373 25L22.5972 23.7025C21.7927 23.1027 21.7927 21.8973 22.5972 21.2975L24.3613 19.9821L22.3613 16.518L20.34 17.3881C19.4182 17.7849 18.3744 17.1822 18.2571 16.1856L18 14H16M7.66298 25L9.40308 23.7025C10.2076 23.1027 10.2076 21.8973 9.40308 21.2975L7.63892 19.982L9.63892 16.5179L11.6601 17.388C12.5818 17.7848 13.6257 17.1821 13.7429 16.1855L14 14H16M14 21.9821C14 23.0866 14.8955 23.9821 16 23.9821C17.1046 23.9821 18 23.0866 18 21.9821C18 20.8775 17.1046 19.982 16 19.9821C14.8955 19.9821 14 20.8775 14 21.9821Z" stroke="#A9B8C3" stroke-width="2" stroke-linecap="round" stroke-linejoin="round"/>
</svg>
