<svg width="64" height="61" viewBox="0 0 64 61" fill="none" xmlns="http://www.w3.org/2000/svg">
<path fill-rule="evenodd" clip-rule="evenodd" d="M29.1111 4.53237e-07H34.7967C42.6051 4.53237e-07 47.1682 1.08403 51.2189 3.13675C55.2696 5.18947 58.4662 8.18784 60.6135 12.0166C62.7852 15.8452 63.9321 20.1583 63.9321 27.5388V32.8897C63.9321 40.2703 62.7852 44.5833 60.6135 48.412C58.4417 52.2407 55.2696 55.2622 51.2189 57.2918C47.1682 59.3445 42.6051 60.4286 34.7967 60.4286H29.1355C21.327 60.4286 16.7639 59.3445 12.7132 57.2918C8.66257 55.2391 5.46595 52.2407 3.31862 48.412C1.14687 44.5833 0 40.2703 0 32.8897V27.5388C0 20.1583 1.14687 15.8452 3.31862 12.0166C5.49036 8.18784 8.66257 5.16642 12.7132 3.13675C16.7395 1.08403 21.327 4.53237e-07 29.1111 4.53237e-07Z" fill="#0068FF"/>
<path fill-rule="evenodd" clip-rule="evenodd" d="M63.9317 32.0071L63.9321 32.8897C63.9321 40.2703 62.7852 44.5833 60.6135 48.412C58.4417 52.2407 55.2696 55.2622 51.2189 57.2918C47.1682 59.3445 42.6051 60.4286 34.7967 60.4286H29.1355C22.7461 60.4286 18.5294 59.7031 14.9886 58.3146L9.15113 52.633L63.9317 32.0071Z" fill="#001A33" fill-opacity="0.12"/>
<path fill-rule="evenodd" clip-rule="evenodd" d="M9.65293 53.0327C12.643 53.3451 16.3812 52.5392 19.0355 51.3213C30.5614 57.3428 48.5785 57.0552 59.4844 50.4583C59.9074 49.8586 60.3025 49.2349 60.6693 48.5884C62.849 44.7458 64 40.417 64 33.0096V27.6392C64 20.2316 62.849 15.9029 60.6693 12.0603C58.5141 8.21768 55.3059 5.20838 51.2404 3.14817C47.175 1.08797 42.5953 0 34.7583 0H29.0521C22.3773 0 18.0444 0.794172 14.4038 2.31033C14.2048 2.47876 14.0096 2.65008 13.8184 2.82427C3.1376 12.5562 2.32569 33.6516 11.3826 45.1111C11.3928 45.128 11.4039 45.1451 11.4162 45.1623C12.8122 47.1068 11.4652 50.5096 9.35904 52.5003C9.01617 52.8013 9.13862 52.9865 9.65293 53.0327Z" fill="white"/>
<path d="M26.1087 20.683H13.5907V23.2201H22.2776L13.7126 33.2531C13.4442 33.6221 13.2491 33.9681 13.2491 34.7522V35.398H25.0593C25.645 35.398 26.1331 34.9368 26.1331 34.3832V33.0224H17.0069L25.0593 23.4738C25.1814 23.3354 25.401 23.0818 25.4987 22.9664L25.5474 22.8972C26.0111 22.2514 26.1087 21.6978 26.1087 21.029V20.683Z" fill="#0068FF"/>
<path d="M42.042 35.398H43.8234V20.683H41.1392V34.5447C41.1392 35.006 41.5296 35.398 42.042 35.398Z" fill="#0068FF"/>
<path d="M51.754 23.866C48.3622 23.866 45.6049 26.4723 45.6049 29.6782C45.6049 32.8842 48.3622 35.4905 51.754 35.4905C55.1458 35.4905 57.9032 32.8842 57.9032 29.6782C57.9032 26.4723 55.1458 23.866 51.754 23.866ZM51.754 33.1148C49.7531 33.1148 48.1426 31.5926 48.1426 29.7013C48.1426 27.81 49.7531 26.2877 51.754 26.2877C53.755 26.2877 55.3655 27.81 55.3655 29.7013C55.3655 31.5926 53.755 33.1148 51.754 33.1148Z" fill="#0068FF"/>
<path fill-rule="evenodd" clip-rule="evenodd" d="M32.8674 23.9587C29.5 23.9587 26.7671 26.5419 26.7671 29.7248C26.7671 32.9076 29.5 35.4908 32.8674 35.4908C34.22 35.4908 35.4702 35.0741 36.482 34.3692V34.406C36.482 34.9364 36.97 35.3976 37.5557 35.3976H38.9954V24.2806H36.482V25.0682C35.4713 24.3706 34.2219 23.9587 32.8674 23.9587ZM29.2804 29.7248C29.2804 31.5929 30.891 33.1152 32.8674 33.1152C34.8684 33.1152 36.4545 31.5929 36.4545 29.7248C36.4545 27.8566 34.8439 26.3343 32.8674 26.3343C30.891 26.3343 29.2804 27.8566 29.2804 29.7248Z" fill="#0068FF"/>
</svg>
