<svg width="24" height="24" viewBox="0 0 24 24" fill="none" xmlns="http://www.w3.org/2000/svg">
<path d="M19.6667 5H17.4722C17.1667 5 17.0278 5.35547 17.2222 5.57422L17.6944 6.03906L16.3333 7.37891C15.7222 6.99609 15 6.75 14.2222 6.75C13.2778 6.75 12.4167 7.07812 11.7222 7.59766C12.1111 8.0625 12.4167 8.58203 12.6111 9.15625C13.0278 8.77344 13.5833 8.5 14.2222 8.5C15.4444 8.5 16.4444 9.48438 16.4444 10.6875C16.4444 11.918 15.4444 12.875 14.2222 12.875C13.5833 12.875 13.0278 12.6289 12.6111 12.2188C12.4167 12.8203 12.1111 13.3398 11.7222 13.8047C12.4167 14.3242 13.2778 14.625 14.2222 14.625C16.4167 14.625 18.2222 12.875 18.2222 10.6875C18.2222 9.92188 17.9722 9.21094 17.5833 8.60938L18.9444 7.26953L19.4167 7.73438C19.4722 7.78906 19.5556 7.81641 19.6389 7.81641C19.8333 7.81641 20 7.70703 20 7.48828V5.32812C20 5.16406 19.8333 5 19.6667 5ZM8 6.75C5.77778 6.75 4 8.52734 4 10.6875C4 12.5742 5.30556 14.1328 7.11111 14.543V15.9375H6.11111C5.91667 15.9375 5.77778 16.1016 5.77778 16.2656V17.3594C5.77778 17.5508 5.91667 17.6875 6.11111 17.6875H7.11111V18.6719C7.11111 18.8633 7.25 19 7.44444 19H8.55556C8.72222 19 8.88889 18.8633 8.88889 18.6719V17.6875H9.88889C10.0556 17.6875 10.2222 17.5508 10.2222 17.3594V16.2656C10.2222 16.1016 10.0556 15.9375 9.88889 15.9375H8.88889V14.543C10.6667 14.1328 12 12.5742 12 10.6875C12 8.52734 10.1944 6.75 8 6.75ZM8 12.875C6.75 12.875 5.77778 11.918 5.77778 10.6875C5.77778 9.48438 6.75 8.5 8 8.5C9.22222 8.5 10.2222 9.48438 10.2222 10.6875C10.2222 11.918 9.22222 12.875 8 12.875Z" fill="#4579A6"/>
</svg>
