<svg width="168" height="128" viewBox="0 0 168 128" fill="none" xmlns="http://www.w3.org/2000/svg">
<g opacity="0.2">
<path d="M157.589 45.8775C159.935 50.1418 163.346 54.1633 163.641 58.9705C164.115 66.6924 156.586 72.5144 153.507 79.6706C149.728 88.4548 152.897 98.8047 149.552 107.748C147.128 114.229 141.182 119.405 134.194 121.119C128.957 122.403 123.449 121.822 118.042 121.875C102.691 122.025 87.3987 127.333 72.2568 124.923C64.7798 123.733 57.7113 120.696 50.1997 119.721C41.1924 118.553 30.6974 119.966 24.2602 113.844C15.2672 105.292 21.9435 89.5678 15.1947 79.3077C13.0215 76.0038 9.52004 73.4189 8.34666 69.6825C6.97507 65.3165 9.19711 60.6637 11.9562 56.9418C14.7153 53.2199 18.1291 49.7923 19.6236 45.4631C20.9804 41.532 20.1518 37.2586 18.4827 33.4382C15.9258 27.585 23.043 14.1645 37.1607 15.1704C43.6325 15.6315 46.5456 8.13543 53.6449 6.05755C61.773 3.67864 71.978 5.59117 77.9671 7.58178C84.0527 9.60419 91.5757 10.6673 95.064 5.49931C99.9889 -1.79677 114.672 -2.93871 121.264 8.91027C123.672 13.2381 125.817 16.6052 130.942 16.2752C158.72 14.485 154.103 39.54 157.589 45.8775ZM81.8784 5.84485C81.8784 6.83874 81.8784 8.54352 86.2585 8.2651C87.6029 8.1796 88.6979 7.45953 88.6979 6.46564C88.6979 5.4721 87.6057 4.66653 86.2585 4.66653C84.9117 4.66617 81.8784 4.25703 81.8784 5.84485ZM38.727 10.6656C38.5902 10.7394 38.5199 10.8857 38.4376 11.0136C38.1539 11.4531 37.6635 11.7337 37.1625 11.9294C36.8689 12.0442 36.5533 12.1435 36.3368 12.3647C35.9926 12.7162 36.0347 13.3434 36.4226 13.6504C36.736 13.8985 37.1787 13.9232 37.5857 13.903C39.1089 13.8278 40.6013 13.2702 41.7729 12.3389C43.3141 11.1132 39.5749 10.2066 38.727 10.6656ZM34.5712 12.9554C34.0578 12.6187 33.3957 12.8127 32.8848 13.0759C32.7739 13.1332 32.6601 13.2102 32.6276 13.3268C32.5608 13.5684 32.8661 13.7395 33.1152 13.8175C33.5031 13.9387 33.9257 14.0571 34.3115 13.9288C34.6973 13.8006 35.0842 13.2918 34.5712 12.9554ZM15.1976 44.6338C14.8181 43.4757 13.9207 42.8997 12.5625 43.5594C11.7523 43.953 11.1877 44.6844 10.7037 45.4182C9.92247 46.6033 9.2501 47.9575 9.4144 49.3486C9.53417 50.3626 10.1193 51.3183 10.986 51.9165C11.3414 52.1617 11.7619 52.3532 12.2007 52.3387C12.6826 52.3228 13.1172 52.0631 13.491 51.7727C14.3747 51.0869 15.0545 50.1972 15.724 49.3178C16.071 48.862 16.4299 48.3787 16.4964 47.8187C16.6373 46.6322 15.5466 45.6998 15.1976 44.6338ZM157.223 80.3132C156.876 80.4546 156.522 80.633 156.322 80.939C156.167 81.1782 156.125 81.4668 156.094 81.747C156.029 82.3297 155.996 82.9165 155.996 83.5027C155.995 84.1447 156.064 84.8566 156.558 85.2937C157.223 85.8823 158.278 85.676 159.149 85.4332C159.639 85.2961 160.162 85.1389 160.478 84.7548C160.708 84.474 160.793 84.1111 160.856 83.7595C161.067 82.5879 161.712 80.8125 160.997 80.2058C160.281 79.5988 158.468 79.8055 157.223 80.3132ZM108.156 125.687C107.979 125.853 107.811 126.033 107.705 126.247C107.414 126.832 107.714 127.624 108.339 127.878C108.653 128.005 109.006 128.003 109.347 127.999C112.269 127.959 115.41 127.852 117.745 126.175C118.03 125.971 118.324 125.683 118.274 125.346C118.213 124.939 117.707 124.763 117.284 124.681C114.363 124.117 110.503 123.487 108.156 125.687ZM52.6877 121.177C50.1459 120.834 46.1043 120.348 46.1054 122.404C46.1057 123.18 49.6919 123.927 50.2852 124.07C52.1203 124.513 53.8392 125.167 55.6323 125.829C58.9595 127.059 61.6243 125.403 58.9896 123.547C56.817 122.016 54.737 121.453 52.6877 121.177Z" fill="#C8EEFB"/>
</g>
<path d="M136.198 72.5896C136.198 72.5896 142.103 72.0505 147.699 69.7581C147.876 69.6857 147.983 70.888 147.983 70.888C147.983 70.888 148.807 69.2801 149.094 69.1451C152.122 67.7166 154.9 65.7264 156.389 62.9708C156.389 62.9708 157.122 79.8673 135.402 83.62L136.198 72.5896Z" fill="#5084DA"/>
<path d="M143.421 91.8643C143.421 91.8643 150.589 95.6639 164.607 96.3243C164.607 96.3243 155.071 105.027 133.252 102.03L133.967 92.1194L143.421 91.8643Z" fill="#5084DA"/>
<path d="M133.393 82.2176C133.393 82.2176 136.628 80.1503 141.88 78.3657C142.09 78.2947 142.533 79.5327 142.533 79.5327C142.533 79.5327 143.251 77.9205 143.63 77.8068C149.904 75.9278 158.49 74.7011 167.737 77.3114C167.737 77.3114 164.936 81.2138 159.202 85.4862C158.957 85.6685 157.338 85.5243 157.338 85.5243C157.338 85.5243 158.018 86.3437 157.794 86.4992C152.346 90.2882 144.621 94.1479 134.531 95.6767L133.393 82.2176Z" fill="#5193F4"/>
<g opacity="0.4">
<path d="M167.737 77.3114C165.033 79.0557 162.19 80.5782 159.296 81.9873C156.402 83.4009 153.427 84.6435 150.415 85.7819C148.911 86.3592 147.373 86.8415 145.848 87.3588L143.533 88.052C143.147 88.1651 142.763 88.287 142.375 88.3933L141.204 88.6873C138.094 89.5296 134.917 90.0946 131.735 90.5493L134.097 90.0628L135.278 89.8243C135.67 89.7377 136.058 89.6342 136.448 89.5402L138.79 88.9819L141.11 88.3403C142.66 87.9276 144.183 87.4188 145.718 86.9539C147.232 86.4257 148.758 85.9307 150.252 85.3441C153.266 84.2471 156.227 83.0027 159.143 81.6633C160.603 80.9965 162.05 80.2998 163.482 79.5751C164.919 78.8568 166.337 78.1025 167.737 77.3114Z" fill="#5084DA"/>
<path d="M148.13 86.3699C148.728 85.8106 149.309 85.2414 149.888 84.6754C150.463 84.1033 151.029 83.5271 151.574 82.9314C152.125 82.341 152.64 81.7212 153.147 81.0937C153.643 80.4567 154.111 79.7995 154.559 79.1113C154.275 79.8794 153.9 80.6207 153.443 81.3072C152.986 81.9922 152.474 82.6406 151.918 83.2476C150.796 84.4482 149.544 85.5346 148.13 86.3699Z" fill="#5084DA"/>
<path d="M139.447 88.9749C140.096 88.5512 140.69 88.0693 141.257 87.5651C141.82 87.0567 142.352 86.5165 142.825 85.9278C143.307 85.3473 143.746 84.7301 144.126 84.0743C144.523 83.426 144.84 82.7331 145.166 82.0275C145.014 82.7847 144.803 83.5465 144.448 84.2457C144.122 84.9597 143.68 85.6169 143.185 86.2253C142.686 86.832 142.117 87.3803 141.488 87.8464C140.864 88.3177 140.179 88.7124 139.447 88.9749Z" fill="#5084DA"/>
<path d="M148.13 86.3699C149.258 86.4144 150.356 86.4313 151.452 86.3533C152.001 86.3246 152.545 86.26 153.09 86.1812C153.638 86.1105 154.174 85.984 154.734 85.883C154.245 86.1657 153.717 86.3967 153.166 86.5381C152.617 86.6939 152.051 86.7818 151.483 86.8196C150.914 86.8522 150.343 86.8458 149.78 86.7709C149.217 86.7006 148.657 86.5819 148.13 86.3699Z" fill="#5084DA"/>
<path d="M139.624 88.9876C140.299 89.0685 140.968 89.1332 141.633 89.2021C142.3 89.2628 142.964 89.3187 143.629 89.3473C144.293 89.3805 144.956 89.3766 145.621 89.3589C146.285 89.3236 146.947 89.2632 147.621 89.1593C147.001 89.4374 146.334 89.625 145.655 89.7225C144.976 89.8161 144.29 89.8402 143.607 89.8144C142.246 89.7377 140.889 89.4967 139.624 88.9876Z" fill="#5084DA"/>
</g>
<g opacity="0.2278">
<path opacity="0.5" d="M154.156 67.3619C153.577 68.9469 152.558 70.3436 151.401 71.5732C150.237 72.8077 148.863 73.8295 147.407 74.6937L146.286 75.2929C145.914 75.4961 145.516 75.6427 145.131 75.8166C144.362 76.1724 143.551 76.4204 142.749 76.6794C142.351 76.8228 141.934 76.8988 141.526 77.0019L140.297 77.2941C139.465 77.4245 138.632 77.5464 137.801 77.651C138.616 77.4415 139.436 77.2758 140.246 77.0705L141.447 76.7172C141.846 76.5942 142.253 76.4992 142.638 76.337C143.413 76.0314 144.209 75.7858 144.953 75.4109C145.327 75.2308 145.719 75.0887 146.081 74.8848L147.173 74.2888C148.603 73.4521 149.948 72.4685 151.146 71.3209C151.445 71.0322 151.745 70.745 152.013 70.4273C152.15 70.2715 152.293 70.12 152.425 69.9599L152.811 69.4691C153.323 68.8141 153.785 68.1149 154.156 67.3619Z" fill="#605ACA"/>
</g>
<path d="M160.026 97.5175C159.044 97.7062 158.05 97.8224 157.056 97.939C156.061 98.0355 155.063 98.1079 154.062 98.1588C152.062 98.2563 150.055 98.2107 148.054 98.0737C147.055 97.9889 146.057 97.8744 145.066 97.7147C144.075 97.5642 143.086 97.3822 142.115 97.1222C140.173 96.619 138.265 95.9177 136.557 94.8729C137.458 95.3043 138.379 95.6841 139.327 95.9873C140.269 96.3035 141.229 96.5621 142.198 96.7724C144.137 97.1967 146.11 97.4621 148.091 97.6076C150.071 97.7825 152.062 97.821 154.052 97.8005C156.043 97.7769 158.035 97.6882 160.026 97.5175Z" fill="#4CA1FF"/>
<path d="M150.631 101.019C149.326 101.123 147.992 100.841 146.794 100.261C146.2 99.9579 145.651 99.5583 145.191 99.0728C144.724 98.5895 144.408 97.9825 144.203 97.3674C144.575 97.9076 144.968 98.4015 145.445 98.8114C145.926 99.2128 146.442 99.565 147.005 99.8438C147.566 100.125 148.157 100.349 148.763 100.543C149.371 100.727 149.991 100.896 150.631 101.019Z" fill="#4CA1FF"/>
<path d="M145.405 101.33C144.109 101.149 142.868 100.585 141.824 99.759C141.31 99.3343 140.859 98.8251 140.515 98.2517C140.164 97.6786 139.987 97.0179 139.92 96.3727C140.166 96.9812 140.443 97.5479 140.82 98.0514C141.202 98.5471 141.631 99.0029 142.119 99.3972C142.606 99.7932 143.134 100.14 143.684 100.46C144.238 100.771 144.807 101.071 145.405 101.33Z" fill="#4CA1FF"/>
<path d="M88.1219 115.614C85.9405 113.101 82.6228 111.612 79.2942 111.656C76.8368 111.688 74.4236 112.505 71.9716 112.354C69.3955 112.2 66.9039 110.923 65.2744 108.918C63.6449 106.914 62.8997 104.218 63.2718 101.662C63.5558 99.719 64.572 97.768 66.3315 96.8988C67.2901 96.426 68.3985 96.308 69.4637 96.4038C70.4467 96.4921 71.3879 96.7589 72.2772 97.1564C74.3116 98.0594 76.0811 99.6508 77.4954 101.408C78.7794 103.005 81.7119 105.356 83.6944 106.873C84.8568 107.76 85.6949 108.359 85.6949 108.359C87.0923 109.651 87.1651 113.968 88.1219 115.614Z" fill="#52D2BC"/>
<path d="M66.5879 102.356C72.7639 104.115 79.5859 106.608 84.4083 110.849" stroke="#00AD9F" stroke-width="0.356748" stroke-miterlimit="10" stroke-linecap="round" stroke-linejoin="round"/>
<path d="M106.391 101.487C106.3 102.513 106.089 103.562 105.591 104.494C105.247 105.137 104.781 105.699 104.254 106.199C103.983 106.457 103.692 106.698 103.398 106.924C102.25 107.799 100.974 108.468 99.6484 108.89C97.7172 109.505 95.6496 109.619 93.8745 110.708C93.0601 111.207 92.3464 111.901 91.798 112.71C91.4542 113.213 91.1772 113.761 90.9801 114.333L90.9727 112.604C91.1617 110.689 91.3557 108.738 92.0694 106.908C92.5297 105.722 93.1954 104.616 93.9229 103.567C95.0857 101.888 96.4219 100.324 97.9642 99.0237C99.2107 97.9718 100.639 97.079 102.163 96.8521C103.685 96.6239 105.306 97.1871 106.003 98.5286C106.451 99.39 106.483 100.458 106.391 101.487Z" fill="#5193F4"/>
<path opacity="0.31" d="M92.0439 110.987C93.1301 108.417 95.0058 106.153 97.2939 104.65C98.7196 103.714 100.283 103.074 101.738 102.197C103.194 101.32 104.596 100.127 105.278 98.5276" stroke="#0B43A4" stroke-width="0.356748" stroke-miterlimit="10" stroke-linecap="round" stroke-linejoin="round"/>
<path d="M89.668 112.562C92.3847 109.866 96.2384 108.632 100.026 108.088C103.186 107.635 106.505 107.618 109.46 108.824C110.386 109.202 111.299 109.728 111.847 110.564C112.394 111.401 112.472 112.609 111.803 113.353C111.239 113.979 110.323 114.132 109.479 114.163C106.704 114.262 103.99 113.456 101.272 112.886C96.6009 111.907 91.5141 111.671 87.2676 113.85" fill="#52D2BC"/>
<path d="M93.0547 111.144C98.6774 108.773 106.799 109.537 110.341 111.988" stroke="#00AD9F" stroke-width="0.356748" stroke-miterlimit="10" stroke-linecap="round" stroke-linejoin="round"/>
<path d="M26.5492 83.5652C24.0085 82.3445 22.7906 79.0915 20.7032 78.3923C18.1162 77.498 17.3908 80.3878 13.2078 79.6734C9.69725 79.0738 8.63058 75.1254 2.76191 76.3469C0.96987 76.72 -0.219761 78.235 0.453315 80.0518C0.956798 81.8598 3.44665 83.0038 4.92848 83.9274C6.24248 84.6694 7.40561 85.0672 8.18468 86.4469C8.19281 86.4614 8.20094 86.4769 8.20765 86.4918C8.73162 87.6132 8.52246 88.6131 9.74601 89.4335C12.6125 91.5305 16.1825 88.2008 19.4433 88.298C21.743 88.3669 21.6787 90.755 24.4438 91.4464C27.182 92.1311 26.2839 89.6795 32.0289 91.9061C32.2352 91.9863 32.4684 91.8828 32.5476 91.6761C32.603 91.5319 32.5698 91.3676 32.4631 91.2563C28.4416 87.0472 30.2891 85.3626 26.5492 83.5652Z" fill="#4A84D8"/>
<path d="M26.5492 83.5652C24.0085 82.3445 22.7906 79.0915 20.7032 78.3923C18.1162 77.498 17.3908 80.3878 13.2078 79.6734C9.69725 79.0738 8.63058 75.1254 2.76191 76.3469C0.96987 76.72 -0.219761 78.235 0.453315 80.0518C0.956798 81.8598 3.44665 83.0038 4.92848 83.9274C6.24248 84.6694 7.40561 85.0672 8.18468 86.4469C8.19281 86.4614 8.20094 86.4769 8.20765 86.4918C8.73162 87.6132 8.52246 88.6131 9.74601 89.4335C12.6125 91.5305 16.1825 88.2008 19.4433 88.298C21.743 88.3669 21.6787 90.755 24.4438 91.4464C27.182 92.1311 26.2839 89.6795 32.0289 91.9061C32.2352 91.9863 32.4684 91.8828 32.5476 91.6761C32.603 91.5319 32.5698 91.3676 32.4631 91.2563C28.4416 87.0472 30.2891 85.3626 26.5492 83.5652Z" fill="#00AD9F"/>
<g opacity="0.5">
<path d="M29.8014 89.0505C27.6274 87.927 26.3657 85.4827 24.0514 84.598C22.8381 84.1341 21.8425 84.3772 20.5984 84.5344C19.1544 84.7167 18.4213 83.5454 17.2334 83.0413C16.0833 82.553 14.981 83.1752 13.7938 83.0172C12.5187 82.8473 11.4191 81.8601 10.4465 81.0959C8.3926 79.4826 6.07729 78.5583 3.44257 78.5661C3.31043 78.5664 3.36944 78.9116 3.51783 78.9113C6.35288 78.9035 8.65053 80.0384 10.8355 81.7513C11.6718 82.407 12.5332 83.0197 13.567 83.3105C14.7361 83.6398 15.8795 82.9307 17.0348 83.2939C18.039 83.6097 18.7138 84.5443 19.7476 84.8393C20.2342 84.9785 20.7935 84.8718 21.2775 84.7909C22.0587 84.6605 22.771 84.5729 23.5511 84.7619C26.1177 85.3838 27.4878 88.1948 29.7636 89.3703C29.9247 89.4544 29.9169 89.1102 29.8014 89.0505Z" fill="#4CA1FF"/>
</g>
<path d="M51.2837 100.649C42.9248 101.532 41.5878 102.254 39.5838 101.388C37.0296 100.284 34.3458 100.558 31.7715 99.5028C29.1972 98.4474 26.401 97.6411 23.655 98.087C22.7866 98.228 21.8234 98.5806 21.7022 99.5992C21.6538 100.008 21.7853 100.421 22.0252 100.755C22.6301 101.599 23.6183 101.882 24.5638 102.143L27.7239 103.014C28.7517 103.298 28.686 104.812 27.6306 104.963C27.6218 104.965 27.6129 104.966 27.6041 104.967C26.719 105.087 25.8227 104.912 24.9503 104.719C23.0526 104.299 21.1514 103.787 19.2078 103.785C16.8557 103.781 14.3623 104.631 13.1992 106.824C12.7869 107.602 12.6321 108.505 12.7788 109.373C13.1886 111.798 15.4573 112.608 17.468 112.427C18.8827 112.299 20.2201 111.752 21.556 111.269C24.8189 110.089 27.6108 111.391 31.0794 111.481C40.6512 111.729 51.2837 100.649 51.2837 100.649Z" fill="#7EE8D4"/>
<path d="M15.376 108.298C21.3277 107.619 27.3232 106.93 33.0335 105.12C34.7083 104.589 36.866 104.442 41.5935 100.953" stroke="#00AD9F" stroke-width="0.356748" stroke-miterlimit="10" stroke-linecap="round" stroke-linejoin="round"/>
<path d="M25.0157 73.7817C25.2139 73.9365 25.4213 74.0637 25.6379 74.1672C26.6593 74.671 27.8292 74.7406 28.6418 75.6575C29.1845 76.2345 29.4785 77.0075 29.8837 77.6944C29.9661 77.8467 30.0597 77.9912 30.1618 78.1293C31.4182 79.8525 32.6545 80.0525 33.9773 80.0228C34.52 80.0097 35.0814 79.9578 35.6591 79.9581C36.5424 79.9571 37.483 80.0712 38.4952 80.6277C39.1344 80.9722 39.8025 81.4937 40.5088 82.2664C40.6356 82.4042 40.8632 82.4162 41.0434 82.3013C41.2045 82.1957 41.2865 82.0077 41.2511 81.8385C40.8975 80.2478 40.2057 79.2038 39.3729 78.4194C37.0318 76.2037 33.5752 76.0278 33.3657 71.454C33.3215 70.4746 33.5297 69.7797 33.3731 69.0815C33.2926 68.7299 33.1191 68.3766 32.7743 67.9844C32.0662 67.2216 31.0483 66.8842 30.1413 66.2744C27.6857 64.5229 28.8559 61.6568 28.6383 58.9299C28.492 56.704 26.4904 55.255 24.8539 53.9943C22.8078 52.4885 22.8124 49.7725 21.4316 47.754C20.0536 45.7337 16.6225 44.92 14.7973 47.6346C12.8593 50.3442 13.9235 53.7322 14.4807 56.4807C14.6263 57.199 14.8796 57.8371 15.2142 58.4176C16.2357 60.2015 17.9892 61.4724 19.5039 62.9832C20.4377 63.9106 21.2147 64.9621 21.7588 66.1486C22.0764 66.8422 22.3152 67.5788 22.459 68.366C22.4916 68.5494 22.5272 68.7303 22.5626 68.9119C22.9159 70.8184 23.3328 72.5158 25.0157 73.7817Z" fill="#7EE8D4"/>
<g opacity="0.5">
<path d="M16.3099 47.6738C16.3749 49.3231 16.4678 50.9766 17.0578 52.5351C17.6016 53.9699 18.7591 54.9377 19.9081 55.8853C20.5794 56.4393 21.2249 57.0099 21.7227 57.73C22.2591 58.5052 22.3046 59.4662 22.6717 60.3135C22.947 60.9491 23.5604 61.2742 24.1264 61.6087C24.9595 62.1013 25.4746 62.897 25.8788 63.752C26.4385 64.936 26.7544 66.2694 27.5536 67.3297C28.1405 68.1088 29.0859 68.5808 29.4594 69.5048C29.8127 70.3799 29.7088 71.441 29.9297 72.3603C30.7741 75.8727 34.4345 77.641 37.3989 79.037C37.5639 79.1151 37.5543 78.772 37.4367 78.7169C35.6542 77.8771 33.8579 77.0241 32.3605 75.7193C30.8398 74.394 30.0975 72.743 29.9018 70.7626C29.8473 70.2103 29.7852 69.5931 29.5209 69.0946C29.1693 68.431 28.6015 68.0798 28.0723 67.5672C26.9551 66.4849 26.6049 64.7791 25.959 63.4135C25.3814 62.1917 24.573 61.5769 23.465 60.8625C22.5774 60.2902 22.5728 59.0864 22.2202 58.1865C22.0068 57.642 21.6316 57.1696 21.244 56.7407C20.2501 55.6404 18.9424 54.8829 17.9941 53.7311C16.6473 52.0963 16.6052 49.7333 16.5264 47.7229C16.519 47.543 16.3007 47.4381 16.3099 47.6738Z" fill="#4CA1FF"/>
</g>
<path opacity="0.37" d="M35.6596 79.9584C36.5429 79.9574 37.4835 80.0715 38.4957 80.628C38.5858 79.2246 39.0579 78.9331 39.373 78.4197C37.0319 76.204 33.5754 76.0281 33.3659 71.4543C33.3217 70.4749 33.5298 69.7799 33.3733 69.0818C32.6748 70.5484 31.4216 70.8494 31.5201 72.3465C31.6053 73.8908 33.5807 75.3207 33.9347 77.2693C34.2262 78.8783 34.8194 79.2885 35.6596 79.9584Z" fill="#5A4FD1"/>
<path d="M58.3138 103.008C56.7345 102.385 54.6258 102.129 53.6132 103.492C52.7656 104.633 53.2044 106.25 53.7899 107.545C54.2842 108.639 54.912 109.751 55.9547 110.346C56.667 110.751 57.5015 110.874 58.3156 110.971C60.586 111.241 62.8731 111.373 65.1597 111.367C67.81 111.359 71.0203 112.441 73.213 114.094C70.3988 108.863 63.6285 105.108 58.3138 103.008Z" fill="#5084DA"/>
<path opacity="0.31" d="M55.543 106.409C57.553 106.494 59.5814 106.636 61.5109 107.206C63.4839 107.79 71.0732 111.273 72.2596 112.755" stroke="#0B43A4" stroke-width="0.356748" stroke-miterlimit="10" stroke-linecap="round" stroke-linejoin="round"/>
<path d="M135.477 64.1117C135.428 64.3474 135.408 64.5791 135.411 64.8088C135.415 65.8981 135.853 66.9301 135.413 68.0166C135.15 68.7268 134.613 69.308 134.197 69.9475C134.102 70.0828 134.018 70.2245 133.943 70.3708C133.001 72.1805 133.356 73.3249 133.944 74.4453C134.187 74.9049 134.47 75.3639 134.715 75.8585C135.092 76.615 135.395 77.4693 135.349 78.5735C135.326 79.2677 135.164 80.062 134.802 80.9958C134.738 81.163 134.825 81.3629 135 81.4682C135.159 81.5619 135.355 81.5513 135.485 81.4491C136.697 80.4694 137.297 79.4324 137.614 78.3851C138.516 75.436 137.195 72.4002 141.025 70.2743C141.845 69.8196 142.529 69.7019 143.061 69.2709C143.328 69.0522 143.556 68.7529 143.745 68.2908C144.098 67.3594 143.954 66.344 144.09 65.3073C144.546 62.4581 147.499 62.2412 149.743 60.8936C151.588 59.821 151.977 57.4897 152.36 55.5507C152.779 53.157 155.108 52.0048 156.25 49.963C157.394 47.9225 156.631 44.637 153.528 44.2286C150.382 43.7215 147.933 46.0754 145.815 47.7225C145.262 48.1529 144.823 48.6415 144.468 49.1754C143.374 50.8095 143.032 52.8528 142.383 54.7936C141.985 55.9885 141.415 57.1015 140.63 58.0724C140.171 58.6398 139.642 59.1578 139.028 59.616C138.886 59.722 138.745 59.8294 138.605 59.9372C137.123 61.0519 135.845 62.1313 135.477 64.1117Z" fill="#7EE8D4"/>
<g opacity="0.5">
<path d="M154.101 45.4839C152.76 46.217 151.311 46.9784 150.304 48.1603C149.242 49.4061 148.948 50.8819 148.569 52.4316C148.373 53.2339 148.105 53.9992 147.635 54.6843C147.206 55.3079 146.516 55.7037 146.03 56.2796C145.56 56.8354 145.61 57.6317 145.537 58.3069C145.443 59.1867 144.883 59.9566 144.342 60.6212C143.501 61.6543 142.51 62.5376 141.953 63.7728C141.566 64.6307 141.621 65.4567 140.885 66.1538C140.259 66.7464 139.426 67.094 138.766 67.6505C136.145 69.8605 136.218 73.7753 136.282 76.8796C136.286 77.0605 136.504 77.164 136.499 76.9287C136.458 74.96 136.426 72.9761 136.988 71.0692C137.515 69.2828 138.634 68.0388 140.182 67.0693C140.698 66.7456 141.159 66.399 141.516 65.9016C141.905 65.3603 141.914 64.5957 142.15 63.9855C142.671 62.6383 143.93 61.6522 144.796 60.5364C145.128 60.1099 145.386 59.6432 145.579 59.1404C145.907 58.291 145.666 57.3417 146.197 56.5555C146.614 55.9383 147.338 55.5517 147.802 54.9603C148.215 54.4345 148.444 53.7661 148.635 53.1354C149.082 51.6539 149.222 50.1442 150.139 48.8439C151.121 47.4526 152.772 46.6011 154.227 45.805C154.344 45.7414 154.243 45.4068 154.101 45.4839Z" fill="#4CA1FF"/>
</g>
<path d="M126.347 107.727C128.754 109.084 129.736 112.344 131.732 113.162C134.205 114.202 135.1 111.423 139.145 112.39C142.539 113.202 143.329 117.132 149.147 116.315C150.923 116.065 152.184 114.66 151.643 112.84C151.266 111.039 148.905 109.76 147.515 108.762C146.277 107.952 145.165 107.489 144.492 106.089C144.485 106.075 144.478 106.059 144.472 106.044C144.032 104.914 144.301 103.949 143.157 103.068C140.488 100.833 136.783 103.86 133.6 103.555C131.356 103.34 131.572 101.009 128.912 100.155C126.278 99.3091 126.999 101.765 121.524 99.218C121.327 99.1265 121.093 99.2127 121.002 99.4095C120.938 99.5473 120.96 99.7098 121.057 99.8257C124.72 104.2 122.805 105.729 126.347 107.727Z" fill="#4A84D8"/>
<path d="M126.347 107.727C128.754 109.084 129.736 112.344 131.732 113.162C134.205 114.202 135.1 111.423 139.145 112.39C142.539 113.202 143.329 117.132 149.147 116.315C150.923 116.065 152.184 114.66 151.643 112.84C151.266 111.039 148.905 109.76 147.515 108.762C146.277 107.952 145.165 107.489 144.492 106.089C144.485 106.075 144.478 106.059 144.472 106.044C144.032 104.914 144.301 103.949 143.157 103.068C140.488 100.833 136.783 103.86 133.6 103.555C131.356 103.34 131.572 101.009 128.912 100.155C126.278 99.3091 126.999 101.765 121.524 99.218C121.327 99.1265 121.093 99.2127 121.002 99.4095C120.938 99.5473 120.96 99.7098 121.057 99.8257C124.72 104.2 122.805 105.729 126.347 107.727Z" fill="#00AD9F"/>
<g opacity="0.5">
<path d="M123.53 102.158C125.667 103.451 126.774 105.919 129.085 106.981C130.122 107.457 131.154 107.228 132.242 107.163C133.683 107.076 134.454 108.348 135.614 108.933C136.658 109.459 137.923 108.842 139.035 109.152C140.241 109.487 141.215 110.53 142.118 111.335C143.95 112.967 146.149 113.947 148.608 114.102C148.769 114.112 148.722 113.766 148.59 113.757C145.817 113.582 143.646 112.347 141.616 110.528C140.893 109.88 140.148 109.272 139.248 108.888C137.997 108.354 136.656 109.118 135.446 108.508C134.579 108.071 134.009 107.25 133.071 106.914C132.604 106.747 132.048 106.817 131.571 106.865C130.798 106.942 130.097 106.98 129.346 106.745C126.882 105.974 125.711 103.134 123.568 101.837C123.415 101.745 123.418 102.091 123.53 102.158Z" fill="#4CA1FF"/>
</g>
<path d="M40.3803 101.136C40.3803 101.136 29.8885 98.8409 21.8197 99.7044C21.5646 99.7316 21.8755 98.1417 21.8755 98.1417C21.8755 98.1417 20.2131 99.9062 19.7937 99.9737C15.3564 100.683 11.0328 102.211 8.08398 105.206C8.08398 105.206 13.4516 83.1542 42.849 86.4326L40.3803 101.136Z" fill="#5084DA"/>
<path d="M46.4799 102.319C46.4799 102.319 41.7793 100.209 35.9113 95.6271C35.6771 95.4445 36.7409 94.0365 36.7409 94.0365C36.7409 94.0365 34.4033 94.4174 33.9974 94.0757C27.2716 88.4166 19.5773 79.6832 15.7031 67.3851C15.7031 67.3851 22.1442 67.6575 31.1581 70.9494C31.5418 71.0893 32.5724 73.0132 32.5724 73.0132C32.5724 73.0132 32.9918 71.6469 33.3303 71.7836C41.5917 75.1108 51.6072 80.9399 60.7473 91.1392L46.4799 102.319Z" fill="#5193F4"/>
<g opacity="0.4">
<path d="M15.7021 67.6852C19.6491 69.4356 23.4498 71.5061 27.1603 73.7171C30.8759 75.9243 34.4596 78.3485 37.954 80.892C39.7085 82.1551 41.3812 83.5264 43.0838 84.857L45.5645 86.9444C45.9757 87.2946 46.3948 87.6359 46.7997 87.9934L47.9921 89.0919C51.225 91.9623 54.1975 95.1121 57.0485 98.3478L54.7646 96.0555L53.6283 94.9061C53.2429 94.5302 52.8408 94.1702 52.4482 93.8013L50.099 91.5839L47.6717 89.453C46.068 88.0167 44.3763 86.6822 42.7256 85.3018C41.0183 83.9906 39.34 82.642 37.583 81.3973C34.1331 78.8219 30.5589 76.4147 26.9098 74.127C25.0874 72.9794 23.241 71.8693 21.3737 70.7941C19.5102 69.7101 17.6203 68.6735 15.7021 67.6852Z" fill="#5084DA"/>
<path d="M40.2964 83.0257C39.2283 82.7656 38.1623 82.5331 37.1006 82.2989C36.036 82.0756 34.9725 81.8636 33.9034 81.6905C32.8356 81.5064 31.7612 81.3845 30.6835 81.2767C29.6038 81.1887 28.5219 81.1474 27.4199 81.1509C28.4908 80.905 29.5992 80.7803 30.7051 80.7877C31.8106 80.7966 32.9151 80.8955 34.0051 81.0718C36.178 81.4477 38.3185 82.0533 40.2964 83.0257Z" fill="#5084DA"/>
<path d="M29.9757 75.9568C29.215 75.9112 28.4592 75.8844 27.7059 75.8557C26.9523 75.8345 26.2004 75.8211 25.4496 75.8349C24.6985 75.8412 23.9505 75.8904 23.2021 75.9501C22.4545 76.0232 21.7115 76.1285 20.96 76.2666C21.6602 75.9667 22.4012 75.7448 23.1566 75.6134C23.912 75.483 24.6776 75.4141 25.4429 75.3999C26.9714 75.3886 28.5062 75.5374 29.9757 75.9568Z" fill="#5084DA"/>
<path d="M49.6089 90.8517C48.6567 90.4355 47.6787 90.1239 46.6954 89.8578C45.71 89.6002 44.7126 89.4003 43.7039 89.3031C42.6983 89.1893 41.6822 89.1501 40.6667 89.207C39.6474 89.2388 38.6365 89.3928 37.6045 89.5455C38.5659 89.1589 39.5764 88.8356 40.6222 88.7194C41.6631 88.5601 42.7259 88.5721 43.7731 88.6798C44.8207 88.794 45.8552 89.0296 46.8414 89.3928C47.8289 89.7454 48.7761 90.2242 49.6089 90.8517Z" fill="#5084DA"/>
<path d="M40.2968 83.0256C39.5163 81.7264 38.7277 80.4824 37.8334 79.309C37.3981 78.7144 36.9247 78.1508 36.435 77.5979C35.9524 77.0343 35.4164 76.5263 34.8906 75.9716C35.5676 76.3129 36.2156 76.7347 36.7798 77.2499C37.3586 77.7505 37.8737 78.3215 38.3341 78.9313C38.7888 79.5454 39.2018 80.1909 39.5326 80.8785C39.8675 81.5618 40.1463 82.2773 40.2968 83.0256Z" fill="#5084DA"/>
<path d="M49.4921 90.6447C49.0865 89.8278 48.6664 89.03 48.2544 88.2322C47.8322 87.4394 47.4061 86.6529 46.9492 85.8858C46.4973 85.1156 46.0052 84.3743 45.496 83.6408C44.9682 82.9218 44.4131 82.2233 43.8008 81.5435C44.5689 82.035 45.2706 82.6455 45.879 83.3352C46.4832 84.0281 47.0153 84.781 47.4887 85.5657C48.4046 87.1507 49.1327 88.8509 49.4921 90.6447Z" fill="#5084DA"/>
</g>
<g opacity="0.5">
<path d="M12.6016 100.381C13.9389 98.5541 15.7754 97.1348 17.7254 95.9823C19.6871 94.8266 21.8398 94.0228 24.0389 93.4525L25.7073 93.0989C26.2624 92.9755 26.8312 92.936 27.393 92.8558C28.5173 92.6848 29.6535 92.6674 30.7856 92.6335C31.3516 92.5971 31.9173 92.6551 32.4822 92.6745L34.1753 92.7568C35.2968 92.8992 36.4154 93.054 37.5259 93.2299C36.397 93.1949 35.2777 93.1024 34.1577 93.0642L32.4766 93.0706C31.9173 93.0798 31.3573 93.0508 30.8004 93.1162C29.6871 93.2204 28.5688 93.2395 27.4704 93.4451C26.921 93.5373 26.362 93.5741 25.82 93.702L24.1898 94.0616C22.0335 94.6058 19.9333 95.3714 17.9593 96.4027C17.4671 96.6631 16.9725 96.9211 16.5082 97.2306C16.2736 97.3804 16.0323 97.5221 15.8023 97.6797L15.1225 98.1679C14.2173 98.8202 13.3605 99.548 12.6016 100.381Z" fill="#4CA1FF"/>
</g>
<g opacity="0.5">
<path d="M30.7465 92.9143C30.1353 93.8891 29.5396 94.8106 29.0418 95.7854C28.7863 96.2687 28.5796 96.7697 28.3832 97.2796C28.1956 97.7947 28.0662 98.3233 27.9341 98.8904C27.6635 97.753 27.9599 96.5291 28.4835 95.4999C28.7577 94.9855 29.0771 94.4979 29.4566 94.0615C29.8336 93.6248 30.2544 93.2228 30.7465 92.9143Z" fill="#4CA1FF"/>
</g>
<path d="M94.4498 99.9957H77.0742V111.945H94.4498V99.9957Z" fill="#0056EC"/>
<path opacity="0.5" d="M94.4498 99.9957H77.0742V104.327H94.4498V99.9957Z" fill="#605ACA"/>
<path d="M103.397 111.757H68.1281C67.0144 111.757 66.1113 112.66 66.1113 113.774C66.1113 114.888 67.0144 115.791 68.1281 115.791H103.397C104.51 115.791 105.413 114.888 105.413 113.774C105.413 112.66 104.511 111.757 103.397 111.757Z" fill="#0056EC"/>
<path opacity="0.5" d="M105.414 113.776C105.414 114.887 104.511 115.791 103.397 115.791H68.1288C67.0144 115.791 66.1113 114.887 66.1113 113.776C66.1113 113.606 66.1308 113.442 66.1753 113.286C66.3894 114.165 67.184 114.815 68.1291 114.815H103.397C104.342 114.815 105.137 114.165 105.351 113.286C105.395 113.442 105.414 113.606 105.414 113.776Z" fill="#605ACA"/>
<path d="M31.3948 101.662C30.7129 101.662 30.1582 101.108 30.1582 100.426V28.6207C30.1582 27.9387 30.7129 27.384 31.3948 27.384H140.127C140.809 27.384 141.364 27.9387 141.364 28.6207V100.426C141.364 101.108 140.809 101.662 140.127 101.662H31.3948Z" fill="white"/>
<path d="M140.127 28.2673C140.322 28.2673 140.481 28.426 140.481 28.6207V100.426C140.481 100.621 140.322 100.779 140.127 100.779H31.3953C31.2006 100.779 31.042 100.621 31.042 100.426V28.6207C31.042 28.426 31.2006 28.2673 31.3953 28.2673H140.127ZM140.127 26.5007H31.3953C30.2248 26.5007 29.2754 27.4501 29.2754 28.6207V100.426C29.2754 101.596 30.2248 102.546 31.3953 102.546H140.128C141.298 102.546 142.248 101.596 142.248 100.426V28.6207C142.247 27.4501 141.298 26.5007 140.127 26.5007Z" fill="#0056EC"/>
<path d="M142.247 100.28V93.2596H29.2754V100.28C29.2754 101.603 30.3477 102.671 31.6674 102.671H139.855C141.175 102.671 142.247 101.603 142.247 100.28Z" fill="#0056EC"/>
<path d="M85.7617 51.4169C90.5709 51.4169 94.4696 47.5182 94.4696 42.7089C94.4696 37.8997 90.5709 34.001 85.7617 34.001C80.9524 34.001 77.0537 37.8997 77.0537 42.7089C77.0537 47.5182 80.9524 51.4169 85.7617 51.4169Z" fill="#C8EEFB"/>
<path d="M89.1269 40.7215C89.1269 42.5799 87.62 44.0865 85.7619 44.0865C83.9038 44.0865 82.3968 42.5799 82.3968 40.7215C82.3968 38.863 83.9034 37.3564 85.7619 37.3564C87.6203 37.3564 89.1269 38.863 89.1269 40.7215ZM90.8398 54.8123V48.9323C90.8398 46.6975 89.028 44.8861 86.7936 44.8861H84.7298C82.4951 44.8861 80.6836 46.6975 80.6836 48.9323V54.8123C80.6836 55.4316 81.1857 55.9337 81.805 55.9337H89.7187C90.3377 55.9337 90.8398 55.4316 90.8398 54.8123Z" fill="#5084DA"/>
<path d="M106.598 61.3226H64.928C63.025 61.3226 61.4824 59.78 61.4824 57.877C61.4824 55.9741 63.025 54.4315 64.928 54.4315H106.598C108.501 54.4315 110.043 55.9741 110.043 57.877C110.043 59.78 108.501 61.3226 106.598 61.3226Z" fill="#C8EEFB"/>
<path d="M105.151 58.7769H66.3742C65.8774 58.7769 65.4746 58.3738 65.4746 57.877C65.4746 57.3799 65.8774 56.9771 66.3742 56.9771H105.151C105.648 56.9771 106.051 57.3799 106.051 57.877C106.051 58.3741 105.648 58.7769 105.151 58.7769Z" fill="#5084DA"/>
<path d="M106.631 73.7164H64.9612C63.0582 73.7164 61.5156 72.1741 61.5156 70.2708C61.5156 68.3678 63.0582 66.8252 64.9612 66.8252H106.631C108.534 66.8252 110.077 68.3678 110.077 70.2708C110.077 72.1741 108.534 73.7164 106.631 73.7164Z" fill="#C8EEFB"/>
<path d="M66.0269 71.2315C65.5297 71.2315 65.127 70.8284 65.127 70.3316C65.127 69.8348 65.5297 69.4317 66.0269 69.4317C66.5236 69.4317 66.9264 69.8348 66.9264 70.3316C66.9268 70.8284 66.524 71.2315 66.0269 71.2315ZM69.6021 70.3316C69.6021 69.8348 69.1993 69.4317 68.7026 69.4317C68.2054 69.4317 67.8027 69.8348 67.8027 70.3316C67.8027 70.8284 68.2054 71.2315 68.7026 71.2315C69.1993 71.2315 69.6021 70.8284 69.6021 70.3316ZM72.2778 70.3316C72.2778 69.8348 71.875 69.4317 71.3783 69.4317C70.8811 69.4317 70.4784 69.8348 70.4784 70.3316C70.4784 70.8284 70.8811 71.2315 71.3783 71.2315C71.875 71.2315 72.2778 70.8284 72.2778 70.3316ZM74.9535 70.3316C74.9535 69.8348 74.5507 69.4317 74.0536 69.4317C73.5568 69.4317 73.154 69.8348 73.154 70.3316C73.154 70.8284 73.5568 71.2315 74.0536 71.2315C74.5507 71.2315 74.9535 70.8284 74.9535 70.3316ZM77.6292 70.3316C77.6292 69.8348 77.2264 69.4317 76.7293 69.4317C76.2325 69.4317 75.8298 69.8348 75.8298 70.3316C75.8298 70.8284 76.2325 71.2315 76.7293 71.2315C77.2264 71.2315 77.6292 70.8284 77.6292 70.3316ZM80.3046 70.3316C80.3046 69.8348 79.9018 69.4317 79.4047 69.4317C78.9079 69.4317 78.5051 69.8348 78.5051 70.3316C78.5051 70.8284 78.9079 71.2315 79.4047 71.2315C79.9018 71.2315 80.3046 70.8284 80.3046 70.3316ZM82.9803 70.3316C82.9803 69.8348 82.5775 69.4317 82.0804 69.4317C81.5836 69.4317 81.1808 69.8348 81.1808 70.3316C81.1808 70.8284 81.5836 71.2315 82.0804 71.2315C82.5775 71.2315 82.9803 70.8284 82.9803 70.3316Z" fill="#5084DA"/>
<path d="M91.6796 86.6999H79.844C77.941 86.6999 76.3984 85.1573 76.3984 83.2543C76.3984 81.351 77.941 79.8087 79.844 79.8087H91.6796C93.5825 79.8087 95.1252 81.351 95.1252 83.2543C95.1252 85.1573 93.5825 86.6999 91.6796 86.6999Z" fill="#5084DA"/>
<path opacity="0.09" d="M129.45 102.481V98.5421C129.45 97.2465 128.4 96.1961 127.104 96.1961H126.899V92.5459C126.899 87.1797 122.534 82.8148 117.169 82.8148C111.803 82.8148 107.437 87.1797 107.437 92.5459V96.1961H107.233C105.937 96.1961 104.887 97.2465 104.887 98.5421V102.481H129.45ZM110.653 92.5459C110.653 88.9534 113.576 86.0307 117.169 86.0307C120.761 86.0307 123.684 88.9534 123.684 92.5459V96.1961H110.653V92.5459H110.653Z" fill="black"/>
<path opacity="0.09" d="M134.047 65.5695C133.1 64.7774 131.924 64.2976 130.524 64.1743C130.52 64.0446 130.52 63.917 130.526 63.7517C131.247 63.6361 131.862 63.0065 132.221 62.1568C133.192 61.2212 133.852 60.0627 133.533 58.6027C133.514 58.5183 133.533 58.4469 133.569 58.3883C133.151 57.6406 132.38 57.2813 131.526 56.5072C128.653 53.9043 125.239 57.5209 126.532 59.0101C126.633 59.1271 126.775 59.4355 126.894 59.8305C126.891 59.8394 126.888 59.8457 126.886 59.8553C126.824 60.1347 126.878 60.6054 127.097 60.8378C127.112 60.9845 127.123 61.1318 127.123 61.2777C127.128 61.2926 127.136 61.3025 127.14 61.3194C127.182 61.5487 127.268 61.7494 127.381 61.9317C127.554 62.6267 127.97 63.357 128.845 63.6506C128.913 63.6736 128.983 63.6955 129.057 63.7128C129.106 63.9086 129.112 64.0209 129.088 64.1824C128.24 64.2767 127.473 64.5417 126.789 64.9516C121.298 67.6061 115.869 76.1592 116.467 78.0449C117.065 79.931 118.584 82.1385 119.604 83.6133L119.764 83.585C119.846 83.8694 119.928 84.1535 120.01 84.4379C120.051 84.5796 120.097 84.7298 120.209 84.8269C120.358 84.9566 120.577 84.9545 120.774 84.9456C121.017 84.9343 121.282 84.9138 121.461 84.7495C121.565 84.6542 121.627 84.5209 121.661 84.3842C121.755 84.0146 121.66 83.6203 121.479 83.2833L121.598 83.2624C121.598 83.2624 119.231 79.72 119.317 77.5598C119.349 76.7709 121.197 74.9113 122.699 73.5256C122.665 74.0065 122.646 74.4962 122.646 74.9929L121.926 92.2081C121.926 92.2081 122.548 92.3311 123.544 92.4905L124.51 102.771H128.402L128.495 93.0869C128.545 93.0907 128.596 93.0943 128.647 93.0978C128.692 93.101 128.737 93.1042 128.782 93.107C128.974 93.1208 129.166 93.1331 129.359 93.1445C129.424 93.1483 129.489 93.1519 129.555 93.1554C129.625 93.1593 129.695 93.1635 129.765 93.1671L130.147 102.771H133.983L134.769 92.9897C134.774 92.989 134.778 92.9879 134.784 92.9872C134.942 92.9614 135.098 92.9342 135.249 92.9031C135.316 92.8897 135.382 92.8745 135.448 92.86C135.575 92.8318 135.7 92.8017 135.822 92.7692C135.888 92.7516 135.953 92.7335 136.017 92.7152C136.14 92.6795 136.257 92.641 136.373 92.601C136.426 92.5823 136.482 92.5647 136.533 92.5452C136.696 92.4837 136.853 92.4191 137 92.347L136.921 73.7263C136.921 73.3242 136.909 72.9341 136.886 72.5536C136.884 72.525 136.882 72.4971 136.88 72.4685C136.858 72.1134 136.825 71.7682 136.783 71.4322C136.778 71.3986 136.774 71.3657 136.77 71.3322C136.765 71.3021 136.762 71.2714 136.758 71.241C137.517 71.3915 138.504 71.5728 139.797 71.7911C140.636 71.9328 141.453 71.8615 142.234 71.6403V67.8721C139.02 68.2392 135.421 66.3988 134.047 65.5695Z" fill="black"/>
<path opacity="0.3" d="M81.6363 75.9695C84.9416 75.9695 87.6212 73.29 87.6212 69.9846C87.6212 66.6792 84.9416 63.9997 81.6363 63.9997C78.3309 63.9997 75.6514 66.6792 75.6514 69.9846C75.6514 73.29 78.3309 75.9695 81.6363 75.9695Z" fill="#94EBFF"/>
<path opacity="0.5" d="M81.6367 73.2327C83.4306 73.2327 84.8848 71.7785 84.8848 69.9846C84.8848 68.1907 83.4306 66.7365 81.6367 66.7365C79.8429 66.7365 78.3887 68.1907 78.3887 69.9846C78.3887 71.7785 79.8429 73.2327 81.6367 73.2327Z" fill="#94EBFF"/>
<path d="M114.741 82.8148C109.375 82.8148 105.01 87.1797 105.01 92.5459V101.903H124.472V92.5459C124.472 87.1797 120.106 82.8148 114.741 82.8148ZM108.225 98.6877V92.5459C108.225 88.9534 111.148 86.0307 114.741 86.0307C118.333 86.0307 121.255 88.9534 121.255 92.5459V98.6877H108.225Z" fill="#F9714E"/>
<path opacity="0.4" d="M114.741 84.7379C110.456 84.7379 106.971 88.2234 106.971 92.5081V99.9798H122.511V92.5081C122.511 88.2234 119.025 84.7379 114.741 84.7379ZM121.256 98.6877H108.225V92.5459C108.225 88.9533 111.148 86.0307 114.741 86.0307C118.333 86.0307 121.255 88.9533 121.255 92.5459V98.6877H121.256Z" fill="#F9714E"/>
<path d="M124.632 115.791H104.85C103.53 115.791 102.459 114.721 102.459 113.4V98.5867C102.459 97.2667 103.529 96.1961 104.85 96.1961H124.632C125.952 96.1961 127.023 97.2663 127.023 98.5867V113.4C127.023 114.721 125.952 115.791 124.632 115.791Z" fill="#FFB255"/>
<path d="M118.312 104.636C118.312 102.664 116.713 101.065 114.741 101.065C112.768 101.065 111.17 102.664 111.17 104.636C111.17 106.015 111.953 107.209 113.097 107.804V111.665H116.385V107.804C117.529 107.209 118.312 106.015 118.312 104.636Z" fill="#F9714E"/>
<path opacity="0.4" d="M124.676 96.1961H118.775C117.487 100.2 115.483 103.988 112.93 107.305C110.556 110.389 106.82 114.302 102.593 114.22C102.913 115.134 103.781 115.791 104.805 115.791H124.676C125.972 115.791 127.022 114.74 127.022 113.444V98.5415C127.022 97.2465 125.972 96.1961 124.676 96.1961Z" fill="#FFB255"/>
<path d="M117.115 82.8193C117.271 83.3588 117.428 83.8983 117.584 84.4379C117.625 84.5795 117.671 84.7297 117.782 84.8269C117.931 84.9565 118.15 84.9544 118.347 84.9456C118.59 84.9343 118.855 84.9141 119.034 84.7495C119.138 84.6541 119.2 84.5209 119.234 84.3842C119.335 83.987 119.22 83.5595 119.01 83.2072C118.801 82.8546 118.504 82.5642 118.211 82.2776" fill="#FFC2D3"/>
<path d="M146.201 64.1894C146.391 63.4365 146.648 62.7009 146.97 61.9942C147.137 62.2069 147.118 62.5062 147.092 62.7754C147.254 62.3808 147.567 62.0504 147.952 61.866C147.999 61.8441 148.052 61.8239 148.099 61.8434C148.152 61.8656 148.173 61.9271 148.188 61.9826C148.334 62.5602 148.264 63.1899 147.993 63.7209C147.723 64.2519 147.255 64.6798 146.703 64.9021" fill="#FFC2D3"/>
<path d="M130.309 114.485C131.684 114.82 132.834 115.225 133.466 115.791H128.167L128.268 114.561L130.309 114.485Z" fill="#5084DA"/>
<path d="M123.829 114.485C122.455 114.82 121.304 115.225 120.673 115.791H125.972L125.87 114.561L123.829 114.485Z" fill="#5084DA"/>
<path d="M133.095 83.609L130.596 114.702C130.596 114.702 129.724 114.915 129.422 114.915C129.273 114.915 128.992 114.865 128.735 114.819C128.446 114.76 128.193 114.701 128.193 114.701L127.259 91.198H126.086L125.861 114.701C125.861 114.701 125.236 114.887 124.587 114.887C123.954 114.887 123.206 114.701 123.206 114.701L120.207 82.8144L133.095 83.609Z" fill="#2E2C84"/>
<g opacity="0.3">
<path opacity="0.5" d="M128.306 83.314L123.906 83.0427C123.852 88.7693 124.713 109.233 124.801 114.88C125.367 114.848 125.861 114.701 125.861 114.701L126.086 91.198H127.259L128.194 114.701C128.194 114.701 128.447 114.76 128.736 114.819C128.821 114.834 128.908 114.85 128.994 114.864C128.994 108.463 128.417 85.9459 128.306 83.314Z" fill="#2E2C84"/>
</g>
<path d="M124.696 61.2777C124.701 61.2925 124.71 61.3024 124.713 61.3194C124.902 62.3475 125.878 62.8743 126.962 63.1736C127.843 63.417 128.048 63.5234 128.756 63.0125C130.224 61.9525 131.53 60.5442 131.106 58.6027C131.088 58.5182 131.106 58.4469 131.142 58.3882C130.724 57.6406 129.954 57.2816 129.099 56.5071C126.226 53.9042 122.812 57.5208 124.105 59.0101C124.315 59.2514 124.697 60.3032 124.696 61.2777Z" fill="#001F64"/>
<path d="M134.494 73.7262C134.494 67.8155 132.048 64.1403 127.363 64.1403C122.677 64.1403 120.219 69.0825 120.219 74.9929L119.499 92.2081C119.499 92.2081 130.421 94.3743 134.572 92.3473L134.494 73.7262Z" fill="#8FC2FF"/>
<path opacity="0.3" d="M134.494 73.7263C134.494 72.0727 134.302 70.5948 133.924 69.3228C133.509 75.7547 132.945 92.8794 123.371 92.8109C126.929 93.2557 132.025 93.591 134.573 92.347L134.494 73.7263Z" fill="#8FC2FF"/>
<path d="M129.769 60.5841C129.593 59.421 128.557 58.2547 127.292 58.8592C126.479 59.2471 125.639 59.2917 124.976 58.9373C124.957 59.1613 124.929 59.4878 124.904 59.8305C124.765 59.5733 124.53 59.534 124.46 59.8552C124.384 60.1993 124.478 60.8389 124.848 60.959C124.847 61.0187 124.846 61.0788 124.847 61.1296C124.865 61.9992 125.22 63.3824 126.631 63.7128C126.707 64.0198 126.68 64.1201 126.593 64.5289C126.671 64.8024 127.767 64.9776 128.13 64.6561C128.099 64.2791 128.089 64.0979 128.101 63.7516C128.935 63.6177 129.632 62.7952 129.947 61.7381C131.206 61.0325 130.305 59.745 129.769 60.5841Z" fill="#FFC2D3"/>
<path opacity="0.3" d="M129.768 60.5841C129.7 60.1252 129.495 59.6676 129.196 59.3168C129.231 61.3381 128.371 63.2167 126.419 63.651C126.487 63.6739 126.557 63.6958 126.631 63.7131C126.707 64.0202 126.68 64.1205 126.593 64.5293C126.671 64.8024 127.768 64.978 128.13 64.6565C128.099 64.2795 128.089 64.0983 128.101 63.752C128.935 63.6181 129.632 62.7956 129.947 61.7384C131.205 61.0325 130.305 59.745 129.768 60.5841Z" fill="#FFC2D3"/>
<path d="M124.362 64.9515C118.871 67.606 113.443 76.1592 114.04 78.0448C114.638 79.9309 116.157 82.1384 117.176 83.6132L119.171 83.2623C119.171 83.2623 116.804 79.7199 116.891 77.5597C116.944 76.2274 122.179 71.8402 122.179 71.8402L124.362 64.9515Z" fill="#8FC2FF"/>
<path d="M131.129 65.2526C131.989 65.8705 139.163 70.1697 143.109 66.3729C145.958 63.6308 146.245 63.1012 146.245 63.1012L147.223 64.8318C147.223 64.8318 142.764 72.7006 137.37 71.7904C131.975 70.8803 131.839 70.6004 131.839 70.6004L131.129 65.2526Z" fill="#8FC2FF"/>
<path opacity="0.09" d="M42.4377 98.9263C40.3838 99.5199 38.6462 100.861 37.5336 102.633H52.1091C50.9965 100.861 49.2589 99.5195 47.205 98.9263V63.2179H42.4377V63.8002H37.3467V68.0987H42.4377V69.1219H37.3467V73.42H42.4377V98.9263Z" fill="black"/>
<path d="M46.5752 63.8H40.4688V68.0985H46.5752V63.8Z" fill="#FFB255"/>
<path d="M46.5752 69.1218H40.4688V73.42H46.5752V69.1218Z" fill="#FFB255"/>
<path opacity="0.5" d="M46.5743 63.8H45.0176V68.0985H46.5743V63.8Z" fill="#FFC87C"/>
<path opacity="0.5" d="M46.5743 69.1218H45.0176V73.42H46.5743V69.1218Z" fill="#FFC87C"/>
<path d="M50.3269 63.2178H45.5596V100.578H50.3269V63.2178Z" fill="#FFB255"/>
<path opacity="0.5" d="M47.8686 101.864H48.0166C48.177 101.864 48.307 101.734 48.307 101.573V64.7943C48.307 64.6339 48.177 64.5038 48.0166 64.5038H47.8686C47.7081 64.5038 47.5781 64.6339 47.5781 64.7943V101.573C47.5781 101.734 47.7081 101.864 47.8686 101.864Z" fill="#FFC87C"/>
<path d="M39.3418 107.189C39.3418 102.446 43.2004 98.5873 47.9434 98.5873C52.6864 98.5873 56.5453 102.446 56.5453 107.189C56.5453 111.932 52.6864 115.791 47.9434 115.791C43.2004 115.791 39.3418 111.932 39.3418 107.189ZM43.7774 107.189C43.7774 109.487 45.6465 111.355 47.9434 111.355C50.2407 111.355 52.1098 109.487 52.1098 107.189C52.1098 104.892 50.2407 103.023 47.9434 103.023C45.6461 103.023 43.7774 104.892 43.7774 107.189Z" fill="#FFB255"/>
<path opacity="0.5" d="M43.3711 107.189C43.3711 109.71 45.4218 111.761 47.9424 111.761C50.4629 111.761 52.5136 109.71 52.5136 107.189C52.5136 104.669 50.4626 102.618 47.9424 102.618C45.4218 102.618 43.3711 104.669 43.3711 107.189ZM43.7764 107.189C43.7764 104.892 45.6454 103.023 47.9424 103.023C50.2396 103.023 52.1087 104.892 52.1087 107.189C52.1087 109.487 50.2396 111.355 47.9424 111.355C45.6451 111.355 43.7764 109.487 43.7764 107.189Z" fill="#FFC87C"/>
<path opacity="0.09" d="M79.224 71.2317C77.7149 72.5686 72.2766 78.2642 71.2795 75.1645C70.4902 72.7107 68.8349 69.334 67.8654 68.2012C67.2273 67.4702 66.4094 66.9904 65.5123 66.7583V66.3661C66.4556 66.3615 67.9308 66.1774 67.9308 62.7788C67.9308 61.7514 67.8329 61.0744 67.6566 60.631C67.9382 60.3476 67.9195 59.7894 67.7205 59.4615C67.457 59.0269 66.7634 58.6492 66.3027 58.445C65.212 57.9616 63.7874 57.7369 62.7408 58.4142C62.3741 57.9115 61.784 57.4613 61.4251 57.2642C60.9795 57.02 60.4965 56.8112 59.9885 56.8013C58.9833 56.7816 58.1095 57.5529 57.6449 58.4446C57.2682 59.1675 57.0909 60.0106 57.2463 60.8108C57.4014 61.6111 57.9141 62.3555 58.6522 62.7014C58.8691 62.8032 59.1101 62.8707 59.3475 62.8382C59.6627 62.7951 59.928 62.5834 60.1482 62.3541C60.6852 61.7959 60.7767 61.1295 61.171 60.5253C61.2307 60.4335 61.3074 60.3713 61.3904 60.3201C61.2728 60.7126 61.2085 61.1232 61.2057 61.5305C61.1965 62.7029 61.6084 63.8423 62.1508 64.8821C62.2946 65.1581 62.4568 65.4383 62.7122 65.6156C62.9581 65.7859 63.593 65.9527 63.852 65.7859L63.7432 66.6187C63.0009 66.6837 62.249 66.8989 61.5321 67.2642C61.5321 67.2635 61.5318 67.2618 61.5318 67.2618C57.4442 68.2016 54.3608 78.238 48.8931 77.5731V77.5865C48.2285 77.4014 47.4986 77.3484 47.4601 77.9995C47.3848 79.274 48.1773 79.4368 48.8931 79.3319V79.3584C51.1816 79.3584 54.2166 78.698 56.8821 75.7521C55.4115 84.042 55.9988 94.8978 55.9988 94.8978C56.3931 94.9547 56.7853 95.0063 57.1767 95.0543L57.8466 102.65H61.3283L61.3364 95.4027C62.0391 95.4313 62.7373 95.4458 63.4291 95.4409L63.5104 102.649H67.5481L68.3282 95.0897C69.0434 94.989 69.7525 94.8685 70.4524 94.7215C70.3086 90.1623 70.2899 84.2028 69.9871 79.0401C70.2009 79.2411 70.4443 79.3973 70.7351 79.4693C71.2096 79.5867 73.2535 81.944 74.7241 80.152C76.2154 78.3341 79.3321 74.5822 80.474 72.6488C80.226 72.0111 79.5677 71.8221 79.224 71.2317Z" fill="black"/>
<path d="M65.9722 65.4784L65.7422 67.2376L67.5925 67.4404V65.5847L65.9722 65.4784Z" fill="#F9ACC8"/>
<path opacity="0.1" d="M51.7147 78.3454C51.7147 78.3454 49.2654 77.1384 49.1944 78.3454C49.0595 80.631 51.7147 79.3428 51.7147 79.3428V78.3454Z" fill="black"/>
<path d="M52.0594 77.9988C52.0594 77.9988 49.6105 76.7918 49.5392 77.9988C49.4042 80.2844 52.0594 78.9962 52.0594 78.9962V77.9988Z" fill="#FFC2D3"/>
<path d="M64.3008 62.7783C64.3008 64.3774 65.9519 66.3663 67.551 66.3663C68.4922 66.3663 70.0104 66.2253 70.0104 62.7783C70.0104 59.1547 68.7954 59.8828 67.1962 59.8828C65.5971 59.8828 64.3008 61.1792 64.3008 62.7783Z" fill="#FFC2D3"/>
<path opacity="0.3" d="M66.7348 64.1228C66.7398 62.7777 66.9122 61.1806 67.4086 59.8787C67.3386 59.8811 67.268 59.8829 67.1962 59.8829C65.5971 59.8829 64.3008 61.1792 64.3008 62.7784C64.3008 64.3471 65.8897 66.2861 67.4595 66.3596C66.9486 65.7717 66.7316 65.035 66.7348 64.1228Z" fill="#FFC2D3"/>
<path d="M69.3995 60.8408C69.1434 60.8789 68.8695 60.7567 68.6293 60.8535C68.2445 61.0086 68.2187 61.5955 67.8636 61.811C67.4209 62.0802 66.7532 61.6142 66.3663 61.9601C66.138 62.164 66.1649 62.5229 66.1885 62.8296C66.2511 63.638 66.161 64.4581 65.9243 65.2326C65.8691 65.4127 66.1069 65.7353 65.9652 65.8579C65.7292 66.0625 65.0477 65.8834 64.7919 65.7046C64.5361 65.5255 64.3742 65.2421 64.2304 64.9637C63.6881 63.9133 63.2761 62.7625 63.2853 61.5778C63.2945 60.3931 63.7785 59.1699 64.735 58.4848C65.7882 57.7305 67.2619 57.9594 68.3823 58.4608C68.843 58.6671 69.5366 59.0487 69.8002 59.4879C70.0592 59.9193 70.0185 60.7486 69.3995 60.8408Z" fill="#FFB255"/>
<path opacity="0.5" d="M69.0953 58.8427C68.718 59.1804 68.3378 59.7892 68.0534 59.9878C67.6605 60.2626 67.1895 60.3181 66.7425 60.4552C64.6834 61.0877 64.541 64.2456 65.4398 65.9317C65.6532 65.9631 65.8578 65.9525 65.9666 65.8582C66.1083 65.7352 65.8705 65.413 65.9257 65.2328C66.1624 64.458 66.2525 63.6379 66.1899 62.8299C66.1663 62.5232 66.1394 62.1642 66.3677 61.9604C66.7549 61.6145 67.4223 62.0805 67.865 61.8113C68.2198 61.5954 68.2459 61.0089 68.6307 60.8538C68.8713 60.7569 69.1448 60.8792 69.4009 60.841C70.0196 60.7488 70.0602 59.9196 69.8016 59.4885C69.6578 59.249 69.3864 59.0285 69.0953 58.8427Z" fill="#FFC87C"/>
<path d="M63.5052 57.2683C63.0596 57.0213 62.5766 56.8107 62.0689 56.8005C61.0634 56.7804 60.1896 57.5598 59.7254 58.4604C59.3487 59.1907 59.1713 60.0426 59.3268 60.851C59.4819 61.6594 59.9946 62.4116 60.7327 62.761C60.9496 62.8638 61.1909 62.932 61.428 62.8992C61.7432 62.8554 62.0085 62.6416 62.2286 62.4102C62.7657 61.8459 62.8572 61.1728 63.2515 60.5627C63.5705 60.0691 64.2701 60.2719 64.7376 59.9496C65.923 59.1324 64.2348 57.6728 63.5052 57.2683Z" fill="#FFB255"/>
<path opacity="0.5" d="M64.0399 59.4469C63.8248 59.336 63.6562 59.1346 63.4425 59.0272C63.1376 58.6951 61.5734 58.5212 61.2473 60.6987C61.1498 61.3496 60.6484 62.0233 60.1357 62.3445C60.3128 62.5123 60.511 62.6565 60.7321 62.7611C60.9491 62.8639 61.1904 62.9321 61.4275 62.8996C61.7426 62.8558 62.008 62.642 62.2281 62.4106C62.7652 61.8463 62.8567 61.1732 63.251 60.5631C63.57 60.0695 64.2696 60.2723 64.737 59.9501C64.9052 59.8342 65.0102 59.7045 65.0734 59.5674C64.7657 59.6727 64.4353 59.6508 64.0399 59.4469Z" fill="#FFC87C"/>
<path d="M63.0084 114.485C64.3828 114.82 65.5336 115.225 66.165 115.791H60.8662L60.9676 114.561L63.0084 114.485Z" fill="#F9714E"/>
<path d="M67.7584 114.485C69.1328 114.82 70.2836 115.225 70.915 115.791H65.6162L65.7176 114.561L67.7584 114.485Z" fill="#F9714E"/>
<path opacity="0.1" d="M81.4969 70.0462C81.4676 70.031 81.4174 70.0052 81.386 69.9964C81.1888 69.9434 81.003 70.0801 80.839 70.202C80.55 70.4172 80.0038 70.8599 79.7642 71.1295C79.7649 71.1295 79.7656 71.1295 79.766 71.1295C79.6879 71.1987 79.6172 71.275 79.5604 71.3577C79.3759 71.6255 79.3229 72.0011 79.4964 72.2763C79.631 72.4901 79.8769 72.6502 80.1299 72.6484C80.4984 72.6459 80.9959 72.4505 81.2425 72.1626C81.4891 71.8746 81.4693 71.5527 81.2906 71.2181C81.1701 70.9931 80.9962 70.8677 80.8026 70.8168C81.027 70.6804 81.2415 70.5278 81.4358 70.3514C81.4814 70.3101 81.5273 70.2656 81.5471 70.2076C81.5669 70.1493 81.5513 70.0744 81.4969 70.0462Z" fill="black"/>
<path d="M81.3711 70.8125C81.5499 71.1471 81.57 71.4686 81.3234 71.7569C81.0768 72.0445 80.5793 72.2403 80.2108 72.2427C79.9582 72.2441 79.7119 72.0848 79.5773 71.8707C79.4042 71.5958 79.4568 71.2195 79.6413 70.9521C80.0264 70.3935 80.98 70.0808 81.3711 70.8125Z" fill="#FFC2D3"/>
<path d="M80.7478 70.497C81.0238 70.3436 81.2824 70.1581 81.5163 69.9458C81.5615 69.9045 81.6078 69.8599 81.6276 69.802C81.6474 69.7437 81.6318 69.6688 81.5774 69.6405C81.5481 69.625 81.4979 69.5995 81.4665 69.5907C81.2693 69.5377 81.0835 69.6745 80.9195 69.7963C80.6305 70.0115 80.0843 70.4542 79.8447 70.7238C80.0362 70.7807 80.5733 70.5938 80.7478 70.497Z" fill="#FFC2D3"/>
<path d="M74.0003 75.3632C75.9658 74.0559 77.5218 72.6543 79.3018 71.0739C79.4145 70.9739 79.5884 70.9852 79.6855 71.1004C80.012 71.4887 80.5452 72.0664 80.4886 72.3102C80.4575 72.4458 80.3611 72.5547 80.2678 72.6578C78.6061 74.4994 76.9448 76.3409 75.2832 78.182C74.9556 78.5449 74.6228 78.9123 74.2108 79.1748C73.7985 79.4374 73.2897 79.5865 72.8152 79.4692C72.0156 79.2713 71.568 78.4481 71.1323 77.7488C68.9852 74.3004 69.3389 73.0543 69.6014 71.9922C69.7841 71.253 70.0144 70.5245 70.1476 69.774C70.19 69.5366 69.6226 68.2177 69.9459 68.201C70.9154 69.3338 72.3693 72.7847 73.36 75.1643C73.465 75.4155 73.7734 75.5141 74.0003 75.3632Z" fill="#F9714E"/>
<path d="M58.4922 86.3873L60.9905 114.72C60.9905 114.72 61.8632 114.915 62.1653 114.915C62.3141 114.915 62.5957 114.87 62.8518 114.828C63.1412 114.775 63.3935 114.72 63.3935 114.72L63.4185 93.3032H65.4844L65.7264 114.72C65.7264 114.72 66.3511 114.89 67.0002 114.89C67.633 114.89 68.3816 114.72 68.3816 114.72L71.3803 85.6633L58.4922 86.3873Z" fill="#4B48B5"/>
<path d="M64.9189 88.5108C64.9338 89.4704 64.8674 90.3367 65.2016 91.2084C65.4627 91.8896 66.0566 92.3337 66.9057 92.3164C68.1423 92.2913 69.0009 91.6168 69.0055 90.3675C69.0062 90.2067 69.0853 88.5132 69.1662 88.5097C69.1655 88.5097 64.9189 88.5108 64.9189 88.5108Z" fill="#568EDB"/>
<path d="M59.0527 88.5121C59.0672 89.4718 59.0252 90.3378 59.2619 91.2108C59.4467 91.8934 59.8629 92.34 60.454 92.3266C61.3154 92.3072 61.7956 91.3493 61.9076 90.3876C61.9263 90.2289 61.9546 88.5337 62.0107 88.5309L59.0527 88.5121Z" fill="#568EDB"/>
<path d="M63.4179 93.3004C63.4207 93.3004 63.4235 93.3 63.4267 93.2997C63.4546 93.2947 63.4737 93.2682 63.4687 93.24C63.1373 91.3147 63.3649 87.6299 63.3673 87.5932C63.368 87.5783 63.3627 87.5639 63.3525 87.5536C63.3419 87.5437 63.3288 87.5381 63.3133 87.5381C63.2797 87.5398 59.979 87.6932 58.5943 87.343C58.5682 87.3342 58.5388 87.3529 58.5318 87.3805C58.5251 87.4077 58.5413 87.4359 58.5692 87.443C59.8659 87.7712 62.8116 87.6628 63.261 87.6437C63.2334 88.1221 63.0564 91.4529 63.3673 93.2576C63.3716 93.2827 63.3935 93.3004 63.4179 93.3004Z" fill="#5E9CE4"/>
<path d="M63.8312 93.3004C63.8326 93.3004 63.834 93.3004 63.8358 93.3004C63.8644 93.2976 63.8856 93.2725 63.8831 93.2446C63.6863 90.9936 63.6634 89.2181 63.8104 87.6625C65.7812 87.6437 68.1725 87.3855 70.9192 86.8936C70.9471 86.8887 70.9655 86.8618 70.9609 86.8336C70.9559 86.8057 70.9323 86.7876 70.9008 86.7919C68.1382 87.2862 65.737 87.5444 63.7634 87.5593C63.7369 87.5593 63.715 87.5798 63.7125 87.6063C63.5599 89.1793 63.5811 90.9738 63.78 93.2531C63.7821 93.2803 63.8044 93.3004 63.8312 93.3004Z" fill="#5E9CE4"/>
<g opacity="0.16">
<path d="M62.8513 114.828C63.1406 114.775 63.3929 114.72 63.3929 114.72L63.418 93.3032H63.5915C63.5501 93.2368 63.4922 93.2163 63.418 93.2495C63.0127 93.4315 62.8223 93.7131 62.57 94.0438C62.3714 94.3127 62.2556 94.6395 62.2474 94.9744C62.0821 101.576 62.4665 106.601 62.8513 114.828Z" fill="#4E84D9"/>
</g>
<path d="M68.1694 114.126C68.1411 114.123 68.1199 114.098 68.1234 114.069L68.1665 113.645C68.1694 113.617 68.1959 113.593 68.2231 113.599C68.2513 113.601 68.2718 113.627 68.269 113.655L68.2259 114.079C68.2234 114.106 68.2008 114.126 68.1743 114.126C68.1729 114.126 68.1708 114.126 68.1694 114.126ZM68.2969 112.878C68.2686 112.875 68.2474 112.85 68.251 112.822L68.3351 111.999C68.3375 111.971 68.3633 111.945 68.3916 111.953C68.4202 111.956 68.4411 111.981 68.4375 112.009L68.3538 112.832C68.3513 112.858 68.3287 112.879 68.3022 112.879C68.3004 112.879 68.2987 112.879 68.2969 112.878ZM68.4647 111.232C68.4365 111.229 68.4156 111.204 68.4188 111.176L68.5029 110.353C68.5057 110.325 68.534 110.3 68.5594 110.307C68.5877 110.31 68.6085 110.335 68.6054 110.363L68.5216 111.186C68.5192 111.213 68.4965 111.232 68.47 111.232C68.4686 111.232 68.4665 111.232 68.4647 111.232ZM68.6329 109.586C68.6047 109.583 68.5835 109.558 68.587 109.53L68.6711 108.707C68.6739 108.678 68.7011 108.652 68.7276 108.661C68.7559 108.663 68.7771 108.689 68.7735 108.717L68.6898 109.54C68.6873 109.567 68.6647 109.587 68.6382 109.587C68.6368 109.587 68.6347 109.587 68.6329 109.586ZM68.8015 107.94C68.7732 107.937 68.752 107.912 68.7555 107.884L68.8396 107.06C68.8421 107.033 68.8689 107.008 68.8961 107.014C68.9244 107.017 68.9453 107.043 68.9421 107.071L68.858 107.894C68.8555 107.921 68.8329 107.941 68.8068 107.941C68.805 107.941 68.8029 107.941 68.8015 107.94ZM68.9693 106.294C68.941 106.292 68.9198 106.266 68.9233 106.238L69.0074 105.415C69.0099 105.387 69.0357 105.36 69.064 105.369C69.0922 105.372 69.1134 105.397 69.1099 105.426L69.0258 106.248C69.0233 106.275 69.0007 106.295 68.9746 106.295C68.9732 106.295 68.971 106.295 68.9693 106.294ZM69.1375 104.648C69.1092 104.645 69.088 104.62 69.0915 104.592L69.176 103.769C69.1788 103.741 69.2067 103.716 69.2325 103.723C69.2608 103.726 69.282 103.751 69.2784 103.779L69.194 104.602C69.1915 104.629 69.1689 104.649 69.1424 104.649C69.141 104.649 69.1389 104.649 69.1375 104.648ZM69.306 103.003C69.2777 103 69.2569 102.974 69.2601 102.946L69.3442 102.123C69.347 102.095 69.3742 102.068 69.4007 102.077C69.4289 102.08 69.4502 102.105 69.4466 102.134L69.3625 102.956C69.3601 102.983 69.3374 103.003 69.3113 103.003C69.3095 103.003 69.3078 103.003 69.306 103.003ZM69.4742 101.356C69.4459 101.354 69.4247 101.328 69.4279 101.3L69.512 100.477C69.5141 100.449 69.541 100.423 69.5685 100.431C69.5968 100.434 69.618 100.459 69.6144 100.487L69.5304 101.31C69.5279 101.337 69.5053 101.357 69.4791 101.357C69.4774 101.357 69.4756 101.357 69.4742 101.356ZM69.642 99.7106C69.6137 99.7078 69.5929 99.6824 69.5961 99.6541L69.6805 98.8309C69.683 98.8044 69.7056 98.7842 69.7317 98.7842C69.7332 98.7842 69.7353 98.7842 69.737 98.7849C69.7657 98.7878 69.7865 98.8132 69.7833 98.8415L69.6989 99.6643C69.6964 99.6912 69.6738 99.711 69.6477 99.711C69.6455 99.711 69.6438 99.711 69.642 99.7106ZM69.8105 98.0645C69.7823 98.0617 69.7611 98.0363 69.7646 98.0083L69.8487 97.1854C69.8515 97.1572 69.8787 97.131 69.9052 97.1392C69.9335 97.1424 69.9543 97.1674 69.9512 97.1957L69.8674 98.0186C69.865 98.0451 69.8423 98.0652 69.8158 98.0652C69.8141 98.0652 69.812 98.0652 69.8105 98.0645ZM69.9784 96.4187C69.9501 96.4159 69.9289 96.3905 69.9324 96.3622L70.0165 95.5393C70.019 95.5111 70.0458 95.4867 70.0731 95.4934C70.1013 95.4962 70.1222 95.5217 70.119 95.5499L70.0353 96.3725C70.0328 96.3993 70.0102 96.4191 69.9837 96.4191C69.9823 96.4191 69.9801 96.4191 69.9784 96.4187ZM70.1465 94.7733C70.1183 94.7701 70.0971 94.7451 70.1006 94.7168L70.1851 93.8936C70.1875 93.8653 70.2133 93.8391 70.2416 93.8473C70.2699 93.8501 70.2911 93.8755 70.2875 93.9038L70.2031 94.727C70.2006 94.7535 70.178 94.7737 70.1515 94.7737C70.1501 94.7737 70.148 94.7737 70.1465 94.7733ZM70.3151 93.1269C70.2868 93.124 70.2656 93.0986 70.2691 93.0703L70.3532 92.2471C70.3561 92.2188 70.3843 92.1944 70.4098 92.2012C70.438 92.204 70.4592 92.2294 70.4557 92.2577L70.3716 93.0809C70.3691 93.1074 70.3465 93.1272 70.3204 93.1272C70.3186 93.1272 70.3165 93.1272 70.3151 93.1269ZM70.4829 91.4807C70.4546 91.4779 70.4334 91.4528 70.437 91.4246L70.5211 90.6017C70.5239 90.5734 70.5515 90.5465 70.5776 90.5557C70.6059 90.5586 70.6271 90.584 70.6235 90.6119L70.5394 91.4348C70.537 91.4613 70.5144 91.4814 70.4879 91.4814C70.4864 91.4814 70.4847 91.4814 70.4829 91.4807ZM70.6511 89.835C70.6228 89.8321 70.6016 89.8067 70.6052 89.7784L70.6896 88.9555C70.6921 88.9273 70.7189 88.9022 70.7461 88.9096C70.7744 88.9124 70.7956 88.9379 70.7921 88.9661L70.7076 89.789C70.7051 89.8155 70.6825 89.8353 70.656 89.8353C70.6546 89.8353 70.6525 89.8353 70.6511 89.835ZM70.8196 88.1892C70.791 88.186 70.7702 88.1609 70.7733 88.1327L70.8574 87.3098C70.8595 87.2815 70.8857 87.2547 70.914 87.2635C70.9422 87.2667 70.9634 87.2918 70.9599 87.32L70.8758 88.1429C70.8733 88.1694 70.8507 88.1895 70.8246 88.1895C70.8232 88.1895 70.821 88.1895 70.8196 88.1892Z" fill="#5E9CE4"/>
<path d="M63.6117 67.261C59.5237 68.2008 56.4403 78.2373 50.9727 77.5723V79.358C53.5321 79.358 57.0261 78.5408 59.8915 74.6143C64.0346 68.9368 63.6117 67.261 63.6117 67.261Z" fill="#F9714E"/>
<path opacity="0.3" d="M63.6117 67.261C59.5237 68.2008 56.4403 78.2373 50.9727 77.5723V79.358C53.5321 79.358 57.0261 78.5408 59.8915 74.6143C64.0346 68.9368 63.6117 67.261 63.6117 67.261Z" fill="#F9714E"/>
<path d="M69.9459 68.2012C72.4562 71.0779 72.2467 85.6637 72.5325 94.7218C68.0082 95.6715 63.1582 95.6313 58.0789 94.8974C58.0789 94.8974 57.2888 80.3024 59.8327 72.0358C61.5605 66.4229 67.297 65.1655 69.9459 68.2012Z" fill="#F9714E"/>
<path opacity="0.3" d="M61.5412 87.4374C60.6024 84.3486 60.1795 81.1801 60.1883 77.9542C60.1957 75.246 60.2628 72.305 60.9737 69.6314C60.5073 70.3169 60.1155 71.1164 59.8328 72.0354C57.2886 80.302 58.079 94.897 58.079 94.897C60.6469 95.2684 63.1562 95.4609 65.5945 95.439C63.7512 93.1032 62.429 90.3579 61.5412 87.4374Z" fill="#F9714E"/>
<path d="M21.6002 63.6457C21.969 63.6259 24.4847 61.7628 25.4531 61.135C25.7255 60.9583 26.0025 60.7732 26.193 60.51C26.3834 60.2467 26.4721 59.886 26.3336 59.5924C26.1619 59.2278 25.8764 58.8638 25.1563 58.8652C23.9031 58.8681 23.4682 59.2797 22.8587 59.91C20.8434 61.9939 21.6002 63.6457 21.6002 63.6457Z" fill="#00AD9F"/>
<path d="M32.878 71.1608C33.9733 71.653 35.1435 72.1434 36.3342 71.9911C36.7964 71.9321 37.3006 71.7222 37.4543 71.2827C37.5857 70.9071 37.4044 70.4764 37.1066 70.2125C36.8087 69.9486 36.4158 69.821 36.0293 69.7267C34.5712 69.3705 32.5247 69.5677 31.0811 69.9775C31.0811 69.9772 32.2244 70.8665 32.878 71.1608Z" fill="#00AD9F"/>
<path d="M40.0923 54.9833C39.604 54.6748 39.0641 54.2621 39.0645 53.6845C39.0648 53.105 39.6693 52.6634 40.2488 52.6605C40.8282 52.6577 41.366 52.9736 41.8013 53.3559C43.6442 54.9737 43.4145 56.8184 43.4145 56.8184C43.4145 56.8184 40.6364 55.3271 40.0923 54.9833Z" fill="#00AD9F"/>
<path d="M41.5448 50.0485C41.1162 49.8644 40.6738 49.6422 40.4223 49.2489C40.2997 49.0574 40.2304 48.8154 40.3057 48.6013C40.4318 48.2427 40.6565 47.9208 41.5599 48.0847C44.4204 48.6037 45.0437 50.5629 45.0437 50.5629C45.0437 50.5629 42.3044 50.3749 41.5448 50.0485Z" fill="#00AD9F"/>
<path d="M49.9258 54.3819C51.0734 54.283 52.2581 53.7117 52.9813 52.8149C53.2541 52.4765 53.5042 52.1034 53.5954 51.6783C53.6865 51.2533 53.5894 50.7657 53.2601 50.482C52.8583 50.1361 52.2213 50.1912 51.7786 50.4834C51.3359 50.7756 51.0518 51.2519 50.8218 51.7295C50.5151 52.3659 49.9258 54.3819 49.9258 54.3819Z" fill="#00AD9F"/>
<path d="M29.4371 96.2212C26.6586 93.7716 23.8805 91.3228 21.1019 88.8735C19.6212 87.5684 18.1097 86.2247 17.1716 84.4878C15.1555 80.7542 16.3176 75.9028 19.0403 72.648C21.763 69.3932 25.7509 67.4718 29.7569 66.073C33.7632 64.6746 37.9331 63.6931 41.7521 61.8434C44.1473 60.6835 46.5552 58.9554 47.212 56.3765C47.6074 54.8254 47.2749 53.1047 46.3308 51.8123C45.3867 50.5195 43.8487 49.68 42.2507 49.5846" stroke="#086356" stroke-width="0.356748" stroke-miterlimit="10" stroke-linecap="round" stroke-linejoin="round"/>
<path d="M51.8673 51.7186C51.1084 54.0498 48.1511 55.468 46.8018 57.4872" stroke="#086356" stroke-width="0.356748" stroke-miterlimit="10" stroke-linecap="round" stroke-linejoin="round"/>
<path d="M41.25 54.3996C41.8323 55.0144 42.5297 55.5228 43.0378 56.2001C44.1115 57.6318 44.2009 59.9573 42.6128 61.4003" stroke="#086356" stroke-width="0.356748" stroke-miterlimit="10" stroke-linecap="round" stroke-linejoin="round"/>
<path d="M26.2891 67.4502C28.74 69.339 31.9623 70.5979 35.0546 70.7181" stroke="#086356" stroke-width="0.356748" stroke-miterlimit="10" stroke-linecap="round" stroke-linejoin="round"/>
<path d="M20.6763 70.8905C19.5475 67.5626 20.7774 63.5757 23.5849 61.4618" stroke="#086356" stroke-width="0.356748" stroke-miterlimit="10" stroke-linecap="round" stroke-linejoin="round"/>
<path d="M117.815 25.1757C117.682 24.7637 117.689 24.2578 117.992 23.95C118.233 23.7059 118.637 23.5967 118.95 23.7348C121.38 24.8068 121.117 28.6093 121.117 28.6093C121.117 28.6093 118.812 28.2754 117.815 25.1757Z" fill="#00AD9F"/>
<path d="M117.757 32.2983C116.185 35.1479 121.772 34.9306 123.786 33.2523C123.786 33.2527 119.11 29.8456 117.757 32.2983Z" fill="#00AD9F"/>
<path d="M124.82 25.3916C124.441 24.8701 124.306 24.0931 124.719 23.5981C125.026 23.2296 125.562 23.1155 126.033 23.2067C126.503 23.2975 127.209 23.7345 127.509 24.109C129.348 26.4035 128.484 28.6489 128.484 28.6489C128.484 28.6489 125.441 26.2456 124.82 25.3916Z" fill="#00AD9F"/>
<path d="M147.008 32.4478C146.872 32.004 146.905 31.4624 147.249 31.1514C147.466 30.9553 147.774 30.8843 148.066 30.9062C148.357 30.9285 148.636 31.0348 148.902 31.1564C149.471 31.4178 149.915 31.874 150.189 32.4393C150.879 33.8671 150.41 35.634 150.41 35.634C150.41 35.634 147.347 33.554 147.008 32.4478Z" fill="#00AD9F"/>
<path d="M140.029 37.6769C139.041 36.8067 137.528 36.5491 136.324 37.0787C136.018 37.2134 135.728 37.4034 135.532 37.6751C135.091 38.2874 135.245 39.1824 135.703 39.7824C136.161 40.3819 136.856 40.7469 137.541 41.0593C138.785 41.6253 140.714 41.7387 142.038 42.0772C142.038 42.0775 142.032 39.4421 140.029 37.6769Z" fill="#00AD9F"/>
<path d="M119.557 25.7869C120.378 28.4856 122.705 30.5221 125.295 31.6238C127.885 32.7254 130.737 33.0162 133.545 33.1985C136.352 33.3808 139.193 33.4713 141.908 34.2108C144.554 34.9312 147.189 36.4318 148.324 38.9347C149.707 41.9814 148.483 45.6245 146.543 48.3475C144.602 51.0706 141.989 53.2654 140.112 56.0326C139.25 57.3035 138.53 58.791 138.705 60.318C138.937 62.3539 140.647 63.853 142.236 65.1405" stroke="#086356" stroke-width="0.356748" stroke-miterlimit="10" stroke-linecap="round" stroke-linejoin="round"/>
<path d="M126.027 24.7969C127.888 26.8614 129.375 30.09 129.737 32.8491" stroke="#086356" stroke-width="0.356748" stroke-miterlimit="10" stroke-linecap="round" stroke-linejoin="round"/>
<path d="M119.772 32.7711C120.836 33.0541 121.914 33.3392 123.015 33.342C124.115 33.3448 125.39 32.7332 126.181 31.9662" stroke="#086356" stroke-width="0.356748" stroke-miterlimit="10" stroke-linecap="round" stroke-linejoin="round"/>
<path d="M148.827 32.6156C149.824 33.5809 150.429 34.9412 150.482 36.3297C150.533 37.7186 149.766 39.4015 148.843 40.4388" stroke="#086356" stroke-width="0.356748" stroke-miterlimit="10" stroke-linecap="round" stroke-linejoin="round"/>
<path d="M138.401 38.9182C140.392 40.7565 142.125 42.2425 144.338 43.8039C145.348 44.5165 147.354 45.4302 148.244 45.1949" stroke="#086356" stroke-width="0.356748" stroke-miterlimit="10" stroke-linecap="round" stroke-linejoin="round"/>
</svg>
