<svg width="24" height="24" viewBox="0 0 24 24" fill="none" xmlns="http://www.w3.org/2000/svg">
<path d="M19.5 5H4.5C3.65625 5 3 5.6875 3 6.5V17.5C3 18.3438 3.65625 19 4.5 19H19.5C20.3125 19 21 18.3438 21 17.5V6.5C21 5.6875 20.3125 5 19.5 5ZM8.5 8C9.59375 8 10.5 8.90625 10.5 10C10.5 11.125 9.59375 12 8.5 12C7.375 12 6.5 11.125 6.5 10C6.5 8.90625 7.375 8 8.5 8ZM12 15.4062C12 15.75 11.6875 16 11.2812 16H5.6875C5.3125 16 5 15.75 5 15.4062V14.8125C5 13.8125 5.9375 13 7.09375 13H7.25C7.625 13.1875 8.03125 13.25 8.5 13.25C8.9375 13.25 9.34375 13.1875 9.71875 13H9.875C11.0312 13 12 13.8125 12 14.8125V15.4062ZM19 13.75C19 13.9062 18.875 14 18.75 14H14.25C14.0938 14 14 13.9062 14 13.75V13.25C14 13.125 14.0938 13 14.25 13H18.75C18.875 13 19 13.125 19 13.25V13.75ZM19 11.75C19 11.9063 18.875 12 18.75 12H14.25C14.0938 12 14 11.9063 14 11.75V11.25C14 11.125 14.0938 11 14.25 11H18.75C18.875 11 19 11.125 19 11.25V11.75ZM19 9.75C19 9.90625 18.875 10 18.75 10H14.25C14.0938 10 14 9.90625 14 9.75V9.25C14 9.125 14.0938 9 14.25 9H18.75C18.875 9 19 9.125 19 9.25V9.75Z" fill="#4579A6"/>
</svg>
