<svg width="33" height="60" viewBox="0 0 33 60" fill="none" xmlns="http://www.w3.org/2000/svg">
<path d="M1.5 59H0.5V60H1.5V59ZM31.5 59V60H32.5V59H31.5ZM22.5 54C23.0523 54 23.5 53.5523 23.5 53C23.5 52.4477 23.0523 52 22.5 52V54ZM10.5 52C9.94771 52 9.5 52.4477 9.5 53C9.5 53.5523 9.94771 54 10.5 54V52ZM8.5 49C9.05228 49 9.5 48.5523 9.5 48C9.5 47.4477 9.05228 47 8.5 47V49ZM12.5 47C11.9477 47 11.5 47.4477 11.5 48C11.5 48.5523 11.9477 49 12.5 49V47ZM29.5 1L30.4988 1.04978C30.5164 0.695064 30.3447 0.357587 30.0474 0.163159C29.7502 -0.0312685 29.3722 -0.053472 29.0543 0.104826L29.5 1ZM16.5 6L16.2846 5.02348L16.5 6ZM3.5 7L3.51208 6.00007C3.23509 5.99673 2.96913 6.10842 2.77759 6.30854C2.58605 6.50865 2.48609 6.77925 2.50156 7.05583L3.5 7ZM5.25 26.5L4.26075 26.6462H4.26075L5.25 26.5ZM27.3663 26.5L26.376 26.3608L27.3663 26.5ZM25.1086 33.8122C25.0049 34.3546 25.3606 34.8785 25.903 34.9822C26.4455 35.0859 26.9693 34.7303 27.073 34.1878L25.1086 33.8122ZM26.0662 39.2048C26.1794 38.6642 25.8328 38.1343 25.2923 38.0212C24.7517 37.9081 24.2218 38.2546 24.1086 38.7952L26.0662 39.2048ZM19.5 34C20.0523 34 20.5 33.5523 20.5 33C20.5 32.4477 20.0523 32 19.5 32V34ZM13.5 32C12.9477 32 12.5 32.4477 12.5 33C12.5 33.5523 12.9477 34 13.5 34V32ZM21.5 30C22.0523 30 22.5 29.5523 22.5 29C22.5 28.4477 22.0523 28 21.5 28V30ZM11.5 28C10.9477 28 10.5 28.4477 10.5 29C10.5 29.5523 10.9477 30 11.5 30V28ZM20.5 23L19.8753 23.7809L22.5195 25.8962L21.4487 22.6838L20.5 23ZM18.8158 17.9474L18.1911 17.1665L17.6466 17.6021L17.8671 18.2636L18.8158 17.9474ZM17.8333 15L16.8847 15.3162L17.1126 16H17.8333V15ZM16.5 11L17.4487 10.6838L16.5 7.83772L15.5513 10.6838L16.5 11ZM12.5 23L11.5513 22.6838L10.4805 25.8962L13.1247 23.7809L12.5 23ZM16.5 19.8L17.1247 19.0191L16.5 18.5194L15.8753 19.0191L16.5 19.8ZM22.5 15L23.1247 15.7809L25.3508 14H22.5V15ZM10.5 15V14H7.64922L9.87531 15.7809L10.5 15ZM14.1842 17.9474L15.1329 18.2636L15.3534 17.6021L14.8089 17.1665L14.1842 17.9474ZM15.1667 15V16H15.8874L16.1154 15.3162L15.1667 15ZM1.5 60H31.5V58H1.5V60ZM32.5 59V50H30.5V59H32.5ZM0.5 50V59H2.5V50H0.5ZM22.5 52H10.5V54H22.5V52ZM8.5 47H5.5V49H8.5V47ZM5.5 47H3.5V49H5.5V47ZM29.5 47H27.5V49H29.5V47ZM27.5 47H12.5V49H27.5V47ZM28.5 48V46H26.5V48H28.5ZM4.5 46V48H6.5V46H4.5ZM9 43H7.5V45H9V43ZM25.5 43H24V45H25.5V43ZM24 43H9V45H24V43ZM29.5 1C29.0543 0.104826 29.0543 0.104807 29.0543 0.104803C29.0543 0.104821 29.0543 0.104831 29.0542 0.104867C29.0541 0.104938 29.0538 0.105068 29.0534 0.105255C29.0527 0.105629 29.0515 0.106234 29.0498 0.107065C29.0464 0.108728 29.0412 0.111299 29.0343 0.114753C29.0203 0.121662 28.9992 0.132103 28.9711 0.14588C28.9151 0.173434 28.8316 0.214325 28.723 0.266972C28.5058 0.372277 28.1886 0.524554 27.7909 0.711179C26.9952 1.08459 25.8792 1.59468 24.5994 2.14078C22.0235 3.23996 18.8446 4.45866 16.2846 5.02348L16.7154 6.97652C19.467 6.36946 22.7881 5.08816 25.3843 3.9803C26.6906 3.42289 27.8287 2.90271 28.6405 2.52173C29.0466 2.33116 29.3715 2.17521 29.5956 2.06658C29.7076 2.01227 29.7944 1.96977 29.8536 1.94068C29.8832 1.92613 29.9058 1.91493 29.9213 1.90728C29.929 1.90346 29.935 1.90052 29.939 1.89849C29.9411 1.89748 29.9427 1.89669 29.9438 1.89614C29.9443 1.89586 29.9448 1.89564 29.9451 1.89548C29.9453 1.8954 29.9454 1.89533 29.9455 1.89528C29.9456 1.89522 29.9457 1.89517 29.5 1ZM16.2846 5.02348C13.888 5.55223 10.7106 5.79987 8.09251 5.9123C6.79176 5.96816 5.64428 5.9901 4.82234 5.99806C4.41155 6.00204 4.08253 6.00253 3.85688 6.00203C3.74406 6.00178 3.65712 6.00128 3.59875 6.00085C3.56956 6.00063 3.54752 6.00043 3.53296 6.00029C3.52568 6.00022 3.52028 6.00016 3.51678 6.00013C3.51503 6.00011 3.51377 6.00009 3.51298 6.00008C3.51259 6.00008 3.51232 6.00008 3.51217 6.00007C3.51209 6.00007 3.51207 6.00007 3.51203 6.00007C3.51204 6.00007 3.51208 6.00007 3.5 7C3.48792 7.99993 3.48802 7.99993 3.48815 7.99993C3.48823 7.99993 3.4884 7.99993 3.48857 7.99993C3.48891 7.99994 3.48937 7.99994 3.48995 7.99995C3.49111 7.99996 3.49276 7.99998 3.49489 8.00001C3.49915 8.00005 3.50534 8.00012 3.5134 8.0002C3.52952 8.00035 3.55317 8.00057 3.58399 8.00079C3.64564 8.00125 3.73602 8.00176 3.85243 8.00202C4.08522 8.00254 4.42222 8.00203 4.84172 7.99797C5.68037 7.98984 6.85059 7.96747 8.17831 7.91046C10.8172 7.79713 14.1398 7.54477 16.7154 6.97652L16.2846 5.02348ZM3.5 7C2.50156 7.05583 2.50156 7.0559 2.50157 7.05602C2.50158 7.05612 2.50159 7.05629 2.5016 7.0565C2.50162 7.05691 2.50165 7.0575 2.5017 7.05829C2.50179 7.05985 2.50192 7.06216 2.50209 7.06521C2.50243 7.0713 2.50294 7.08033 2.50362 7.09224C2.50497 7.11607 2.50698 7.15139 2.50965 7.19769C2.51499 7.2903 2.52295 7.42679 2.53345 7.60292C2.55444 7.95517 2.58558 8.46599 2.62627 9.10125C2.70764 10.3716 2.8272 12.1404 2.98003 14.1343C3.28509 18.1145 3.72471 23.0194 4.26075 26.6462L6.23925 26.3538C5.71423 22.8016 5.27885 17.9565 4.97418 13.9815C4.82214 11.9978 4.70315 10.2376 4.62218 8.97342C4.5817 8.34141 4.55074 7.83356 4.5299 7.48396C4.51949 7.30916 4.51161 7.17394 4.50634 7.08255C4.5037 7.03686 4.50172 7.00213 4.5004 6.97888C4.49974 6.96726 4.49925 6.95852 4.49892 6.95271C4.49876 6.9498 4.49863 6.94764 4.49855 6.94621C4.49851 6.9455 4.49849 6.94497 4.49847 6.94463C4.49846 6.94446 4.49845 6.94435 4.49845 6.94426C4.49844 6.94419 4.49844 6.94417 3.5 7ZM4.26075 26.6462C4.80572 30.3334 5.75063 34.7401 6.55501 38.2104C6.95793 39.9488 7.327 41.4582 7.59541 42.5333C7.72964 43.071 7.83874 43.5002 7.91437 43.7954C7.95219 43.943 7.98165 44.0571 8.0017 44.1344C8.01173 44.1731 8.0194 44.2026 8.02459 44.2226C8.02719 44.2325 8.02917 44.2401 8.03051 44.2452C8.03118 44.2478 8.03169 44.2498 8.03204 44.2511C8.03221 44.2518 8.03235 44.2523 8.03244 44.2526C8.03249 44.2528 8.03253 44.253 8.03255 44.2531C8.03258 44.2532 8.0326 44.2533 9 44C9.9674 43.7467 9.9674 43.7467 9.96739 43.7467C9.96737 43.7466 9.96735 43.7466 9.96732 43.7464C9.96725 43.7462 9.96714 43.7458 9.96699 43.7452C9.96669 43.744 9.96623 43.7423 9.96561 43.7399C9.96438 43.7352 9.9625 43.728 9.96001 43.7184C9.95502 43.6993 9.94756 43.6706 9.93775 43.6327C9.91814 43.557 9.88913 43.4447 9.85178 43.2989C9.77707 43.0074 9.66899 42.5822 9.53585 42.0489C9.26955 40.9822 8.90321 39.484 8.50336 37.7589C7.7022 34.3024 6.77211 29.959 6.23925 26.3538L4.26075 26.6462ZM28.3565 26.6392C29.0301 21.8474 29.5654 15.4431 29.932 10.254C30.1155 7.6558 30.2571 5.35561 30.3529 3.70488C30.4008 2.87944 30.4372 2.2162 30.4617 1.75908C30.474 1.53052 30.4832 1.35347 30.4894 1.23342C30.4925 1.1734 30.4948 1.12763 30.4964 1.09679C30.4972 1.08138 30.4978 1.06969 30.4982 1.06183C30.4984 1.05789 30.4985 1.05492 30.4986 1.05291C30.4987 1.0519 30.4987 1.05113 30.4987 1.05061C30.4987 1.05035 30.4987 1.05014 30.4987 1.05001C30.4988 1.04986 30.4988 1.04978 29.5 1C28.5012 0.950223 28.5012 0.950258 28.5012 0.950353C28.5012 0.950466 28.5012 0.950622 28.5012 0.950848C28.5012 0.9513 28.5012 0.951994 28.5011 0.952929C28.501 0.954799 28.5009 0.957634 28.5007 0.961423C28.5003 0.969002 28.4997 0.980397 28.499 0.995522C28.4974 1.02577 28.4951 1.07095 28.4921 1.13036C28.4859 1.24918 28.4767 1.42494 28.4646 1.65216C28.4402 2.10661 28.404 2.76686 28.3563 3.58903C28.2609 5.23351 28.1197 7.5251 27.9369 10.1131C27.5708 15.2963 27.0393 21.6421 26.376 26.3608L28.3565 26.6392ZM27.073 34.1878C27.5551 31.6667 28.0244 29.0024 28.3565 26.6392L26.376 26.3608C26.0503 28.6782 25.5877 31.3068 25.1086 33.8122L27.073 34.1878ZM24 44C24.9747 44.2234 24.9747 44.2234 24.9747 44.2233C24.9747 44.2233 24.9748 44.2233 24.9748 44.2232C24.9748 44.2232 24.9748 44.2231 24.9748 44.2229C24.9749 44.2226 24.975 44.2222 24.9751 44.2217C24.9754 44.2206 24.9757 44.219 24.9762 44.217C24.9771 44.2128 24.9785 44.2067 24.9804 44.1986C24.9841 44.1825 24.9895 44.1586 24.9967 44.1272C25.0109 44.0644 25.032 43.9717 25.0591 43.8513C25.1134 43.6105 25.192 43.2592 25.2899 42.8161C25.4857 41.93 25.7583 40.6764 26.0662 39.2048L24.1086 38.7952C23.8025 40.2582 23.5314 41.5045 23.337 42.3847C23.2398 42.8248 23.1617 43.1733 23.108 43.4116C23.0812 43.5307 23.0604 43.6222 23.0464 43.6838C23.0394 43.7146 23.0341 43.738 23.0305 43.7535C23.0288 43.7613 23.0274 43.7671 23.0266 43.771C23.0261 43.7729 23.0258 43.7744 23.0256 43.7753C23.0255 43.7758 23.0254 43.7761 23.0253 43.7763C23.0253 43.7764 23.0253 43.7765 23.0253 43.7766C23.0253 43.7766 23.0253 43.7766 23.0253 43.7766C23.0253 43.7766 23.0253 43.7766 24 44ZM19.5 32H13.5V34H19.5V32ZM21.5 28H11.5V30H21.5V28ZM21.4487 22.6838L19.7645 17.6311L17.8671 18.2636L19.5513 23.3162L21.4487 22.6838ZM18.782 14.6838L17.4487 10.6838L15.5513 11.3162L16.8847 15.3162L18.782 14.6838ZM13.1247 23.7809L17.1247 20.5809L15.8753 19.0191L11.8753 22.2191L13.1247 23.7809ZM19.4405 18.7282L23.1247 15.7809L21.8753 14.2191L18.1911 17.1665L19.4405 18.7282ZM9.87531 15.7809L13.5595 18.7282L14.8089 17.1665L11.1247 14.2191L9.87531 15.7809ZM15.8753 20.5809L19.8753 23.7809L21.1247 22.2191L17.1247 19.0191L15.8753 20.5809ZM22.5 14H17.8333V16H22.5V14ZM15.1667 14H10.5V16H15.1667V14ZM15.5513 10.6838L14.218 14.6838L16.1154 15.3162L17.4487 11.3162L15.5513 10.6838ZM13.2355 17.6311L11.5513 22.6838L13.4487 23.3162L15.1329 18.2636L13.2355 17.6311ZM6.5 46C6.5 45.4477 6.94772 45 7.5 45V43C5.84315 43 4.5 44.3431 4.5 46H6.5ZM28.5 46C28.5 44.3431 27.1569 43 25.5 43V45C26.0523 45 26.5 45.4477 26.5 46H28.5ZM2.5 50C2.5 49.4477 2.94772 49 3.5 49V47C1.84315 47 0.5 48.3431 0.5 50H2.5ZM32.5 50C32.5 48.3431 31.1569 47 29.5 47V49C30.0523 49 30.5 49.4477 30.5 50H32.5Z" fill="url(#paint0_linear_353_312)"/>
<defs>
<linearGradient id="paint0_linear_353_312" x1="31.5" y1="0.999991" x2="-15.8358" y2="25.484" gradientUnits="userSpaceOnUse">
<stop stop-color="#FF3D00"/>
<stop offset="1" stop-color="#FFB800"/>
</linearGradient>
</defs>
</svg>
