<svg width="16" height="16" viewBox="0 0 16 16" fill="none" xmlns="http://www.w3.org/2000/svg">
<path d="M14 9C14 12.866 10.866 16 7 16C3.13401 16 0 12.866 0 9C0 5.13401 3.13401 2 7 2C10.866 2 14 5.13401 14 9Z" fill="#FC525F"/>
<path d="M12 9C12 11.7614 9.76142 14 7 14C4.23858 14 2 11.7614 2 9C2 6.23858 4.23858 4 7 4C9.76142 4 12 6.23858 12 9Z" fill="#F5F5F5"/>
<path d="M10 9C10 10.6569 8.65685 12 7 12C5.34315 12 4 10.6569 4 9C4 7.34315 5.34315 6 7 6C8.65685 6 10 7.34315 10 9Z" fill="#FC525F"/>
<path d="M8.5 9C8.5 9.82843 7.82843 10.5 7 10.5C6.17157 10.5 5.5 9.82843 5.5 9C5.5 8.17157 6.17157 7.5 7 7.5C7.82843 7.5 8.5 8.17157 8.5 9Z" fill="#F5F5F5"/>
<path d="M7 9.70711C6.60947 9.70711 6.29289 9.39052 6.29289 9C6.29289 8.81246 6.36739 8.63261 6.5 8.5L12.5 2.5L14 0.999999L14.2929 0.707107C14.4255 0.574499 14.6054 0.5 14.7929 0.5C15.1834 0.5 15.5 0.816583 15.5 1.20711C15.5 1.39464 15.4255 1.5745 15.2929 1.70711L15 2L13.5 3.5L7.5 9.5C7.36739 9.63261 7.18754 9.70711 7 9.70711Z" fill="#7B6F7A"/>
<path d="M14.5 3.5L16 2H15L13.5 3.5H14.5Z" fill="#305D81"/>
<path d="M14 0.999999V0L12.5 1.5V2.5L14 0.999999Z" fill="#305D81"/>
</svg>
