<svg width="24" height="24" viewBox="0 0 24 24" fill="none" xmlns="http://www.w3.org/2000/svg">
<path d="M19.5 4.5V2.5V0.5H23.5V4.5H21.5H19.5Z" fill="#FFF4DB"/>
<path d="M19.5 23.5V21.5V19.5H21.5H23.5V23.5H19.5Z" fill="#FFF4DB"/>
<path d="M0.5 23.5V19.5H2.5V12.5C1.94772 12.5 1.5 12.0523 1.5 11.5C1.5 10.9477 1.94772 10.5 2.5 10.5C3.05228 10.5 3.5 10.9477 3.5 11.5C3.5 12.0523 3.05228 12.5 2.5 12.5V19.5H4.5V21.5V23.5H0.5Z" fill="#FFF4DB"/>
<path d="M12 1.5C11.4477 1.5 11 1.94771 11 2.5C11 3.05229 11.4477 3.5 12 3.5C12.5523 3.5 13 3.05229 13 2.5C13 1.94771 12.5523 1.5 12 1.5Z" fill="#FFF4DB"/>
<path d="M12 20.5C11.4477 20.5 11 20.9477 11 21.5C11 22.0523 11.4477 22.5 12 22.5C12.5523 22.5 13 22.0523 13 21.5C13 20.9477 12.5523 20.5 12 20.5Z" fill="#FFF4DB"/>
<path d="M21.5 10.5C20.9477 10.5 20.5 10.9477 20.5 11.5C20.5 12.0523 20.9477 12.5 21.5 12.5C22.0523 12.5 22.5 12.0523 22.5 11.5C22.5 10.9477 22.0523 10.5 21.5 10.5Z" fill="#FFF4DB"/>
<path fill-rule="evenodd" clip-rule="evenodd" d="M4.5 4.5H2.5V10.5C3.05228 10.5 3.5 10.9477 3.5 11.5C3.5 12.0523 3.05228 12.5 2.5 12.5V19.5H4.5V21.5H11C11 20.9477 11.4477 20.5 12 20.5C12.5523 20.5 13 20.9477 13 21.5H19.5V19.5H21.5V12.5C20.9477 12.5 20.5 12.0523 20.5 11.5C20.5 10.9477 20.9477 10.5 21.5 10.5V4.5H19.5V2.5H13C13 3.05229 12.5523 3.5 12 3.5C11.4477 3.5 11 3.05229 11 2.5H4.5V4.5ZM12.375 8.5H11.625L10.4583 12.5H13.5417L12.375 8.5Z" fill="#FFF4DB"/>
<path d="M1.5 0.5H0.5V4.5H2.5M3.5 0.5H4.5V2.5M2.5 4.5H4.5V2.5M2.5 4.5V10.5M2.5 10.5C1.94772 10.5 1.5 10.9477 1.5 11.5C1.5 12.0523 1.94772 12.5 2.5 12.5M2.5 10.5C3.05228 10.5 3.5 10.9477 3.5 11.5C3.5 12.0523 3.05228 12.5 2.5 12.5M2.5 19.5H4.5V21.5M2.5 19.5H0.5V23.5H4.5V21.5M2.5 19.5V12.5M21.5 4.5V10.5M21.5 4.5H19.5V2.5M21.5 4.5H23.5V0.5H19.5V2.5M21.5 10.5C20.9477 10.5 20.5 10.9477 20.5 11.5C20.5 12.0523 20.9477 12.5 21.5 12.5M21.5 10.5C22.0523 10.5 22.5 10.9477 22.5 11.5C22.5 12.0523 22.0523 12.5 21.5 12.5M21.5 19.5V12.5M21.5 19.5H23.5V23.5H19.5V21.5M21.5 19.5H19.5V21.5M11 2.5C11 1.94771 11.4477 1.5 12 1.5C12.5523 1.5 13 1.94771 13 2.5M11 2.5C11 3.05229 11.4477 3.5 12 3.5C12.5523 3.5 13 3.05229 13 2.5M11 2.5H4.5M13 2.5H19.5M11 21.5C11 20.9477 11.4477 20.5 12 20.5C12.5523 20.5 13 20.9477 13 21.5M11 21.5C11 22.0523 11.4477 22.5 12 22.5C12.5523 22.5 13 22.0523 13 21.5M11 21.5H4.5M13 21.5H19.5M16.625 14.5L17.5 17.5H15L14.4167 15.5H9.58333L9 17.5H6.5L10 5.5H14L14.5833 7.5M17 8.5V12.5M15 10.5H19M11.625 8.5H12.375L13.5417 12.5H10.4583L11.625 8.5Z" stroke="#F27228" stroke-linecap="round" stroke-linejoin="round"/>
</svg>
