<svg width="10" height="12" viewBox="0 0 10 12" fill="none" xmlns="http://www.w3.org/2000/svg">
<path fill-rule="evenodd" clip-rule="evenodd" d="M9.38036 0.646447C9.20782 0.451184 8.92808 0.451184 8.75554 0.646447L4.02498 6L8.75554 11.3536C8.92808 11.5488 9.20782 11.5488 9.38036 11.3536C9.5529 11.1583 9.5529 10.8417 9.38036 10.6464L5.27462 6L9.38036 1.35355C9.5529 1.15829 9.5529 0.841709 9.38036 0.646447ZM5.84584 0.646447C5.67331 0.451184 5.39356 0.451184 5.22102 0.646447L0.490468 6L5.22102 11.3536C5.39356 11.5488 5.67331 11.5488 5.84584 11.3536C6.01838 11.1583 6.01838 10.8417 5.84584 10.6464L1.74011 6L5.84584 1.35355C6.01838 1.15829 6.01838 0.841709 5.84584 0.646447Z" fill="#3D4465"/>
</svg>
