<svg width="137" height="56" viewBox="0 0 137 56" fill="none" xmlns="http://www.w3.org/2000/svg">
<rect width="137" height="56" fill="#968D8D"/>
<rect width="1920" height="1120" transform="translate(-280 -456)" fill="#D9E2E9"/>
<rect width="1920" height="1006" transform="translate(-280 -383)" fill="#EFF0F1"/>
<rect x="-40" y="-173" width="1440" height="766" rx="16" fill="white"/>
<g clip-path="url(#clip0_203_2)">
<rect x="0.5" width="136" height="56" rx="6" fill="url(#paint0_linear_203_2)"/>
<path opacity="0.05" d="M16.5242 0H136.5C136.5 0 135.157 42.7887 84.4689 26.1632C33.781 9.53779 15.7431 37.5649 16.5242 0Z" fill="white"/>
<path opacity="0.1" d="M0.532227 0H160.5C160.5 0 133.084 37.6255 65.5 21C-2.08382 4.37454 6 69 0.532227 0Z" fill="white"/>
<path opacity="0.1" d="M0.516439 56H82.4999C82.4999 56 47.5001 46 30 33.5C12.4999 21 -0.0172766 18.4351 0.516439 56Z" fill="white"/>
<path d="M28.5 31C28.5 27 31.5 27.5 31.5 25C31.5 23.3431 30.1569 22 28.5 22C26.8431 22 25.5 23.3431 25.5 25M28.5 34V34.01M39.5 28C39.5 34.0751 34.5751 39 28.5 39C22.4249 39 17.5 34.0751 17.5 28C17.5 21.9249 22.4249 17 28.5 17C34.5751 17 39.5 21.9249 39.5 28Z" stroke="white" stroke-width="2" stroke-linecap="round"/>
<text fill="white" xml:space="preserve" style="white-space: pre" font-family="Open Sans" font-size="15" letter-spacing="0em"><tspan x="48.5" y="33.8191">15 c&#xe2;u h&#x1ecf;i </tspan></text>
<g opacity="0.4">
<path d="M114.3 -17.5502C113.967 -17.4758 113.638 -17.3926 113.312 -17.3008L100.225 -4.08638C100.134 -3.75736 100.051 -3.42485 99.9774 -3.08892L114.3 -17.5502Z" fill="white"/>
<path d="M99.5394 1.58553C99.5346 1.40587 99.532 1.22557 99.532 1.04469C99.532 0.97766 99.5323 0.910759 99.533 0.843921L118.195 -17.999C118.261 -17.9997 118.327 -18 118.394 -18C118.573 -18 118.751 -17.9975 118.929 -17.9924L99.5394 1.58553Z" fill="white"/>
<path d="M100.013 5.3391C99.9669 5.13478 99.9237 4.9291 99.8835 4.72232L122.036 -17.6452C122.241 -17.6047 122.445 -17.5609 122.647 -17.5139L100.013 5.3391Z" fill="white"/>
<path d="M101.045 8.53C100.97 8.35448 100.899 8.1776 100.829 7.99943L125.282 -16.6902C125.458 -16.6202 125.633 -16.5477 125.807 -16.4726L101.045 8.53Z" fill="white"/>
<path d="M102.496 11.2972C102.399 11.1447 102.304 10.9907 102.212 10.8354L128.09 -15.2939C128.244 -15.2006 128.397 -15.1052 128.548 -15.0076L102.496 11.2972Z" fill="white"/>
<path d="M104.303 13.7048C104.186 13.5728 104.072 13.4391 103.959 13.3038L130.535 -13.5303C130.669 -13.4164 130.801 -13.3006 130.932 -13.1831L104.303 13.7048Z" fill="white"/>
<path d="M106.441 15.7779C106.305 15.6656 106.171 15.5515 106.039 15.4355L132.646 -11.4298C132.761 -11.2961 132.874 -11.1609 132.985 -11.024L106.441 15.7779Z" fill="white"/>
<path d="M108.914 17.5129C108.758 17.4214 108.604 17.3277 108.451 17.2318L134.425 -8.99395C134.52 -8.83974 134.613 -8.68404 134.704 -8.52693L108.914 17.5129Z" fill="white"/>
<path d="M111.755 18.8764C111.577 18.8086 111.4 18.7381 111.224 18.6651L135.845 -6.19503C135.917 -6.01744 135.987 -5.83844 136.054 -5.6582L111.755 18.8764Z" fill="white"/>
<path d="M115.042 19.7896C114.835 19.752 114.628 19.711 114.423 19.6667L136.837 -2.96448C136.881 -2.75731 136.921 -2.54892 136.959 -2.3393L115.042 19.7896Z" fill="white"/>
<path d="M118.945 20.0814C118.762 20.0867 118.578 20.0894 118.394 20.0894C118.328 20.0894 118.262 20.089 118.197 20.0883L137.254 0.845986C137.255 0.912178 137.255 0.97837 137.255 1.04469C137.255 1.2308 137.253 1.41621 137.247 1.60103L118.945 20.0814Z" fill="white"/>
<path d="M123.964 19.2451C123.626 19.3504 123.284 19.4464 122.939 19.5329L136.704 5.63364C136.619 5.98281 136.524 6.32823 136.419 6.66953L123.964 19.2451Z" fill="white"/>
<path d="M141.932 41.4922C142.611 40.5959 143.405 39.7937 144.293 39.1082L141.932 41.4922Z" fill="white"/>
<path d="M139.601 46.6668C139.645 46.4488 139.694 46.2329 139.749 46.0191L148.776 36.9039C148.988 36.8488 149.202 36.7991 149.418 36.755L139.601 46.6668Z" fill="white"/>
<path d="M139.362 49.7299C139.355 49.568 139.352 49.4053 139.351 49.2419L151.968 36.5025C152.13 36.5031 152.291 36.5067 152.451 36.5133L139.362 49.7299Z" fill="white"/>
<path d="M139.706 52.2044C139.673 52.0695 139.643 51.9338 139.615 51.7973L154.499 36.7686C154.634 36.797 154.769 36.8275 154.902 36.8603L139.706 52.2044Z" fill="white"/>
<path d="M140.412 54.312C140.362 54.1961 140.313 54.0792 140.266 53.9614L156.642 37.4259C156.759 37.4736 156.875 37.523 156.99 37.5741L140.412 54.312Z" fill="white"/>
<path d="M141.395 56.1409C141.33 56.0401 141.266 55.9384 141.204 55.8357L158.499 38.3731C158.6 38.4362 158.701 38.5007 158.801 38.5666L141.395 56.1409Z" fill="white"/>
<path d="M142.614 57.7318C142.536 57.6446 142.459 57.5563 142.383 57.4669L160.114 39.5633C160.203 39.64 160.29 39.718 160.376 39.7972L142.614 57.7318Z" fill="white"/>
<path d="M144.053 59.1C143.962 59.026 143.872 58.9508 143.783 58.8743L161.508 40.9774C161.584 41.0673 161.658 41.1583 161.732 41.2504L144.053 59.1Z" fill="white"/>
<path d="M145.717 60.2421C145.612 60.182 145.508 60.1205 145.406 60.0574L162.68 42.6156C162.742 42.7193 162.803 42.824 162.863 42.9297L145.717 60.2421Z" fill="white"/>
<path d="M147.627 61.1343C147.507 61.0902 147.388 61.0443 147.27 60.9966L163.61 44.4979C163.657 44.6174 163.703 44.7377 163.746 44.859L147.627 61.1343Z" fill="white"/>
<path d="M149.84 61.7216C149.7 61.698 149.561 61.6721 149.423 61.6439L164.251 46.672C164.279 46.8116 164.305 46.952 164.328 47.0931L149.84 61.7216Z" fill="white"/>
<path d="M152.474 61.8835C152.306 61.8908 152.138 61.8947 151.968 61.8953L164.5 49.2421C164.499 49.4131 164.496 49.5833 164.488 49.7526L152.474 61.8835Z" fill="white"/>
<path d="M155.896 61.2494C155.664 61.3274 155.429 61.3987 155.191 61.4632L164.072 52.4957C164.008 52.7361 163.937 52.9737 163.86 53.2082L155.896 61.2494Z" fill="white"/>
<path d="M44.3148 36.3646C43.678 36.7361 43.0715 37.1546 42.4998 37.6153L40.1718 39.9659C39.7155 40.5431 39.3011 41.1555 38.9331 41.7985L44.3148 36.3646Z" fill="white"/>
<path d="M37.1511 46.8895C37.1882 46.6505 37.2309 46.4134 37.2791 46.1783L48.6526 34.6945C48.8854 34.6458 49.1202 34.6027 49.3569 34.5653L37.1511 46.8895Z" fill="white"/>
<path d="M37.0151 50.3185C37.0016 50.1357 36.9914 49.9521 36.9845 49.7675L52.2073 34.397C52.39 34.404 52.5719 34.4143 52.7529 34.428L37.0151 50.3185Z" fill="white"/>
<path d="M37.4949 53.1257C37.4532 52.9724 37.414 52.8181 37.3771 52.6628L55.0747 34.7935C55.2285 34.8307 55.3813 34.8704 55.5332 34.9124L37.4949 53.1257Z" fill="white"/>
<path d="M38.3763 55.5275C38.3144 55.3952 38.2543 55.2619 38.1961 55.1275L57.5158 35.6204C57.6489 35.6792 57.7809 35.7398 57.9118 35.8024L38.3763 55.5275Z" fill="white"/>
<path d="M39.5696 57.6143C39.4909 57.4993 39.4138 57.3832 39.3382 57.266L59.6337 36.7737C59.7498 36.8499 59.8648 36.9278 59.9786 37.0073L39.5696 57.6143Z" fill="white"/>
<path d="M41.0334 59.4279C40.9396 59.3287 40.8471 59.2281 40.7559 59.1263L61.4761 38.2051C61.577 38.2971 61.6766 38.3905 61.7749 38.4853L41.0334 59.4279Z" fill="white"/>
<path d="M42.7537 60.9827C42.6449 60.8989 42.5373 60.8135 42.4309 60.7267L63.0612 39.8963C63.1471 40.0037 63.2316 40.1124 63.3147 40.2223L42.7537 60.9827Z" fill="white"/>
<path d="M44.738 62.2709C44.6132 62.2035 44.4895 62.1344 44.367 62.0636L64.3852 41.8512C64.4553 41.9749 64.5238 42.0998 64.5905 42.2258L44.738 62.2709Z" fill="white"/>
<path d="M47.0183 63.2601C46.8749 63.2121 46.7325 63.1618 46.5912 63.1095L65.421 44.097C65.4729 44.2397 65.5226 44.3834 65.5702 44.5282L47.0183 63.2601Z" fill="white"/>
<path d="M49.6663 63.8781C49.4987 63.8553 49.332 63.8296 49.1662 63.8012L66.1061 46.697C66.1343 46.8644 66.1597 47.0327 66.1823 47.2019L49.6663 63.8781Z" fill="white"/>
<path d="M52.8424 63.9629C52.6392 63.9795 52.4348 63.9919 52.2294 64L66.303 49.7898C66.2949 49.9973 66.2827 50.2037 66.2662 50.4088L52.8424 63.9629Z" fill="white"/>
<path d="M57.1039 62.9518C56.8068 63.0721 56.505 63.1829 56.1987 63.2838L65.5937 53.7977C65.4938 54.1069 65.384 54.4117 65.2649 54.7116L57.1039 62.9518Z" fill="white"/>
<path d="M-27.6475 15.9302C-28.0692 16.1763 -28.4709 16.4535 -28.8495 16.7587L-30.3891 18.3132C-30.6914 18.6955 -30.9659 19.1011 -31.2096 19.5269L-27.6475 15.9302Z" fill="white"/>
<path d="M-32.3896 22.8976C-32.3651 22.7394 -32.3368 22.5824 -32.3049 22.4268L-24.7755 14.8244C-24.6214 14.7921 -24.4659 14.7636 -24.3092 14.7388L-32.3896 22.8976Z" fill="white"/>
<path d="M-32.4797 25.1678C-32.4887 25.0468 -32.4954 24.9252 -32.5 24.803L-22.4221 14.6273C-22.3011 14.632 -22.1807 14.6388 -22.0608 14.6478L-32.4797 25.1678Z" fill="white"/>
<path d="M-32.1621 27.0263C-32.1897 26.9248 -32.2157 26.8226 -32.2401 26.7198L-20.5237 14.8898C-20.4219 14.9144 -20.3207 14.9407 -20.2202 14.9685L-32.1621 27.0263Z" fill="white"/>
<path d="M-31.5786 28.6164C-31.6196 28.5288 -31.6594 28.4406 -31.6979 28.3516L-18.9076 15.4372C-18.8195 15.4761 -18.7321 15.5163 -18.6454 15.5577L-31.5786 28.6164Z" fill="white"/>
<path d="M-30.7886 29.9979C-30.8407 29.9218 -30.8918 29.845 -30.9418 29.7674L-17.5054 16.2007C-17.4286 16.2512 -17.3524 16.3027 -17.2771 16.3554L-30.7886 29.9979Z" fill="white"/>
<path d="M-29.8195 31.1987C-29.8816 31.133 -29.9429 31.0664 -30.0032 30.999L-16.2857 17.1483C-16.2189 17.2092 -16.153 17.2711 -16.0879 17.3338L-29.8195 31.1987Z" fill="white"/>
<path d="M-28.6806 32.228C-28.7527 32.1725 -28.8239 32.116 -28.8943 32.0585L-15.2363 18.268C-15.1794 18.3391 -15.1234 18.411 -15.0685 18.4838L-28.6806 32.228Z" fill="white"/>
<path d="M-27.367 33.0808C-27.4496 33.0362 -27.5315 32.9905 -27.6126 32.9436L-14.3597 19.5621C-14.3133 19.6441 -14.268 19.7268 -14.2238 19.8101L-27.367 33.0808Z" fill="white"/>
<path d="M-25.8574 33.7358C-25.9523 33.704 -26.0465 33.6707 -26.1401 33.636L-13.6739 21.0489C-13.6396 21.1434 -13.6067 21.2386 -13.5752 21.3344L-25.8574 33.7358Z" fill="white"/>
<path d="M-24.1043 34.1449C-24.2152 34.1298 -24.3256 34.1128 -24.4354 34.094L-13.2204 22.7702C-13.2017 22.881 -13.1849 22.9925 -13.17 23.1045L-24.1043 34.1449Z" fill="white"/>
<path d="M-22.0016 34.2011C-22.1361 34.212 -22.2715 34.2203 -22.4075 34.2256L-13.09 24.8178C-13.0953 24.9551 -13.1035 25.0917 -13.1143 25.2276L-22.0016 34.2011Z" fill="white"/>
<path d="M-19.1805 33.5318C-19.3771 33.6115 -19.577 33.6848 -19.7797 33.7516L-13.5595 27.471C-13.6256 27.6758 -13.6983 27.8775 -13.7772 28.0761L-19.1805 33.5318Z" fill="white"/>
</g>
</g>
<rect x="-39.5" y="-172.5" width="1439" height="765" rx="15.5" stroke="#A9B8C3" stroke-opacity="0.3"/>
<defs>
<linearGradient id="paint0_linear_203_2" x1="0.5" y1="28" x2="136.5" y2="28" gradientUnits="userSpaceOnUse">
<stop stop-color="#FEB500"/>
<stop offset="1" stop-color="#FF9900"/>
</linearGradient>
<clipPath id="clip0_203_2">
<rect x="0.5" width="136" height="56" rx="6" fill="white"/>
</clipPath>
</defs>
</svg>
