<svg width="124" height="56" viewBox="0 0 124 56" fill="none" xmlns="http://www.w3.org/2000/svg">
<path d="M31.0001 24.5C31.0001 23.6716 31.6717 23 32.5001 23C33.3285 23 34.0001 23.6716 34.0001 24.5C34.0001 25.3284 33.3285 26 32.5001 26C31.6717 26 31.0001 25.3284 31.0001 24.5Z" fill="#319FFF" fill-opacity="0.4"/>
<path d="M23 29C23 29 24.1649 25.5054 27.2804 22.2878C25.0274 23.189 18 24.3818 18 27.6148C18 28.9321 19.0679 30 20.3852 30H24L23 29Z" fill="#319FFF" fill-opacity="0.4"/>
<path d="M34.7122 29.7196C31.4947 32.8351 28 34 28 34L27 33V36.6148C27 37.9321 28.0679 39 29.3852 39C32.6182 39 33.811 31.9726 34.7122 29.7196Z" fill="#319FFF" fill-opacity="0.4"/>
<path d="M22.1299 37.5801L20.3868 38.7422C20.1347 38.9103 19.8384 39 19.5353 39C18.6874 39 18.0001 38.3127 18.0001 37.4648C18.0001 37.1617 18.0898 36.8654 18.2579 36.6132L19.42 34.8702C19.7824 34.3265 20.3925 34 21.0459 34C22.1252 34 23.0001 34.8749 23.0001 35.9542C23.0001 36.6075 22.6735 37.2177 22.1299 37.5801Z" fill="#319FFF" fill-opacity="0.4"/>
<path d="M40 17C37.0796 17 34.6134 17.6056 32.5447 18.5447L38.4553 24.4553C39.3944 22.3866 40 19.9204 40 17Z" fill="#319FFF" fill-opacity="0.4"/>
<path d="M34.7122 29.7196C31.4947 32.8351 28 34 28 34L27 33M34.7122 29.7196C33.811 31.9726 32.6182 39 29.3852 39C28.0679 39 27 37.9321 27 36.6148V33M34.7122 29.7196C36.1175 28.3588 37.47 26.6259 38.4553 24.4553M27 33L24 30M27.2804 22.2878C24.1649 25.5054 23 29 23 29L24 30M27.2804 22.2878C25.0274 23.189 18 24.3818 18 27.6148C18 28.9321 19.0679 30 20.3852 30H24M27.2804 22.2878C28.6412 20.8825 30.3742 19.53 32.5447 18.5447M32.5447 18.5447C34.6134 17.6056 37.0796 17 40 17C40 19.9204 39.3944 22.3866 38.4553 24.4553M32.5447 18.5447L38.4553 24.4553M32.5001 26C31.6717 26 31.0001 25.3284 31.0001 24.5C31.0001 23.6716 31.6717 23 32.5001 23C33.3285 23 34.0001 23.6716 34.0001 24.5C34.0001 25.3284 33.3285 26 32.5001 26ZM18.0001 37.4648C18.0001 37.1617 18.0898 36.8654 18.2579 36.6132L19.42 34.8702C19.7824 34.3265 20.3925 34 21.0459 34C22.1252 34 23.0001 34.8749 23.0001 35.9542C23.0001 36.6075 22.6735 37.2177 22.1299 37.5801L20.3868 38.7422C20.1347 38.9103 19.8384 39 19.5353 39C18.6874 39 18.0001 38.3127 18.0001 37.4648Z" stroke="#319FFF" stroke-width="2" stroke-linejoin="round"/>
<path d="M58.0986 23.5059L54.7012 33.5H52.3906L49 23.5059H51.1396L53.0195 29.4531C53.0514 29.5534 53.1038 29.7425 53.1768 30.0205C53.2497 30.2939 53.3226 30.5856 53.3955 30.8955C53.473 31.2008 53.5254 31.4538 53.5527 31.6543C53.5801 31.4538 53.6279 31.2008 53.6963 30.8955C53.7692 30.5902 53.8398 30.3008 53.9082 30.0273C53.9811 29.7493 54.0335 29.5579 54.0654 29.4531L55.959 23.5059H58.0986ZM65.4814 33.5L64.7568 31.1211H61.1133L60.3887 33.5H58.1055L61.6328 23.4648H64.2236L67.7646 33.5H65.4814ZM64.251 29.3438L63.5264 27.0195C63.4808 26.8646 63.4193 26.6663 63.3418 26.4248C63.2689 26.1787 63.1937 25.9303 63.1162 25.6797C63.0433 25.4245 62.984 25.2035 62.9385 25.0166C62.8929 25.2035 62.8291 25.4359 62.7471 25.7139C62.6696 25.9873 62.5944 26.2471 62.5215 26.4932C62.4486 26.7393 62.3962 26.9147 62.3643 27.0195L61.6465 29.3438H64.251ZM62.5967 20.4229C62.7334 20.6325 62.8975 20.8649 63.0889 21.1201C63.2848 21.3753 63.4831 21.6237 63.6836 21.8652C63.8841 22.1022 64.0573 22.3073 64.2031 22.4805V22.665H62.8223C62.6445 22.542 62.4372 22.3893 62.2002 22.207C61.9632 22.0202 61.7194 21.8265 61.4688 21.626C61.2227 21.4209 60.9925 21.2249 60.7783 21.0381C60.5641 20.8512 60.391 20.694 60.2588 20.5664V20.4229H62.5967ZM78.1006 28.4893C78.1006 29.2594 78.0049 29.9613 77.8135 30.5947C77.6221 31.2236 77.3304 31.766 76.9385 32.2217C76.5511 32.6774 76.0589 33.0283 75.4619 33.2744C74.8649 33.516 74.1585 33.6367 73.3428 33.6367C72.527 33.6367 71.8206 33.516 71.2236 33.2744C70.6266 33.0283 70.1322 32.6774 69.7402 32.2217C69.3529 31.766 69.0635 31.2214 68.8721 30.5879C68.6807 29.9544 68.585 29.2503 68.585 28.4756C68.585 27.4411 68.7536 26.541 69.0908 25.7754C69.4326 25.0052 69.9567 24.4082 70.6631 23.9844C71.3695 23.5605 72.2673 23.3486 73.3564 23.3486C74.4411 23.3486 75.332 23.5605 76.0293 23.9844C76.7311 24.4082 77.2507 25.0052 77.5879 25.7754C77.9297 26.5456 78.1006 27.4502 78.1006 28.4893ZM70.8066 28.4893C70.8066 29.1865 70.8932 29.7881 71.0664 30.2939C71.2441 30.7952 71.5199 31.1826 71.8936 31.4561C72.2673 31.7249 72.7503 31.8594 73.3428 31.8594C73.9443 31.8594 74.432 31.7249 74.8057 31.4561C75.1794 31.1826 75.4505 30.7952 75.6191 30.2939C75.7923 29.7881 75.8789 29.1865 75.8789 28.4893C75.8789 27.4411 75.6829 26.6162 75.291 26.0146C74.8991 25.4131 74.2542 25.1123 73.3564 25.1123C72.7594 25.1123 72.2718 25.249 71.8936 25.5225C71.5199 25.7913 71.2441 26.1787 71.0664 26.6846C70.8932 27.1859 70.8066 27.7874 70.8066 28.4893ZM87.6641 33.5H85.5449V25.2695H82.8311V23.5059H90.3779V25.2695H87.6641V33.5ZM100.105 33.5H97.9932V29.1865H94.0352V33.5H91.916V23.5059H94.0352V27.4229H97.9932V23.5059H100.105V33.5ZM102.635 33.5V23.5059H104.754V33.5H102.635Z" fill="#319FFF"/>
<rect x="1.5" y="1" width="121" height="54" rx="5" stroke="#319FFF" stroke-width="2"/>
</svg>
