<svg width="159" height="48" viewBox="0 0 159 48" fill="none" xmlns="http://www.w3.org/2000/svg">
<path d="M103.871 39.9462C103.188 40.5377 102.275 40.8336 101.133 40.8336C100.021 40.8336 99.1031 40.64 98.3789 40.2523L98.9754 38.7532C99.6281 39.1105 100.327 39.2884 101.071 39.2884C101.693 39.2884 102.188 39.1409 102.555 38.845C102.932 38.5495 103.121 38.1466 103.121 37.6368C103.121 36.9435 102.53 36.3364 101.347 35.8164C100.47 35.4186 99.8323 35.0314 99.4349 34.6539C98.8127 34.0827 98.5019 33.3793 98.5019 32.5427C98.5019 31.5944 98.8232 30.8348 99.4654 30.2632C100.097 29.7027 100.944 29.4219 102.005 29.4219C103.024 29.4219 103.856 29.6156 104.498 30.0032L103.947 31.4105C103.345 31.074 102.718 30.9058 102.066 30.9058C101.515 30.9058 101.071 31.0436 100.735 31.3188C100.398 31.594 100.231 31.9715 100.231 32.4509C100.231 33.1239 100.852 33.7458 102.097 34.3174C102.964 34.7147 103.585 35.0923 103.963 35.4491C104.575 36.0206 104.881 36.7241 104.881 37.5603C104.881 38.5596 104.544 39.3548 103.871 39.9462Z" fill="#1268B1"/>
<path d="M108.995 43.9543H107.236L108.475 40.6654L105.385 32.4201H107.251L109.041 38.019C109.163 38.4066 109.26 38.8201 109.332 39.258H109.362C109.424 38.8095 109.515 38.3965 109.637 38.019L111.443 32.4201H113.309L108.995 43.9543Z" fill="#1268B1"/>
<path d="M118.556 40.1602C117.995 40.6091 117.205 40.8332 116.185 40.8332C115.196 40.8332 114.339 40.6396 113.615 40.2519L114.181 38.9668C114.772 39.324 115.425 39.5024 116.139 39.5024C116.588 39.5024 116.95 39.4005 117.226 39.1963C117.501 38.9925 117.639 38.7169 117.639 38.3703C117.639 37.83 117.149 37.381 116.17 37.0242C115.425 36.749 114.9 36.4785 114.594 36.2134C114.084 35.7953 113.829 35.2445 113.829 34.5613C113.829 33.868 114.084 33.3121 114.594 32.894C115.114 32.4657 115.823 32.2514 116.72 32.2514C117.648 32.2514 118.449 32.445 119.122 32.8327L118.602 33.9952C118.082 33.6693 117.516 33.5057 116.904 33.5057C116.476 33.5057 116.139 33.6076 115.894 33.8118C115.659 34.0054 115.543 34.2552 115.543 34.5613C115.543 34.8978 115.68 35.1734 115.956 35.3874C116.129 35.5302 116.465 35.6934 116.966 35.8769C117.751 36.1728 118.296 36.443 118.602 36.6877C119.122 37.1062 119.382 37.6719 119.382 38.3859C119.382 39.1409 119.107 39.7319 118.556 40.1602Z" fill="#1268B1"/>
<path d="M124.369 40.5888C124.103 40.7114 123.757 40.7727 123.328 40.7727C121.819 40.7727 121.065 39.9674 121.065 38.3559V33.6748H119.948V32.4205H121.065V30.5084L122.701 30.0037V32.4205H124.369V33.6748H122.701V38.2637C122.701 38.9574 123.069 39.3037 123.803 39.3037C124.017 39.3037 124.205 39.2682 124.369 39.1967V40.5888Z" fill="#1268B1"/>
<path d="M132.17 36.5043L126.694 37.269C126.867 38.7579 127.708 39.5024 129.218 39.5024C130.115 39.5024 130.875 39.3341 131.497 38.9976L131.987 40.2519C131.242 40.6396 130.284 40.8332 129.111 40.8332C127.826 40.8332 126.827 40.4455 126.113 39.6706C125.409 38.916 125.057 37.871 125.057 36.5347C125.057 35.2601 125.388 34.2299 126.052 33.4444C126.725 32.6492 127.632 32.2514 128.775 32.2514C129.835 32.2514 130.671 32.5778 131.283 33.2305C131.885 33.8832 132.186 34.7655 132.186 35.8769C132.186 36.1525 132.181 36.3618 132.17 36.5043ZM130.58 35.6173C130.57 34.1897 129.957 33.4757 128.744 33.4757C128.091 33.4757 127.576 33.7103 127.199 34.1796C126.802 34.659 126.597 35.3218 126.587 36.1682L130.58 35.6173Z" fill="#1268B1"/>
<path d="M142.863 40.6653V35.0817C142.863 34.6129 142.72 34.2455 142.434 33.9804C142.149 33.7255 141.766 33.5983 141.287 33.5983C140.624 33.5983 140.119 33.7818 139.773 34.1487V40.6653H138.09V34.9291C138.09 34.5211 137.938 34.1948 137.632 33.95C137.325 33.7154 136.917 33.5983 136.407 33.5983C135.847 33.5983 135.377 33.6799 135 33.8431V40.6658H133.333V32.8335C134.271 32.4459 135.26 32.2523 136.301 32.2523C137.484 32.2523 138.36 32.5482 138.932 33.1396C139.626 32.5486 140.538 32.2523 141.67 32.2523C142.547 32.2523 143.246 32.492 143.766 32.9713C144.276 33.4507 144.531 34.0984 144.531 34.9143V40.6658H142.863V40.6653Z" fill="#1268B1"/>
<path d="M64.02 7.38453C59.7874 7.38453 56.1472 10.1649 54.6891 14.0745C54.613 14.2745 54.3547 15.0984 54.3547 15.0984L48.4629 40.6154H61.9967C66.6461 40.6154 70.5819 37.2618 71.6954 32.7388C71.6954 32.7409 71.6945 32.7409 71.6945 32.743H71.6954L77.5487 7.38453H64.02Z" fill="#16B14B"/>
<path d="M41.4871 0C36.9549 0 33.1307 3.0683 31.9449 7.25688C31.8557 7.56929 31.7838 7.88931 31.7246 8.21271L22.5383 48H36.0603C40.6949 48 44.5922 44.7905 45.6808 40.4557V40.4565H45.6846L55.0248 0H41.4871Z" fill="#F27227"/>
<path d="M15.5546 7.38453C11.1686 7.38453 7.41795 10.37 6.07065 14.504C6.04148 14.5974 6.01147 14.6896 5.98441 14.783L5.7574 15.6725L0 40.6154H13.8598C18.0006 40.6154 21.5572 37.8676 22.9383 34.018L23.4866 31.6443L29.0863 7.38453H15.5546Z" fill="#1169B0"/>
<path d="M13.0245 15.6704L13.0194 15.692H12.8089C11.8438 15.692 10.9328 16.0365 10.0995 16.7175C9.29758 17.3732 8.76957 18.1705 8.58779 18.8237H8.57975L5.4751 32.3085L5.65096 32.3055C6.62878 32.3055 7.55036 31.9593 8.38825 31.2732C9.23036 30.5887 9.76852 29.7496 9.98539 28.7802L10.6647 25.8544L16.8373 25.8561C17.802 25.8561 18.7325 25.4955 19.5763 24.8157C20.4158 24.1363 20.9527 23.3014 21.1696 22.3363L21.2089 22.1587L11.5246 22.1511L12.1685 19.3707L20.557 19.3597C21.5222 19.3597 22.4345 19.0186 23.2664 18.3443C24.0971 17.6679 24.6163 16.8186 24.8475 15.8615L24.8915 15.6831L13.0245 15.6704Z" fill="white"/>
<path d="M47.2669 16.4897C46.7338 15.9553 46.0384 15.6848 45.1988 15.6848L33.3602 15.6704L29.5369 32.2865H29.5428L29.5369 32.3089L29.7144 32.3059C30.6905 32.3059 31.6126 31.9597 32.4509 31.2736C33.2921 30.5892 33.8303 29.75 34.0484 28.7806L34.7345 25.821L42.9316 25.8277C43.8929 25.8277 44.7532 25.7174 45.5869 25.0448C46.4167 24.3735 47.0077 23.3077 47.242 22.3261L47.9619 19.2468C48.0143 19.0042 48.0439 18.7493 48.0485 18.4905C48.0633 17.6966 47.8012 17.0228 47.2669 16.4897ZM43.5738 22.1486L35.5881 22.1405L36.2336 19.3555L44.2206 19.3644L43.5738 22.1486Z" fill="white"/>
<path d="M71.3529 16.4998C70.8304 15.9646 70.1346 15.6919 69.2916 15.6919H64.077H63.7485H56.7998L56.7753 15.8107C56.7195 16.072 56.6887 16.3121 56.6849 16.5425C56.6709 17.3529 56.9305 18.0344 57.456 18.5725C57.9806 19.1065 58.6756 19.3783 59.5194 19.3783H62.1328L59.1562 32.3084L59.333 32.3055C60.3095 32.3055 61.2307 31.9593 62.0694 31.2731C62.9115 30.5887 63.4488 29.7496 63.6661 28.7802L65.8479 19.3787H72.0111L72.0361 19.2608C72.0898 19.0147 72.1172 18.7594 72.1223 18.5053C72.1363 17.7063 71.8784 17.032 71.3529 16.4998Z" fill="white"/>
<path d="M73.7805 37.7492C73.7805 36.1728 75.0644 34.8902 76.6417 34.8902C78.2219 34.8902 79.5049 36.1728 79.5049 37.7492C79.5049 39.3269 78.2219 40.6125 76.6417 40.6125C75.0644 40.6125 73.7805 39.3269 73.7805 37.7492ZM78.8095 37.7492C78.8095 36.4125 77.8414 35.4423 76.6417 35.4423C75.4466 35.4423 74.4793 36.4125 74.4793 37.7492C74.4793 39.0902 75.4466 40.0578 76.6417 40.0578C77.8414 40.0578 78.8095 39.0902 78.8095 37.7492ZM75.5404 36.117H76.7461C77.5218 36.117 77.9458 36.3863 77.9458 37.0699C77.9458 37.6249 77.6262 37.893 77.0944 37.942L77.9666 39.3582H77.3485L76.5102 37.9627H76.1454V39.3582H75.5408V36.117H75.5404ZM76.1449 37.5049H76.6768C77.0298 37.5049 77.3405 37.4541 77.3405 37.0217C77.3405 36.637 76.9934 36.5765 76.6831 36.5765H76.1449V37.5049Z" fill="#1169B0"/>
<path d="M85.8511 26.7058V15.6306H87.5797V26.7058H85.8511Z" fill="#1268B1"/>
<path d="M94.0503 26.7058V21.1986C94.0503 20.1587 93.4741 19.6387 92.3217 19.6387C91.71 19.6387 91.2048 19.7203 90.807 19.8835V26.7062H89.1401V18.8735C90.0884 18.4859 91.144 18.2922 92.3065 18.2922C94.5906 18.2922 95.7329 19.21 95.7329 21.0456V26.7058H94.0503Z" fill="#1268B1"/>
<path d="M101.041 16.0128C99.9496 16.0128 99.4039 16.4871 99.4039 17.4354V18.4601H101.117V19.7144H99.4039V26.7054H97.7674V19.7148H96.6814V18.4605H97.7674V17.4358C97.7674 16.5281 98.0528 15.8298 98.6239 15.3398C99.1435 14.8913 99.8524 14.6668 100.75 14.6668C100.934 14.6668 101.107 14.6769 101.27 14.6972V16.0128H101.041Z" fill="#1268B1"/>
<path d="M108.093 25.6349C107.44 26.461 106.542 26.874 105.4 26.874C104.258 26.874 103.36 26.461 102.708 25.6349C102.086 24.86 101.775 23.84 101.775 22.5755C101.775 21.3111 102.086 20.2914 102.708 19.5161C103.36 18.7002 104.258 18.2922 105.4 18.2922C106.542 18.2922 107.44 18.7002 108.093 19.5161C108.715 20.291 109.026 21.3111 109.026 22.5755C109.026 23.84 108.715 24.86 108.093 25.6349ZM106.854 20.4187C106.517 19.8885 106.033 19.623 105.4 19.623C104.767 19.623 104.283 19.8885 103.947 20.4187C103.62 20.9386 103.457 21.6527 103.457 22.5603C103.457 23.4679 103.62 24.1815 103.947 24.7019C104.283 25.2426 104.767 25.5128 105.4 25.5128C106.033 25.5128 106.517 25.2426 106.854 24.7019C107.18 24.182 107.343 23.4684 107.343 22.5603C107.343 21.6527 107.18 20.9386 106.854 20.4187Z" fill="#1268B1"/>
<path d="M113.982 19.7452C113.737 19.6839 113.456 19.6535 113.141 19.6535C112.61 19.6535 112.177 19.7249 111.84 19.8674V26.7053H110.173V18.8735C111.091 18.4859 112.156 18.2922 113.371 18.2922C113.778 18.2922 114.089 18.313 114.304 18.3535L113.982 19.7452Z" fill="#1268B1"/>
<path d="M124.659 26.7058V21.1221C124.659 20.6533 124.516 20.2859 124.231 20.0209C123.945 19.7659 123.563 19.6387 123.083 19.6387C122.421 19.6387 121.916 19.8222 121.569 20.1891V26.7058H119.887V20.9691C119.887 20.5611 119.734 20.2348 119.428 19.99C119.122 19.7554 118.714 19.6383 118.204 19.6383C117.643 19.6383 117.173 19.7199 116.796 19.883V26.7058H115.129V18.8735C116.067 18.4859 117.057 18.2922 118.097 18.2922C119.28 18.2922 120.157 18.5882 120.728 19.1796C121.422 18.5886 122.335 18.2922 123.467 18.2922C124.344 18.2922 125.042 18.5319 125.562 19.0113C126.072 19.4907 126.328 20.1384 126.328 20.9543V26.7058H124.659Z" fill="#1268B1"/>
<path d="M133.914 26.2927C133.189 26.6804 132.2 26.874 130.946 26.874C128.57 26.874 127.381 26.0125 127.381 24.2889C127.381 23.249 127.891 22.5045 128.911 22.0555C129.655 21.7296 130.793 21.5254 132.322 21.4438V20.9239C132.322 19.9858 131.741 19.5165 130.578 19.5165C129.773 19.5165 129.013 19.6848 128.299 20.0213L127.87 18.874C128.747 18.4863 129.706 18.2927 130.746 18.2927C132.857 18.2927 133.913 19.2261 133.913 21.0921V26.2927H133.914ZM132.323 22.5603C131.222 22.6216 130.451 22.7341 130.013 22.8968C129.31 23.1522 128.958 23.6058 128.958 24.2585C128.958 25.197 129.605 25.6658 130.901 25.6658C131.543 25.6658 132.017 25.5948 132.323 25.4515V22.5603Z" fill="#1268B1"/>
<path d="M139.237 26.6293C138.971 26.7519 138.625 26.8132 138.196 26.8132C136.687 26.8132 135.933 26.0078 135.933 24.3963V19.7148H134.816V18.4605H135.933V16.5484L137.57 16.0437V18.4605H139.237V19.7148H137.57V24.3037C137.57 24.9975 137.937 25.3437 138.671 25.3437C138.885 25.3437 139.074 25.3082 139.237 25.2367V26.6293Z" fill="#1268B1"/>
<path d="M141.822 16.6862C141.628 16.8697 141.394 16.9614 141.119 16.9614C140.843 16.9614 140.608 16.8697 140.415 16.6862C140.221 16.5028 140.124 16.2783 140.124 16.0132C140.124 15.7482 140.221 15.5237 140.415 15.3402C140.608 15.1567 140.843 15.065 141.119 15.065C141.394 15.065 141.628 15.1567 141.822 15.3402C142.016 15.5241 142.113 15.7482 142.113 16.0132C142.113 16.2783 142.016 16.5028 141.822 16.6862ZM140.277 26.7058V18.4605H141.96V26.7058H140.277Z" fill="#1268B1"/>
<path d="M149.471 25.6349C148.818 26.461 147.92 26.874 146.778 26.874C145.636 26.874 144.739 26.461 144.086 25.6349C143.464 24.86 143.153 23.84 143.153 22.5755C143.153 21.3111 143.464 20.2914 144.086 19.5161C144.739 18.7002 145.636 18.2922 146.778 18.2922C147.92 18.2922 148.818 18.7002 149.471 19.5161C150.093 20.291 150.404 21.3111 150.404 22.5755C150.404 23.84 150.093 24.86 149.471 25.6349ZM148.232 20.4187C147.895 19.8885 147.411 19.623 146.778 19.623C146.146 19.623 145.661 19.8885 145.325 20.4187C144.999 20.9386 144.835 21.6527 144.835 22.5603C144.835 23.4679 144.999 24.1815 145.325 24.7019C145.661 25.2426 146.146 25.5128 146.778 25.5128C147.411 25.5128 147.895 25.2426 148.232 24.7019C148.558 24.182 148.721 23.4684 148.721 22.5603C148.721 21.6527 148.558 20.9386 148.232 20.4187Z" fill="#1268B1"/>
<path d="M156.461 26.7058V21.1986C156.461 20.1587 155.885 19.6387 154.733 19.6387C154.121 19.6387 153.616 19.7203 153.218 19.8835V26.7062H151.551V18.8735C152.499 18.4859 153.555 18.2922 154.717 18.2922C157.002 18.2922 158.144 19.21 158.144 21.0456V26.7058H156.461Z" fill="#1268B1"/>
</svg>
