<svg width="24" height="24" viewBox="0 0 24 24" fill="none" xmlns="http://www.w3.org/2000/svg">
<path d="M9 5.03952V4C9 3.44772 9.44771 3 10 3H23C23.5523 3 24 3.44772 24 4V5.00282C24 5.554 23.554 6.00126 23.0028 6.00282L10.0028 6.03951C9.44944 6.04108 9 5.59291 9 5.03952Z" fill="url(#paint0_linear_373_7)"/>
<path d="M5.23607 2.80897L4 0L2.76393 2.80897L0 3.25941L2 4.91264L1.5 8L4 6.54235L6.5 8L6 4.91264L8 3.25941L5.23607 2.80897Z" fill="url(#paint1_linear_373_7)"/>
<path d="M9 13.0385V12C9 11.4477 9.44771 11 10 11H19C19.5523 11 20 11.4477 20 12V13.0038C20 13.5546 19.5546 14.0017 19.0039 14.0038L10.0038 14.0385C9.45006 14.0406 9 13.5923 9 13.0385Z" fill="url(#paint2_linear_373_7)"/>
<path d="M5.23607 10.809L4 8L2.76393 10.809L0 11.2594L2 12.9126L1.5 16L4 14.5423L6.5 16L6 12.9126L8 11.2594L5.23607 10.809Z" fill="url(#paint3_linear_373_7)"/>
<path d="M9 21.0363V20C9 19.4477 9.44771 19 10 19H15C15.5523 19 16 19.4477 16 20V21.006C16 21.556 15.556 22.0027 15.006 22.006L10.006 22.0363C9.45141 22.0396 9 21.5909 9 21.0363Z" fill="url(#paint4_linear_373_7)"/>
<path d="M5.23607 18.809L4 16L2.76393 18.809L0 19.2594L2 20.9126L1.5 24L4 22.5423L6.5 24L6 20.9126L8 19.2594L5.23607 18.809Z" fill="url(#paint5_linear_373_7)"/>
<defs>
<linearGradient id="paint0_linear_373_7" x1="12" y1="0" x2="12" y2="24" gradientUnits="userSpaceOnUse">
<stop stop-color="#F27228"/>
<stop offset="1" stop-color="#F7BC3B"/>
</linearGradient>
<linearGradient id="paint1_linear_373_7" x1="12" y1="0" x2="12" y2="24" gradientUnits="userSpaceOnUse">
<stop stop-color="#F27228"/>
<stop offset="1" stop-color="#F7BC3B"/>
</linearGradient>
<linearGradient id="paint2_linear_373_7" x1="12" y1="0" x2="12" y2="24" gradientUnits="userSpaceOnUse">
<stop stop-color="#F27228"/>
<stop offset="1" stop-color="#F7BC3B"/>
</linearGradient>
<linearGradient id="paint3_linear_373_7" x1="12" y1="0" x2="12" y2="24" gradientUnits="userSpaceOnUse">
<stop stop-color="#F27228"/>
<stop offset="1" stop-color="#F7BC3B"/>
</linearGradient>
<linearGradient id="paint4_linear_373_7" x1="12" y1="0" x2="12" y2="24" gradientUnits="userSpaceOnUse">
<stop stop-color="#F27228"/>
<stop offset="1" stop-color="#F7BC3B"/>
</linearGradient>
<linearGradient id="paint5_linear_373_7" x1="12" y1="0" x2="12" y2="24" gradientUnits="userSpaceOnUse">
<stop stop-color="#F27228"/>
<stop offset="1" stop-color="#F7BC3B"/>
</linearGradient>
</defs>
</svg>
